<?xml version="1.0" encoding="UTF-8" standalone="no"?>
<!-- Created with Inkscape (http://www.inkscape.org/) -->

<svg
   xmlns:dc="http://purl.org/dc/elements/1.1/"
   xmlns:cc="http://creativecommons.org/ns#"
   xmlns:rdf="http://www.w3.org/1999/02/22-rdf-syntax-ns#"
   xmlns:svg="http://www.w3.org/2000/svg"
   xmlns="http://www.w3.org/2000/svg"
   xmlns:sodipodi="http://sodipodi.sourceforge.net/DTD/sodipodi-0.dtd"
   xmlns:inkscape="http://www.inkscape.org/namespaces/inkscape"
   width="34.967335mm"
   height="34.967331mm"
   viewBox="0 0 123.90001 123.89999"
   id="svg4337"
   version="1.1"
   inkscape:version="0.91 r13725"
   sodipodi:docname="altLogo.svg">
  <defs
     id="defs4339" />
  <sodipodi:namedview
     id="base"
     pagecolor="#ffffff"
     bordercolor="#666666"
     borderopacity="1.0"
     inkscape:pageopacity="0.0"
     inkscape:pageshadow="2"
     inkscape:zoom="2.8"
     inkscape:cx="-4.9052263"
     inkscape:cy="59.165234"
     inkscape:document-units="px"
     inkscape:current-layer="layer1"
     showgrid="false"
     fit-margin-top="0"
     fit-margin-left="0"
     fit-margin-right="0"
     fit-margin-bottom="0"
     inkscape:window-width="1547"
     inkscape:window-height="876"
     inkscape:window-x="53"
     inkscape:window-y="24"
     inkscape:window-maximized="1" />
  <metadata
     id="metadata4342">
    <rdf:RDF>
      <cc:Work
         rdf:about="">
        <dc:format>image/svg+xml</dc:format>
        <dc:type
           rdf:resource="http://purl.org/dc/dcmitype/StillImage" />
        <dc:title></dc:title>
      </cc:Work>
    </rdf:RDF>
  </metadata>
  <g
     inkscape:label="Layer 1"
     inkscape:groupmode="layer"
     id="layer1"
     transform="translate(-112.33571,-356.1265)">
    <path
       d="m 112.33571,418.02649 c 0,34.3 27.8,62 62,62 34.2,0 61.9,-27.7 61.9,-61.9 0,-34.29999 -27.7,-61.99999 -61.9,-61.99999 -34.2,0 -62,27.7 -62,61.89999 z"
       class="g4_3"
       id="path30"
       inkscape:connector-curvature="0"
       style="display:block;fill:#85cdd4" />
    <path
       d="m 201.43571,393.9265 c -0.4,-0.1 -3.6,-1 -3.6,-0.3 0.1,-1 -1.1,-2.8 -1.1,-2.8 1.5,-9.8 -9.2,-10.9 -9.2,-10.9 0.3,0 0.7,-2.2 0.7,-2.4 0.1,-1.4 -0.4,-3.3 -1.1,-4.5 -2.9,-5.2 -10.8,-3 -11.7,2.5 -0.3,1.6 -0.1,3.2 0.2,4.8 0,0.2 0.3,1.9 0.6,2 -2.2,-0.6 -5.1,1.4 -5.1,1.4 -0.1,0.1 -2.4,-1.2 -2.6,-1.3 -1.7,-0.7 -3.5,-1.1 -5.3,-1.4 -4.8,-0.9 -10.4,-0.3 -13.9,3.4 -3.8,3.9 -4.9,10 -3.2,15.1 0.5,-0.5 1.1,-1 1.8,-1.5 0.7,-0.5 1.5,-1 2.3,-1.4 0.9,-0.5 1.7,-0.9 2.6,-1.2 4.1,-1.6 8.8,-2.1 13.2,-1.3 1.5,0.3 3.1,0.7 4.6,1.3 0.8,0.3 1.6,0.7 2.3,1.1 0.7,0.4 1.7,0.9 2.3,1.4 0,0 6,5.8 5.7,12.29999 0,1.5 0,3 0,4.5 0.1,1.1 0,2.4 0.8,3.3 1.2,1.4 3.5,1.9 3.5,4.1 0,1.9 -2.8,2.1 -3.2,3.4 -0.3,1.3 0.3,3 0.2,3.4 0,0.4 -1.3,0.7 -1.3,0.9 0,0.1 1,0.7 0.9,1.3 -0.1,0.6 -0.1,0.8 -1.4,1.6 -1.2,0.9 -0.2,2.3 -0.2,2.3 0,0 0.9,1.3 0.1,2.6 -0.8,1.2 -5.6,1.2 -5.8,1.2 -0.1,0.1 -3.2,-0.1 -4.4,1.5 -1.2,1.6 -2.6,6 -1.6,8.3 0,0 0.2,0.3 0,0.5 -0.1,0.1 -2.6,0.2 -6.1,0.2 0.1,0.2 0.2,0.4 0.2,0.4 -4.6,2.5 -2.5,7.3 -2.5,7.3 -5.2,1.9 -2.6,9.2 2,8.4 4.7,-0.8 3.6,-5.2 3.6,-5.2 1.1,0.6 3,0.3 3,0.3 6.1,-2.3 3.6,-7.3 3.6,-7.3 0.8,-0.4 1.4,-1.3 1.4,-1.3 2.3,2 5.4,2.2 7.9,0.5 1.9,-1.2 2.7,-3.2 2.8,-5.3 0.1,-0.4 0.3,-2.4 -0.1,-2.7 4.1,2.8 9.5,1.1 11,-3.7 0.8,-2.4 0.2,-5.2 -1.1,-7.4 -0.1,-0.2 -2.4,-2.8 -2.4,-2.8 1.3,-2.5 -0.3,-5.5 -0.3,-5.5 0.3,0.4 2.4,0 2.8,0 4.9,-0.9 8,-4.8 7,-9.9 -0.1,-0.4 -0.8,-4.3 -1.2,-4.2 2.6,-0.6 5.4,-2.2 6.6,-4.8 0.5,-0.9 0.7,-2.09999 0.8,-3.09999 0.2,-4.2 -2.1,-7.8 -6.1,-9.1 z"
       class="g2_3"
       id="path318"
       inkscape:connector-curvature="0"
       style="display:block;fill:#ee3b34" />
    <path
       d="m 168.53571,448.62649 c -1,-2.3 0.4,-6.7 1.6,-8.3 1.2,-1.6 4.3,-1.4 4.4,-1.5 0.2,0 5,0 5.8,-1.2 0.8,-1.3 -0.1,-2.6 -0.1,-2.6 0,0 -1,-1.4 0.2,-2.3 1.3,-0.8 1.3,-1 1.4,-1.6 0.1,-0.6 -0.9,-1.2 -0.9,-1.3 0,-0.2 1.3,-0.5 1.3,-0.9 0.1,-0.4 -0.5,-2.1 -0.2,-3.4 0.4,-1.3 3.2,-1.5 3.2,-3.4 0,-2.2 -2.3,-2.7 -3.5,-4.1 -0.8,-0.9 -0.7,-2.2 -0.8,-3.3 0,-1.5 0,-3 0,-4.5 0.3,-6.49999 -5.7,-12.29999 -5.7,-12.29999 -0.6,-0.5 -1.6,-1 -2.3,-1.4 -0.7,-0.4 -1.5,-0.8 -2.3,-1.1 -1.5,-0.6 -3.1,-1 -4.6,-1.3 -4.4,-0.8 -9.1,-0.3 -13.2,1.3 -0.9,0.3 -1.7,0.7 -2.6,1.2 -0.8,0.4 -1.6,0.9 -2.3,1.4 -0.7,0.5 -1.3,1 -1.8,1.5 0.5,1.8 1.4,3.4 2.7,4.8 0.9,0.89999 1.9,1.69999 3,2.39999 0,0 1.3,0.7 1.3,0.7 -2.2,10.4 6.7,14.7 6.7,14.7 -2.2,7.8 6.2,9.4 6.2,9.4 -0.5,3.9 3.5,4.8 3.5,4.8 -11.1,0.7 -7.8,10.9 -7.1,13 3.5,0 6,-0.1 6.1,-0.2 0.2,-0.2 0,-0.5 0,-0.5 z"
       class="g3_3"
       id="path320"
       inkscape:connector-curvature="0"
       style="display:block;fill:#961c3c" />
    <path
       d="m 168.53571,448.62649 c -1,-2.3 0.4,-6.7 1.6,-8.3 1.2,-1.6 4.3,-1.4 4.4,-1.5 0.2,0 5,0 5.8,-1.2 0.8,-1.3 -0.1,-2.6 -0.1,-2.6 0,0 -1,-1.4 0.2,-2.3 1.3,-0.8 1.3,-1 1.4,-1.6 0.1,-0.6 -0.9,-1.2 -0.9,-1.3 0,-0.2 1.3,-0.5 1.3,-0.9 0.1,-0.4 -0.5,-2.1 -0.2,-3.4 0.4,-1.3 3.2,-1.5 3.2,-3.4 0,-2.2 -2.3,-2.7 -3.5,-4.1 -0.8,-0.9 -0.7,-2.2 -0.8,-3.3 0,-1.5 0,-3 0,-4.5 0.3,-6.49999 -5.7,-12.29999 -5.7,-12.29999 -0.6,-0.5 -1.6,-1 -2.3,-1.4 -0.7,-0.4 -1.5,-0.8 -2.3,-1.1 -1.5,-0.6 -3.1,-1 -4.6,-1.3 -4.4,-0.8 -9.1,-0.3 -13.2,1.3 -0.9,0.3 -1.7,0.7 -2.6,1.2 -0.8,0.4 -1.6,0.9 -2.3,1.4 -0.7,0.5 -1.3,1 -1.8,1.5 0.5,1.8 1.4,3.4 2.7,4.8 0.9,0.89999 1.9,1.69999 3,2.39999 0,0 1.3,0.7 1.3,0.7 -2.2,10.4 6.7,14.7 6.7,14.7 -2.2,7.8 6.2,9.4 6.2,9.4 -0.5,3.9 3.5,4.8 3.5,4.8 -11.1,0.7 -7.8,10.9 -7.1,13 3.5,0 6,-0.1 6.1,-0.2 0.2,-0.2 0,-0.5 0,-0.5 z"
       class="g12_3"
       id="path322"
       inkscape:connector-curvature="0"
       style="display:block;fill:none;stroke:#961c3c;stroke-width:1;stroke-linecap:butt;stroke-linejoin:miter" />
  </g>
</svg>
