<?xml version="1.0" encoding="UTF-8" standalone="no"?>
<!-- Page 1 -->

<svg
   xmlns:dc="http://purl.org/dc/elements/1.1/"
   xmlns:cc="http://creativecommons.org/ns#"
   xmlns:rdf="http://www.w3.org/1999/02/22-rdf-syntax-ns#"
   xmlns:svg="http://www.w3.org/2000/svg"
   xmlns="http://www.w3.org/2000/svg"
   xmlns:sodipodi="http://sodipodi.sourceforge.net/DTD/sodipodi-0.dtd"
   xmlns:inkscape="http://www.inkscape.org/namespaces/inkscape"
   x="0"
   y="0"
   width="713"
   height="336"
   version="1.1"
   style="display: block;margin-left: auto;margin-right: auto;"
   id="svg2"
   inkscape:version="0.91 r13725"
   sodipodi:docname="diagram1.svg">
  <metadata
     id="metadata70">
    <rdf:RDF>
      <cc:Work
         rdf:about="">
        <dc:format>image/svg+xml</dc:format>
        <dc:type
           rdf:resource="http://purl.org/dc/dcmitype/StillImage" />
      </cc:Work>
    </rdf:RDF>
  </metadata>
  <sodipodi:namedview
     pagecolor="#ffffff"
     bordercolor="#666666"
     borderopacity="1"
     objecttolerance="10"
     gridtolerance="10"
     guidetolerance="10"
     inkscape:pageopacity="0"
     inkscape:pageshadow="2"
     inkscape:window-width="1547"
     inkscape:window-height="876"
     id="namedview68"
     showgrid="false"
     inkscape:zoom="1.1781807"
     inkscape:cx="292.21669"
     inkscape:cy="143.43492"
     inkscape:window-x="53"
     inkscape:window-y="24"
     inkscape:window-maximized="1"
     inkscape:current-layer="svg2" />
  <defs
     id="defs4">
    <style
       type="text/css"
       id="style6"><![CDATA[

.g4_1{
fill: #961C3C;
}
.g5_1{
fill: #FFFFFF;
}
.g2_1{
fill: #EE3B34;
}
.g6_1{
fill: none;
stroke: #961C3C;
stroke-width: 3;
stroke-linecap: butt;
stroke-linejoin: miter;
}
.g3_1{
fill: #85CDD4;
}
.g1_1{
fill: none;
stroke: #961C3C;
stroke-width: 4;
stroke-linecap: butt;
stroke-linejoin: miter;
}

.s2_1{
font-size: 15.93px;
font-family: EJCKZY-Clarke1;
fill: #85CDD4;
}
.s3_1{
font-size: 34.55px;
font-family: NXBSCU-Clarke-Medium1;
fill: #961C3C;
}
.s1_1{
font-size: 15.93px;
font-family: EJCKZY-Clarke1;
fill: #EE3B34;
}

]]></style>
  </defs>
  <path
     d="M0,0 L0,336 L713,336 L713,0 Z "
     fill="#FFFFFF"
     stroke="none"
     id="path8" />
  <path
     d="M705.6,318.2c0,5.7,-5.2,10.3,-11.6,10.3l-676,0c-6.4,0,-11.5,-4.6,-11.5,-10.3L6.5,17.3C6.5,11.6,11.6,7,18,7L694,7c6.4,0,11.6,4.6,11.6,10.3l0,300.9Z"
     class="g1_1"
     id="path10" />
  <path
     d="M446.6,171.1c0,-34,16.4,-64.1,41.7,-83C471.1,75.3,449.7,67.7,426.6,67.7c-57,0,-103.3,46.3,-103.3,103.4c0,57,46.3,103.3,103.3,103.3c23.1,0,44.5,-7.6,61.7,-20.4C463,235.2,446.6,205,446.6,171.1Z"
     class="g2_1"
     id="path12" />
  <path
     d="M549.9,67.7c-23.1,0,-44.4,7.6,-61.6,20.4c25.3,18.9,41.7,49,41.7,83c0,33.9,-16.4,64.1,-41.7,82.9c17.2,12.8,38.5,20.4,61.6,20.4c57.1,0,103.3,-46.3,103.3,-103.3C653.2,114,607,67.7,549.9,67.7Z"
     class="g3_1"
     id="path14" />
  <path
     d="M530,171.1c0,-34,-16.4,-64.1,-41.7,-83c-25.3,18.9,-41.7,49,-41.7,83c0,33.9,16.4,64.1,41.7,82.9C513.6,235.2,530,205,530,171.1Z"
     class="g4_1"
     id="path16" />
  <path
     d="M411.7,171.3c0,0.7,-0.4,1.1,-1,1.1l-6.7,0c-0.6,0,-1.1,-0.4,-1.1,-1.1l0,-28.1c0,-0.7,0.5,-1.1,1.1,-1.1l6.7,0c0.6,0,1,0.4,1,1.1Z"
     class="g5_1"
     id="path18" />
  <path
     d="M448.7,181.1c0.7,0,1.1,0.5,1.1,1.1l0,6.6c0,0.7,-0.4,1.1,-1.1,1.1l-44.7,0c-0.6,0,-1.1,-0.4,-1.1,-1.1l0,-6.6c0,-0.6,0.5,-1.1,1.1,-1.1Z"
     class="g5_1"
     id="path20" />
  <path
     d="M423,142.1l6.5,0c0,0,0.8,0,1.1,0.5l10.6,16.3l0,-16.3c0,-0.3,0.4,-0.5,1,-0.5l6.7,0c0.6,0,1,0.2,1,0.5l0,29.2c0,0.4,-0.4,0.6,-1,0.6l-6.2,0c0,0,-0.8,0,-1.2,-0.6L430.6,157.1l0,14.7c0,0.4,-0.4,0.6,-1,0.6l-6.6,0c-0.7,0,-1.1,-0.2,-1.1,-0.6l0,-29.2c0,-0.3,0.4,-0.5,1.1,-0.5Z"
     class="g5_1"
     id="path22" />
  <path
     d="M468.8,168.4l0,33.7c0,0.6,-0.4,1.1,-1,1.1l-6.6,0c-0.7,0,-1.1,-0.5,-1.1,-1.1l0,-58.9c0,-0.7,0.4,-1.1,1.1,-1.1l6.3,0c0,0,0.9,0,1.3,1.1l10.6,29.2L490,143.2c0.4,-1.1,1.3,-1.1,1.3,-1.1l6.4,0c0.6,0,1,0.4,1,1.1l0,58.9c0,0.6,-0.4,1.1,-1,1.1l-6.7,0c-0.6,0,-1,-0.5,-1,-1.1l0,-33.7l-10.6,29.4Z"
     class="g5_1"
     id="path24" />
  <path
     d="M518.8,185.6l6.5,0L522,161.5Zm6.8,-43.5c0,0,1,0,1.1,1.1l10.2,58.9c0.1,1.1,-0.6,1.1,-0.6,1.1l-7.3,0c0,0,-0.8,0,-0.9,-1.1l-1.4,-8.2l-9.3,0l-1.4,8.2c-0.1,1.1,-0.9,1.1,-0.9,1.1l-7.2,0c0,0,-0.8,0,-0.6,-1.1l10.1,-58.9c0.1,-1.1,1.1,-1.1,1.1,-1.1Z"
     class="g5_1"
     id="path26" />
  <path
     d="M564.1,152.6c0,-1.2,-1,-2.2,-2.2,-2.2l-7.7,0l0,20.3l7.7,0c1.2,0,2.2,-1,2.2,-2.2Zm-18.7,-9.4c0,-0.7,0.4,-1.1,1.1,-1.1l17.5,0c4.8,0,8.9,4,8.9,8.9l0,18.7c0,5,-4.1,8.9,-8.9,8.9l-9.8,0l0,23.5c0,0.6,-0.5,1.1,-1.1,1.1l-6.6,0c-0.7,0,-1.1,-0.5,-1.1,-1.1Z"
     class="g5_1"
     id="path28" />
  <path
     d="M61.8,61.6c0,0.3,-0.2,0.4,-0.4,0.4l-2.8,0c-0.3,0,-0.4,-0.1,-0.4,-0.4l0,-11.8c0,-0.3,0.1,-0.5,0.4,-0.5l2.8,0c0.2,0,0.4,0.2,0.4,0.5Z"
     class="g4_1"
     id="path30" />
  <path
     d="M77.3,65.7c0.3,0,0.5,0.2,0.5,0.4l0,2.8c0,0.3,-0.2,0.4,-0.5,0.4l-18.7,0c-0.3,0,-0.4,-0.1,-0.4,-0.4l0,-2.8c0,-0.2,0.1,-0.4,0.4,-0.4Z"
     class="g2_1"
     id="path32" />
  <path
     d="M66.6,49.3l2.7,0c0,0,0.3,0,0.5,0.2l4.4,6.9l0,-6.9c0,-0.1,0.2,-0.2,0.4,-0.2l2.8,0c0.3,0,0.5,0.1,0.5,0.2l0,12.3c0,0.1,-0.2,0.2,-0.5,0.2l-2.6,0c0,0,-0.3,0,-0.5,-0.2L69.8,55.6l0,6.2c0,0.1,-0.2,0.2,-0.5,0.2l-2.7,0c-0.3,0,-0.5,-0.1,-0.5,-0.2l0,-12.3c0,-0.1,0.2,-0.2,0.5,-0.2Z"
     class="g4_1"
     id="path34" />
  <path
     d="M85.8,60.3l0,14.1c0,0.3,-0.2,0.5,-0.4,0.5l-2.8,0c-0.3,0,-0.5,-0.2,-0.5,-0.5l0,-24.6c0,-0.3,0.2,-0.5,0.5,-0.5l2.6,0c0,0,0.4,0,0.6,0.5L90.2,62L94.7,49.8c0.1,-0.5,0.5,-0.5,0.5,-0.5l2.7,0c0.2,0,0.4,0.2,0.4,0.5l0,24.6c0,0.3,-0.2,0.5,-0.4,0.5l-2.8,0c-0.3,0,-0.5,-0.2,-0.5,-0.5l0,-14.1L90.2,72.7Z"
     class="g4_1"
     id="path36" />
  <path
     d="M106.7,67.5l2.8,0L108.1,57.4Zm2.9,-18.2c0,0,0.4,0,0.4,0.5l4.3,24.6c0.1,0.5,-0.3,0.5,-0.3,0.5l-3,0c0,0,-0.3,0,-0.4,-0.5L110,71l-3.9,0l-0.6,3.4c0,0.5,-0.3,0.5,-0.3,0.5l-3.1,0c0,0,-0.3,0,-0.2,-0.5l4.2,-24.6c0.1,-0.5,0.5,-0.5,0.5,-0.5Z"
     class="g4_1"
     id="path38" />
  <path
     d="M125.7,53.7c0,-0.5,-0.4,-0.9,-0.9,-0.9l-3.3,0l0,8.5l3.3,0c0.5,0,0.9,-0.4,0.9,-0.9Zm-7.8,-3.9c0,-0.3,0.2,-0.5,0.4,-0.5l7.4,0c2,0,3.7,1.7,3.7,3.7l0,7.9c0,2.1,-1.7,3.7,-3.7,3.7l-4.2,0l0,9.8c0,0.3,-0.1,0.5,-0.4,0.5l-2.8,0c-0.2,0,-0.4,-0.2,-0.4,-0.5Z"
     class="g4_1"
     id="path40" />
  <path
     d="M363.5,158.5l-98,0"
     class="g6_1"
     id="path42" />
  <path
     d="M363.5,156.4c1.4,0,2.5,1.1,2.5,2.5c0,1.3,-1.1,2.5,-2.5,2.5c-1.4,0,-2.5,-1.2,-2.5,-2.5c0,-1.4,1.1,-2.5,2.5,-2.5Z"
     class="g4_1"
     id="path44" />
  <path
     d="M554.5,243.5l0,15l-290,0"
     class="g6_1"
     id="path58" />
  <path
     d="M552.1,243.3c0,-1.4,1.1,-2.5,2.5,-2.5c1.4,0,2.5,1.1,2.5,2.5c0,1.3,-1.1,2.5,-2.5,2.5c-1.4,0,-2.5,-1.2,-2.5,-2.5Z"
     class="g4_1"
     id="path60" />
  <text
     x="138"
     y="74"
     class="s3_1"
     id="text62"
     dx="0,0,0,0,0,0,0,0"
     style="-inkscape-font-specification:'EB Garamond';font-family:'EB Garamond';font-weight:normal;font-style:normal;font-stretch:normal;font-variant:normal;">
    <tspan
       style="-inkscape-font-specification:Helvetica;font-family:Helvetica;font-weight:normal;font-style:normal;font-stretch:normal;font-variant:normal;font-size:22.5px;fill:#961c3c;fill-opacity:1"
       id="tspan3398">combines</tspan>
  </text>
  <!-- Any embedded fonts defined here -->
  <style
     type="text/css"
     id="style64"><![CDATA[

@font-face {
	font-family: NXBSCU-Clarke-Medium1;
	src: url("1/fonts/NXBSCU-Clarke-Medium.woff") format("woff");
}

@font-face {
	font-family: EJCKZY-Clarke1;
	src: url("1/fonts/EJCKZY-Clarke.woff") format("woff");
}

]]></style>
  <title
     id="title66">toc Page1</title>
  <flowRoot
     xml:space="preserve"
     id="flowRoot4200"
     style="fill:black;stroke:none;stroke-opacity:1;stroke-width:1px;stroke-linejoin:miter;stroke-linecap:butt;fill-opacity:1;font-family:Helvetica;font-style:normal;font-weight:normal;font-size:8.75px;line-height:125%;letter-spacing:0px;word-spacing:0px;-inkscape-font-specification:Helvetica;font-stretch:normal;font-variant:normal"><flowRegion
       id="flowRegion4202"><rect
         id="rect4204"
         width="23.765453"
         height="19.521624"
         x="182.48474"
         y="120.41338" /></flowRegion><flowPara
       id="flowPara4206"></flowPara></flowRoot>  <flowRoot
     xml:space="preserve"
     id="flowRoot4228"
     style="fill:black;stroke:none;stroke-opacity:1;stroke-width:1px;stroke-linejoin:miter;stroke-linecap:butt;fill-opacity:1;font-family:Helvetica;font-style:normal;font-weight:normal;font-size:17.5px;line-height:125%;letter-spacing:0px;word-spacing:0px;-inkscape-font-specification:Helvetica;font-stretch:normal;font-variant:normal;"><flowRegion
       id="flowRegion4230"><rect
         id="rect4232"
         width="227.46935"
         height="88.27169"
         x="96.759346"
         y="110.22819"
         style="font-size:17.5px;" /></flowRegion><flowPara
       id="flowPara4234"></flowPara></flowRoot>  <flowRoot
     xml:space="preserve"
     id="flowRoot4236"
     style="fill:black;stroke:none;stroke-opacity:1;stroke-width:1px;stroke-linejoin:miter;stroke-linecap:butt;fill-opacity:1;font-family:Helvetica;font-style:normal;font-weight:normal;font-size:8.75px;line-height:125%;letter-spacing:0px;word-spacing:0px;-inkscape-font-specification:Helvetica;font-stretch:normal;font-variant:normal"><flowRegion
       id="flowRegion4238"><rect
         id="rect4240"
         width="176.54338"
         height="81.48156"
         x="95.910583"
         y="100.04299" /></flowRegion><flowPara
       id="flowPara4242"></flowPara></flowRoot>  <text
     xml:space="preserve"
     style="font-style:normal;font-variant:normal;font-weight:normal;font-stretch:normal;font-size:17.5px;line-height:125%;font-family:Helvetica;-inkscape-font-specification:Helvetica;text-align:end;letter-spacing:0px;word-spacing:0px;text-anchor:end;fill:#000000;fill-opacity:1;stroke:none;stroke-width:1px;stroke-linecap:butt;stroke-linejoin:miter;stroke-opacity:1"
     x="262.91522"
     y="130.59857"
     id="text4244"
     sodipodi:linespacing="125%"><tspan
       sodipodi:role="line"
       id="tspan4246"
       x="262.91522"
       y="130.59857"
       style="fill:#ee3b34;fill-opacity:1">Long range transport</tspan><tspan
       sodipodi:role="line"
       x="262.91522"
       y="152.47357"
       id="tspan4248"
       style="fill:#ee3b34;fill-opacity:1">Secondary pollutant formation</tspan><tspan
       sodipodi:role="line"
       x="262.91522"
       y="174.34859"
       id="tspan4250"
       style="fill:#ee3b34;fill-opacity:1">Many pollutants</tspan><tspan
       sodipodi:role="line"
       x="262.91522"
       y="196.22359"
       id="tspan4252"
       style="fill:#ee3b34;fill-opacity:1">Many sources</tspan></text>
  <text
     xml:space="preserve"
     style="font-style:normal;font-variant:normal;font-weight:normal;font-stretch:normal;font-size:17.5px;line-height:125%;font-family:Helvetica;-inkscape-font-specification:Helvetica;text-align:end;letter-spacing:0px;word-spacing:0px;text-anchor:end;fill:#000000;fill-opacity:1;stroke:none;stroke-width:1px;stroke-linecap:butt;stroke-linejoin:miter;stroke-opacity:1"
     x="261.92786"
     y="251.12337"
     id="text4254"
     sodipodi:linespacing="125%"><tspan
       sodipodi:role="line"
       id="tspan4256"
       x="261.92786"
       y="251.12337"
       style="fill:#85cdd4;fill-opacity:1">High spatial resolution</tspan><tspan
       sodipodi:role="line"
       x="261.92786"
       y="272.99838"
       id="tspan4258"
       style="fill:#85cdd4;fill-opacity:1">Computational efficiency</tspan></text>
</svg>
