<?xml version="1.0" encoding="UTF-8" standalone="no"?>
<!-- Created with Inkscape (http://www.inkscape.org/) -->

<svg
   xmlns:dc="http://purl.org/dc/elements/1.1/"
   xmlns:cc="http://creativecommons.org/ns#"
   xmlns:rdf="http://www.w3.org/1999/02/22-rdf-syntax-ns#"
   xmlns:svg="http://www.w3.org/2000/svg"
   xmlns="http://www.w3.org/2000/svg"
   xmlns:sodipodi="http://sodipodi.sourceforge.net/DTD/sodipodi-0.dtd"
   xmlns:inkscape="http://www.inkscape.org/namespaces/inkscape"
   width="16.447699mm"
   height="5.9098406mm"
   viewBox="0 0 58.279247 20.94038"
   id="svg4465"
   version="1.1"
   inkscape:version="0.91 r13725"
   sodipodi:docname="textLogo.svg">
  <defs
     id="defs4467" />
  <sodipodi:namedview
     id="base"
     pagecolor="#ffffff"
     bordercolor="#666666"
     borderopacity="1.0"
     inkscape:pageopacity="0.0"
     inkscape:pageshadow="2"
     inkscape:zoom="0.7"
     inkscape:cx="-297.89784"
     inkscape:cy="-27.117419"
     inkscape:document-units="px"
     inkscape:current-layer="layer1"
     showgrid="false"
     fit-margin-top="0"
     fit-margin-left="0"
     fit-margin-right="0"
     fit-margin-bottom="0"
     inkscape:window-width="1547"
     inkscape:window-height="876"
     inkscape:window-x="53"
     inkscape:window-y="24"
     inkscape:window-maximized="1" />
  <metadata
     id="metadata4470">
    <rdf:RDF>
      <cc:Work
         rdf:about="">
        <dc:format>image/svg+xml</dc:format>
        <dc:type
           rdf:resource="http://purl.org/dc/dcmitype/StillImage" />
        <dc:title></dc:title>
      </cc:Work>
    </rdf:RDF>
  </metadata>
  <g
     inkscape:label="Layer 1"
     inkscape:groupmode="layer"
     id="layer1"
     transform="translate(-448.00323,-564.74916)">
    <path
       inkscape:connector-curvature="0"
       id="path54"
       style="fill:#941739;fill-opacity:1;fill-rule:nonzero;stroke:none"
       d="m 450.99923,574.78016 c 0,0.23375 -0.145,0.37875 -0.34875,0.37875 l -2.26875,0 c -0.2325,0 -0.3775,-0.145 -0.3775,-0.37875 l 0,-9.6525 c 0,-0.2325 0.145,-0.3775 0.3775,-0.3775 l 2.26875,0 c 0.20375,0 0.34875,0.145 0.34875,0.3775 l 0,9.6525 z" />
    <path
       inkscape:connector-curvature="0"
       id="path56"
       style="fill:#ee2c32;fill-opacity:1;fill-rule:nonzero;stroke:none"
       d="m 463.69698,578.14329 c 0.23375,0 0.3775,0.14375 0.3775,0.3475 l 0,2.26875 c 0,0.2325 -0.14375,0.37875 -0.3775,0.37875 l -15.315,0 c -0.2325,0 -0.37875,-0.14625 -0.37875,-0.37875 l 0,-2.26875 c 0,-0.20375 0.14625,-0.3475 0.37875,-0.3475 l 15.315,0 z" />
    <path
       inkscape:connector-curvature="0"
       id="path58"
       style="fill:#941739;fill-opacity:1;fill-rule:nonzero;stroke:none"
       d="m 454.86648,564.74966 2.24,0 c 0,0 0.29,0 0.3775,0.1875 l 3.63625,5.5825 0,-5.5825 c 0,-0.115 0.14375,-0.1875 0.34875,-0.1875 l 2.29625,0 c 0.20375,0 0.35,0.0725 0.35,0.1875 l 0,10.00875 c 0,0.11625 -0.14625,0.18875 -0.35,0.18875 l -2.1225,0 c 0,0 -0.29125,0 -0.405,-0.18875 l -3.75375,-5.0325 0,5.0325 c 0,0.11625 -0.145,0.18875 -0.34875,0.18875 l -2.26875,0 c -0.23375,0 -0.37875,-0.0725 -0.37875,-0.18875 l 0,-10.00875 c 0,-0.115 0.145,-0.1875 0.37875,-0.1875" />
    <path
       inkscape:connector-curvature="0"
       id="path60"
       style="fill:#941739;fill-opacity:1;fill-rule:nonzero;stroke:none"
       d="m 470.59886,573.76579 0,11.54625 c 0,0.2325 -0.145,0.3775 -0.34875,0.3775 l -2.26875,0 c -0.2325,0 -0.3775,-0.145 -0.3775,-0.3775 l 0,-20.18375 c 0,-0.23375 0.145,-0.37875 0.3775,-0.37875 l 2.1525,0 c 0,0 0.32,0 0.465,0.37875 l 3.63625,10.005 3.635,-10.005 c 0.1175,-0.37875 0.43625,-0.37875 0.43625,-0.37875 l 2.18125,0 c 0.20375,0 0.34875,0.145 0.34875,0.37875 l 0,20.18375 c 0,0.2325 -0.145,0.3775 -0.34875,0.3775 l -2.2975,0 c -0.2025,0 -0.34875,-0.145 -0.34875,-0.3775 l 0,-11.54625 -3.60625,10.09 -3.63625,-10.09 z" />
    <path
       inkscape:connector-curvature="0"
       id="path62"
       style="fill:#941739;fill-opacity:1;fill-rule:nonzero;stroke:none"
       d="m 487.72773,579.66916 2.24,0 -1.135,-8.25875 -1.105,8.25875 z m 2.3275,-14.92 c 0,0 0.34875,0 0.3775,0.37875 l 3.49,20.185 c 0.0587,0.37625 -0.20375,0.37625 -0.20375,0.37625 l -2.50125,0 c 0,0 -0.2625,0 -0.29,-0.37625 l -0.495,-2.79375 -3.17,0 -0.495,2.79375 c -0.0287,0.37625 -0.29,0.37625 -0.29,0.37625 l -2.50125,0 c 0,0 -0.2625,0 -0.2025,-0.37625 l 3.48875,-20.185 c 0.0275,-0.37875 0.37875,-0.37875 0.37875,-0.37875 l 2.41375,0 z" />
    <path
       inkscape:connector-curvature="0"
       id="path64"
       style="fill:#941739;fill-opacity:1;fill-rule:nonzero;stroke:none"
       d="m 503.25873,568.35566 c 0,-0.40625 -0.3225,-0.75625 -0.75625,-0.75625 l -2.6475,0 0,6.95125 2.6475,0 c 0.43375,0 0.75625,-0.3475 0.75625,-0.755 l 0,-5.44 z m -6.4,-3.2275 c 0,-0.23375 0.14625,-0.37875 0.38,-0.37875 l 5.99,0 c 1.6575,0 3.05375,1.3675 3.05375,3.055 l 0,6.42625 c 0,1.6875 -1.39625,3.05625 -3.05375,3.05625 l -3.37375,0 0,8.025 c 0,0.2325 -0.14625,0.3775 -0.35,0.3775 l -2.26625,0 c -0.23375,0 -0.38,-0.145 -0.38,-0.3775 l 0,-20.18375 z" />
  </g>
</svg>
