<?xml version="1.0" encoding="UTF-8" standalone="no"?>
<!-- Page 3 -->

<svg
   xmlns:dc="http://purl.org/dc/elements/1.1/"
   xmlns:cc="http://creativecommons.org/ns#"
   xmlns:rdf="http://www.w3.org/1999/02/22-rdf-syntax-ns#"
   xmlns:svg="http://www.w3.org/2000/svg"
   xmlns="http://www.w3.org/2000/svg"
   xmlns:sodipodi="http://sodipodi.sourceforge.net/DTD/sodipodi-0.dtd"
   xmlns:inkscape="http://www.inkscape.org/namespaces/inkscape"
   x="0"
   y="0"
   width="667"
   height="596.86707"
   version="1.1"
   style="display:block"
   id="svg2"
   inkscape:version="0.91 r13725"
   sodipodi:docname="diagram2.svg">
  <metadata
     id="metadata366">
    <rdf:RDF>
      <cc:Work
         rdf:about="">
        <dc:format>image/svg+xml</dc:format>
        <dc:type
           rdf:resource="http://purl.org/dc/dcmitype/StillImage" />
        <dc:title>inMAP Page3</dc:title>
      </cc:Work>
    </rdf:RDF>
  </metadata>
  <sodipodi:namedview
     pagecolor="#ffffff"
     bordercolor="#666666"
     borderopacity="1"
     objecttolerance="10"
     gridtolerance="10"
     guidetolerance="10"
     inkscape:pageopacity="0"
     inkscape:pageshadow="2"
     inkscape:window-width="1547"
     inkscape:window-height="876"
     id="namedview364"
     showgrid="false"
     fit-margin-top="0"
     fit-margin-left="0"
     fit-margin-right="0"
     fit-margin-bottom="0"
     inkscape:zoom="1.3885006"
     inkscape:cx="365.93657"
     inkscape:cy="147.28519"
     inkscape:window-x="53"
     inkscape:window-y="24"
     inkscape:window-maximized="1"
     inkscape:current-layer="svg2" />
  <defs
     id="defs4">
    <style
       type="text/css"
       id="style6"><![CDATA[

.g4_3{
fill: #85CDD4;
}
.g7_3{
fill: #FFFFFF;
}
.g2_3{
fill: #EE3B34;
}
.g12_3{
fill: none;
stroke: #961C3C;
stroke-width: 1;
stroke-linecap: butt;
stroke-linejoin: miter;
}
.g10_3{
fill: none;
stroke: #EE3B34;
stroke-width: 1;
stroke-linecap: butt;
stroke-linejoin: round;
}
.g11_3{
fill: none;
stroke: #85CDD4;
stroke-width: 1;
stroke-linecap: butt;
stroke-linejoin: round;
}
.g1_3{
fill: none;
stroke: #EE3B34;
stroke-width: 4;
stroke-linecap: butt;
stroke-linejoin: round;
stroke-miterlimit: 4;
}
.g6_3{
fill: none;
stroke: #85CDD4;
stroke-width: 4;
stroke-linecap: round;
stroke-linejoin: round;
}
.g8_3{
fill: none;
stroke: #EE3B34;
stroke-width: 2;
stroke-linecap: butt;
stroke-linejoin: round;
}
.g5_3{
fill: none;
stroke: #EE3B34;
stroke-width: 1;
stroke-linecap: butt;
stroke-linejoin: miter;
}
.g9_3{
fill: none;
stroke: #85CDD4;
stroke-width: 2;
stroke-linecap: butt;
stroke-linejoin: round;
}
.g14_3{
fill: none;
stroke: #85CDD4;
stroke-width: 14;
stroke-linecap: round;
stroke-linejoin: round;
}
.g13_3{
fill: none;
stroke: #961C3C;
stroke-width: 14;
stroke-linecap: round;
stroke-linejoin: round;
}
.g3_3{
fill: #961C3C;
}

.s7_3{
font-size: 13.75px;
font-family: BXJRPT-ModernicaBook3;
fill: #231F20;
}
.s8_3{
font-size: 27.50px;
font-family: BXJRPT-Clarke-Medium3;
fill: #961C3C;
}
.s11_3{
font-size: 14.79px;
font-family: BXJRPT-Clarke-Medium3;
fill: #FFFFFF;
}
.s2_3{
font-size: 20.75px;
font-family: BXJRPT-Clarke-Medium3;
fill: #EE3B34;
}
.s3_3{
font-size: 20.75px;
font-family: BXJRPT-Clarke-Medium3;
fill: #85CDD4;
}
.s9_3{
font-size: 18.33px;
font-family: BXJRPT-ModernicaBook3;
fill: #231F20;
}
.s10_3{
font-size: 27.50px;
font-family: BXJRPT-Clarke-Medium3;
fill: #85CDD4;
}
.s4_3{
font-size: 76.59px;
font-family: BXJRPT-Clarke-Medium3;
fill: #961C3C;
}
.s1_3{
font-size: 20.75px;
font-family: BXJRPT-Clarke-Medium3;
fill: #961C3C;
}
.s5_3{
font-size: 47.04px;
font-family: BXJRPT-Clarke-Medium3;
fill: #85CDD4;
}
.s6_3{
font-size: 31.59px;
font-family: BXJRPT-Clarke-Light3;
fill: #FFFFFF;
}

]]></style>
  </defs>
  <path
     d="m 5,394.16193 63,0 597,0 0,-279 -663,0 0,-69.999994 0,-33 42,0"
     class="g1_3"
     id="path10"
     inkscape:connector-curvature="0"
     style="fill:none;stroke:#ee3b34;stroke-width:4;stroke-linecap:butt;stroke-linejoin:round;stroke-miterlimit:4" />
  <path
     d="m 44.8,16.361936 c 1.9,0 3.4,-1.5 3.4,-3.4 0,-1.900001 -1.5,-3.5000007 -3.4,-3.5000007 -1.9,0 -3.5,1.5999997 -3.5,3.5000007 0,1.9 1.6,3.4 3.5,3.4 z"
     class="g2_3"
     id="path14"
     inkscape:connector-curvature="0"
     style="fill:#ee3b34" />
  <path
     d="m 500.8,394.86193 c 0,34.2 27.8,61.9 62,61.9 34.2,0 61.9,-27.7 61.9,-61.9 0,-34.2 -27.7,-62 -61.9,-62 -34.2,0 -62,27.7 -62,62 z"
     class="g3_3"
     id="path28"
     inkscape:connector-curvature="0"
     style="fill:#961c3c" />
  <path
     d="m 500.9,115.16193 c 0,34.3 27.8,62 62,62 34.2,0 61.9,-27.7 61.9,-61.9 0,-34.299994 -27.7,-61.999994 -61.9,-61.999994 -34.2,0 -62,27.7 -62,61.899994 z"
     class="g4_3"
     id="path30"
     inkscape:connector-curvature="0"
     style="fill:#85cdd4" />
  <path
     d="m 278.2,394.86193 c 0,34.2 27.7,61.9 61.9,61.9 34.2,0 62,-27.7 62,-61.9 0,-34.2 -27.8,-62 -62,-62 -34.2,0 -61.9,27.7 -61.9,62 z"
     class="g2_3"
     id="path32"
     inkscape:connector-curvature="0"
     style="fill:#ee3b34" />
  <path
     d="m 278.2,394.86193 c 0,34.2 27.7,61.9 61.9,61.9 34.2,0 62,-27.7 62,-61.9 0,-34.2 -27.8,-62 -62,-62 -34.2,0 -61.9,27.7 -61.9,62 z"
     class="g5_3"
     id="path34"
     inkscape:connector-curvature="0"
     style="fill:none;stroke:#ee3b34;stroke-width:1;stroke-linecap:butt;stroke-linejoin:miter" />
  <path
     d="m 277.4,115.36193 c 0,34.2 27.7,62 61.9,62 34.2,0 62,-27.8 62,-62 0,-34.199994 -27.7,-61.899994 -62,-61.999994 -34.2,0 -61.9,27.8 -61.9,61.999994 z"
     class="g2_3"
     id="path36"
     inkscape:connector-curvature="0"
     style="fill:#ee3b34" />
  <path
     d="m 277.4,115.36193 c 0,34.2 27.7,62 61.9,62 34.2,0 62,-27.8 62,-62 0,-34.199994 -27.7,-61.899994 -62,-61.999994 -34.2,0 -61.9,27.8 -61.9,61.999994 z"
     class="g5_3"
     id="path38"
     inkscape:connector-curvature="0"
     style="fill:none;stroke:#ee3b34;stroke-width:1;stroke-linecap:butt;stroke-linejoin:miter" />
  <path
     d="m 61.3,395.16193 c 0,34.2 27.8,62 62,62 34.2,0 61.9,-27.8 61.9,-62 0,-34.2 -27.7,-61.9 -61.9,-61.9 -34.2,0 -62,27.7 -62,61.9 z"
     class="g4_3"
     id="path40"
     inkscape:connector-curvature="0"
     style="fill:#85cdd4" />
  <path
     d="m 61.1,115.36193 c 0,34.2 27.7,62 61.9,62 34.3,0 62,-27.8 62,-62 0,-34.199994 -27.7,-61.999994 -62,-61.999994 -34.2,0 -61.9,27.8 -61.9,61.999994 z"
     class="g3_3"
     id="path42"
     inkscape:connector-curvature="0"
     style="fill:#961c3c" />
  <path
     d="m 552.6,363.26193 c -7.3,-2.7 -17.6,-1 -22.8,5 -5.4,6.1 -5.6,15.3 -3.4,22.7 4.4,14.4 17.9,27 27.6,38 2.7,3.1 5.7,5.7 8.7,8.4 0,0 0.1,-66.5 0.1,-66.8 0,-3.3 -7.8,-6.4 -10.2,-7.3 z"
     class="g2_3"
     id="path44"
     inkscape:connector-curvature="0"
     style="fill:#ee3b34" />
  <path
     d="m 552.6,363.26193 c -7.3,-2.7 -17.6,-1 -22.8,5 -5.4,6.1 -5.6,15.3 -3.4,22.7 4.4,14.4 17.9,27 27.6,38 2.7,3.1 5.7,5.7 8.7,8.4 0,0 0.1,-66.5 0.1,-66.8 0,-3.3 -7.8,-6.4 -10.2,-7.3 z"
     class="g5_3"
     id="path46"
     inkscape:connector-curvature="0"
     style="fill:none;stroke:#ee3b34;stroke-width:1;stroke-linecap:butt;stroke-linejoin:miter" />
  <path
     d="m 587.9,362.96193 c -4.8,-1.7 -10.6,-1.7 -15.3,0.2 -2.3,0.9 -9.8,4 -9.8,7.2 0,0.3 0.4,67 0.4,67 2.9,-2.7 5.7,-5.5 8.4,-8.6 9.7,-11.1 23.2,-23.6 27.6,-38 3.3,-11 0.5,-23.6 -11.3,-27.8 z"
     class="g2_3"
     id="path48"
     inkscape:connector-curvature="0"
     style="fill:#ee3b34" />
  <path
     d="m 587.9,362.96193 c -4.8,-1.7 -10.6,-1.7 -15.3,0.2 -2.3,0.9 -9.8,4 -9.8,7.2 0,0.3 0.4,67 0.4,67 2.9,-2.7 5.7,-5.5 8.4,-8.6 9.7,-11.1 23.2,-23.6 27.6,-38 3.3,-11 0.5,-23.6 -11.3,-27.8 z"
     class="g5_3"
     id="path50"
     inkscape:connector-curvature="0"
     style="fill:none;stroke:#ee3b34;stroke-width:1;stroke-linecap:butt;stroke-linejoin:miter" />
  <path
     d="m 533.9,392.96193 15.7,0 4.8,-13.3 6,22.7 6.1,-14.3 4.8,7.3 19.5,0"
     class="g6_3"
     id="path52"
     inkscape:connector-curvature="0"
     style="fill:none;stroke:#85cdd4;stroke-width:4;stroke-linecap:round;stroke-linejoin:round" />
  <path
     d="m 150.3,429.66193 c -1.3,-2.8 0.4,-8.4 2,-10.4 1.5,-2 5.3,-1.8 5.5,-1.8 0.2,-0.1 6.4,-0.1 7.4,-1.7 0.9,-1.5 -0.2,-3.2 -0.2,-3.2 0,0 -1.3,-1.7 0.3,-2.8 1.6,-1.1 1.7,-1.3 1.8,-2.1 0.1,-0.7 -1.1,-1.5 -1.2,-1.7 0,-0.1 1.6,-0.6 1.7,-1.1 0,-0.5 -0.7,-2.7 -0.3,-4.3 0.5,-1.5 4,-1.8 4,-4.2 0.1,-2.8 -2.9,-3.4 -4.4,-5.2 -1,-1.1 -0.9,-2.7 -0.9,-4.2 -0.2,-1.9 -0.1,-3.8 0,-5.7 0.3,-8.2 -7.3,-15.4 -7.3,-15.4 -0.7,-0.7 -2,-1.3 -2.9,-1.8 -0.9,-0.5 -1.9,-1 -2.9,-1.4 -1.9,-0.8 -3.9,-1.3 -5.8,-1.7 -5.6,-1 -11.4,-0.4 -16.7,1.7 -1.1,0.4 -2.2,0.9 -3.2,1.5 -1,0.5 -2,1.1 -3,1.8 -0.3,0.2 -0.6,0.4 -0.9,0.7 1.8,1.4 3.4,3.1 4.8,5.1 2.8,4.1 3.8,9.4 3.1,14.2 -1.6,10.2 -4.9,11.1 -7,15.7 -2,4.6 0,16.5 0,16.6 0,0.1 2,10.8 2.5,11.3 0.6,0.5 23.6,0.1 23.6,0.1 z"
     class="g2_3"
     id="path54"
     inkscape:connector-curvature="0"
     style="fill:#ee3b34" />
  <path
     d="m 96.3,429.66193 c 1.3,-2.8 -0.5,-8.4 -2,-10.4 -1.5,-2 -5.4,-1.8 -5.6,-1.8 -0.2,-0.1 -6.3,-0.1 -7.3,-1.7 -0.9,-1.5 0.2,-3.2 0.2,-3.2 0,0 1.2,-1.7 -0.3,-2.8 -1.6,-1.1 -1.7,-1.3 -1.8,-2.1 -0.1,-0.7 1.1,-1.5 1.2,-1.7 0,-0.1 -1.6,-0.6 -1.7,-1.1 -0.1,-0.5 0.7,-2.7 0.2,-4.3 -0.4,-1.5 -3.9,-1.8 -3.9,-4.2 -0.1,-2.8 2.8,-3.4 4.4,-5.2 0.9,-1.1 0.8,-2.7 0.9,-4.2 0.1,-1.9 0.1,-3.8 0,-5.7 -0.3,-8.2 7.3,-15.4 7.3,-15.4 0.7,-0.7 1.9,-1.3 2.9,-1.8 0.9,-0.5 1.9,-1 2.9,-1.4 1.9,-0.8 3.8,-1.3 5.8,-1.7 5.5,-1 11.4,-0.4 16.7,1.7 1.1,0.4 2.1,0.9 3.2,1.5 1,0.5 2,1.1 3,1.8 0.3,0.2 0.6,0.4 0.9,0.7 -1.8,1.4 -3.5,3.1 -4.8,5.1 -2.8,4.1 -3.9,9.4 -3.1,14.2 1.6,10.2 4.9,11.1 6.9,15.7 2.1,4.6 0.1,16.5 0.1,16.6 -0.1,0.1 -2,10.8 -2.5,11.3 -0.6,0.5 -23.6,0.1 -23.6,0.1 z"
     class="g3_3"
     id="path56"
     inkscape:connector-curvature="0"
     style="fill:#961c3c" />
  <path
     d="m 91.4,387.96193 c 0,1.1 -0.9,2 -2,2 -1.2,0 -2.1,-0.9 -2.1,-2 0,-1.2 0.9,-2.1 2.1,-2.1 1.1,0 2,0.9 2,2.1 z"
     class="g2_3"
     id="path58"
     inkscape:connector-curvature="0"
     style="fill:#ee3b34" />
  <path
     d="m 160.2,387.96193 c 0,1.1 -0.9,2 -2,2 -1.1,0 -2,-0.9 -2,-2 0,-1.2 0.9,-2.1 2,-2.1 1.1,0 2,0.9 2,2.1 z"
     class="g3_3"
     id="path60"
     inkscape:connector-curvature="0"
     style="fill:#961c3c" />
  <g
     id="g4685"
     transform="translate(-1.9694155,0.52194222)">
    <g
       id="g4491">
      <text
         x="321.08334"
         y="419.55197"
         dx="0"
         class="s4_3"
         id="text62"
         style="font-size:76.58999634px;font-family:BXJRPT-Clarke-Medium3;fill:#961c3c">
        <tspan
           id="tspan4485"
           style="font-style:normal;font-variant:normal;font-weight:normal;font-stretch:normal;font-family:Helvetica;-inkscape-font-specification:Helvetica">$</tspan>
      </text>
      <text
         x="363.8808"
         y="409.80539"
         dx="0"
         class="s5_3"
         id="text64"
         style="font-size:47.04000092px;font-family:BXJRPT-Clarke-Medium3;fill:#85cdd4">
        <tspan
           id="tspan4487"
           style="font-style:normal;font-variant:normal;font-weight:normal;font-stretch:normal;font-family:Helvetica;-inkscape-font-specification:Helvetica">$</tspan>
      </text>
      <text
         x="294.51819"
         y="409.80539"
         dx="0"
         class="s5_3"
         id="text66"
         style="font-size:47.04000092px;font-family:BXJRPT-Clarke-Medium3;fill:#85cdd4">
        <tspan
           id="tspan4489"
           style="font-style:normal;font-variant:normal;font-weight:normal;font-stretch:normal;font-family:Helvetica;-inkscape-font-specification:Helvetica">$</tspan>
      </text>
    </g>
  </g>
  <path
     d="m 162.5,105.46193 0,-20.199994 c 0,0 -2,-2 -5.4,0 l 0,18.999994 z"
     class="g2_3"
     id="path86"
     inkscape:connector-curvature="0"
     style="fill:#ee3b34" />
  <path
     d="m 162.5,105.46193 0,-20.199994 c 0,0 -2,-2 -5.4,0 l 0,18.999994 5.4,1.2 z"
     class="g8_3"
     id="path88"
     inkscape:connector-curvature="0"
     style="fill:none;stroke:#ee3b34;stroke-width:2;stroke-linecap:butt;stroke-linejoin:round" />
  <path
     d="m 151.6,103.06193 0,-22.899994 c 0,0 -2,-2.2 -5.4,0 l 0,21.500004 z"
     class="g2_3"
     id="path90"
     inkscape:connector-curvature="0"
     style="fill:#ee3b34" />
  <path
     d="m 151.6,103.06193 0,-22.899994 c 0,0 -2,-2.2 -5.4,0 l 0,21.500004 5.4,1.39999 z"
     class="g8_3"
     id="path92"
     inkscape:connector-curvature="0"
     style="fill:none;stroke:#ee3b34;stroke-width:2;stroke-linecap:butt;stroke-linejoin:round" />
  <path
     d="m 135.1,102.06193 0,-26.099994 c 0,0 1.9,-2.4 5.4,0 l 0,24.500004 z"
     class="g4_3"
     id="path94"
     inkscape:connector-curvature="0"
     style="fill:#85cdd4" />
  <path
     d="m 135.1,102.06193 0,-26.099994 c 0,0 1.9,-2.4 5.4,0 l 0,24.500004 -5.4,1.59999 z"
     class="g9_3"
     id="path96"
     inkscape:connector-curvature="0"
     style="fill:none;stroke:#85cdd4;stroke-width:2;stroke-linecap:butt;stroke-linejoin:round" />
  <path
     d="m 127.5,105.06193 14.3,-4.19999 0,22.89999 -28,-1.8 0,-7.9 13.5,-2.8 z"
     class="g4_3"
     id="path98"
     inkscape:connector-curvature="0"
     style="fill:#85cdd4" />
  <path
     d="m 127.5,105.06193 14.3,-4.19999 0,22.89999 -28,-1.8 0,-7.9 13.5,-2.8 0.2,-6.2 z"
     class="g9_3"
     id="path100"
     inkscape:connector-curvature="0"
     style="fill:none;stroke:#85cdd4;stroke-width:2;stroke-linecap:butt;stroke-linejoin:round" />
  <path
     d="m 160.5,105.06193 -17.7,-4.19999 0,22.89999 28,-1.8 0,-13 z"
     class="g2_3"
     id="path102"
     inkscape:connector-curvature="0"
     style="fill:#ee3b34" />
  <path
     d="m 160.5,105.06193 -17.7,-4.19999 0,22.89999 28,-1.8 0,-13 -10.3,-3.9 z"
     class="g8_3"
     id="path104"
     inkscape:connector-curvature="0"
     style="fill:none;stroke:#ee3b34;stroke-width:2;stroke-linecap:butt;stroke-linejoin:round" />
  <path
     d="m 122,133.86193 c 1.4,0.4 2.7,0.9 3.9,1.7 1.4,0.9 8.4,8 8.4,8 0,0 9.7,3 10.3,4.7 0.5,1.7 0.4,2.3 0.4,2.3 0,0 1.1,-0.1 0.9,1.7 -0.3,1.7 -0.8,4.5 -2,5.1 l -3.3,-0.5 c -0.2,0 -0.4,0 -0.7,-0.1 -0.6,-0.1 -1.3,-0.2 -1.9,-0.3 -1.1,-0.1 -2.1,-0.3 -3.1,-0.4 -1.3,-0.2 -2.5,-0.4 -3.7,-0.5 -1.5,-0.3 -3,-0.5 -4.4,-0.7 -1.6,-0.2 -3.1,-0.4 -4.6,-0.7 -1.5,-0.2 -3.1,-0.4 -4.6,-0.6 -1.5,-0.3 -3,-0.5 -4.6,-0.7 -1.2,-0.2 -2.4,-0.3 -3.6,-0.5 -2.4,-0.4 -4.8,-0.7 -7.2,-1.1 -0.8,-0.2 -1.6,-0.4 -2.4,-0.6 -0.9,-0.2 -1.8,-0.5 -2.7,-0.7 -1.5,-0.3 -3,-0.7 -4.4,-1.1 -0.3,0 -0.7,0 -0.9,-0.2 0,0 -1.9,-1.2 -1.5,-3.7 0.3,-2.5 1.3,-3.2 1.3,-3.2 0,0 -0.2,-2.6 1.2,-3.4 0,0 2.6,-5.5 4.8,-7.2 0,0 1.7,-0.3 4.8,0.1 2.2,0.4 4.6,0.4 6.9,0.6 3,0.2 6,0.6 9,1.2 1.2,0.2 2.3,0.4 3.5,0.7 0.1,0.1 0.1,0.1 0.2,0.1 z"
     class="g2_3"
     id="path106"
     inkscape:connector-curvature="0"
     style="fill:#ee3b34" />
  <path
     d="m 122,133.86193 c 1.4,0.4 2.7,0.9 3.9,1.7 1.4,0.9 8.4,8 8.4,8 0,0 9.7,3 10.3,4.7 0.5,1.7 0.4,2.3 0.4,2.3 0,0 1.1,-0.1 0.9,1.7 -0.3,1.7 -0.8,4.5 -2,5.1 l -3.3,-0.5 c -0.2,0 -0.4,0 -0.7,-0.1 -0.6,-0.1 -1.3,-0.2 -1.9,-0.3 -1.1,-0.1 -2.1,-0.3 -3.1,-0.4 -1.3,-0.2 -2.5,-0.4 -3.7,-0.5 -1.5,-0.3 -3,-0.5 -4.4,-0.7 -1.6,-0.2 -3.1,-0.4 -4.6,-0.7 -1.5,-0.2 -3.1,-0.4 -4.6,-0.6 -1.5,-0.3 -3,-0.5 -4.6,-0.7 -1.2,-0.2 -2.4,-0.3 -3.6,-0.5 -2.4,-0.4 -4.8,-0.7 -7.2,-1.1 -0.8,-0.2 -1.6,-0.4 -2.4,-0.6 -0.9,-0.2 -1.8,-0.5 -2.7,-0.7 -1.5,-0.3 -3,-0.7 -4.4,-1.1 -0.3,0 -0.7,0 -0.9,-0.2 0,0 -1.9,-1.2 -1.5,-3.7 0.3,-2.5 1.3,-3.2 1.3,-3.2 0,0 -0.2,-2.6 1.2,-3.4 0,0 2.6,-5.5 4.8,-7.2 0,0 1.7,-0.3 4.8,0.1 2.2,0.4 4.6,0.4 6.9,0.6 3,0.2 6,0.6 9,1.2 1.2,0.2 2.3,0.4 3.5,0.7 0.1,0.1 0.1,0.1 0.2,0.1 z"
     class="g10_3"
     id="path108"
     inkscape:connector-curvature="0"
     style="fill:none;stroke:#ee3b34;stroke-width:1;stroke-linecap:butt;stroke-linejoin:round" />
  <path
     d="m 106,151.86193 c -0.4,2.6 -2.9,4.5 -5.5,4.1 -2.7,-0.4 -4.5,-2.9 -4.1,-5.5 0.3,-2.7 2.8,-4.5 5.5,-4.1 2.6,0.4 4.5,2.8 4.1,5.5 z"
     class="g4_3"
     id="path110"
     inkscape:connector-curvature="0"
     style="fill:#85cdd4" />
  <path
     d="m 106,151.86193 c -0.4,2.6 -2.9,4.5 -5.5,4.1 -2.7,-0.4 -4.5,-2.9 -4.1,-5.5 0.3,-2.7 2.8,-4.5 5.5,-4.1 2.6,0.4 4.5,2.8 4.1,5.5 z"
     class="g11_3"
     id="path112"
     inkscape:connector-curvature="0"
     style="fill:none;stroke:#85cdd4;stroke-width:1;stroke-linecap:butt;stroke-linejoin:round" />
  <path
     d="m 137.1,156.36193 c -0.4,2.7 -2.9,4.5 -5.6,4.1 -2.6,-0.4 -4.5,-2.8 -4.1,-5.5 0.4,-2.6 2.9,-4.5 5.5,-4.1 2.7,0.4 4.5,2.9 4.2,5.5 z"
     class="g4_3"
     id="path114"
     inkscape:connector-curvature="0"
     style="fill:#85cdd4" />
  <path
     d="m 137.1,156.36193 c -0.4,2.7 -2.9,4.5 -5.6,4.1 -2.6,-0.4 -4.5,-2.8 -4.1,-5.5 0.4,-2.6 2.9,-4.5 5.5,-4.1 2.7,0.4 4.5,2.9 4.2,5.5 z"
     class="g11_3"
     id="path116"
     inkscape:connector-curvature="0"
     style="fill:none;stroke:#85cdd4;stroke-width:1;stroke-linecap:butt;stroke-linejoin:round" />
  <path
     d="m 89.3,118.16193 c 0,0 11.4,4.6 17.2,-10.1 z"
     class="g2_3"
     id="path118"
     inkscape:connector-curvature="0"
     style="fill:#ee3b34" />
  <path
     d="m 89.3,118.16193 c 0,0 11.4,4.6 17.2,-10.1 l -17.2,10.1 z"
     class="g10_3"
     id="path120"
     inkscape:connector-curvature="0"
     style="fill:none;stroke:#ee3b34;stroke-width:1;stroke-linecap:butt;stroke-linejoin:round" />
  <path
     d="m 89.3,118.26193 c 0,0 6.9,-15.4 17.2,-10.3 z"
     class="g2_3"
     id="path122"
     inkscape:connector-curvature="0"
     style="fill:#ee3b34" />
  <path
     d="m 89.3,118.26193 c 0,0 6.9,-15.4 17.2,-10.3 l -17.2,10.3 z"
     class="g10_3"
     id="path124"
     inkscape:connector-curvature="0"
     style="fill:none;stroke:#ee3b34;stroke-width:1;stroke-linecap:butt;stroke-linejoin:round" />
  <path
     d="m 92.2,104.96193 c 0,0 9.1,3.6 13.8,-8.199994 z"
     class="g2_3"
     id="path126"
     inkscape:connector-curvature="0"
     style="fill:#ee3b34" />
  <path
     d="m 92.2,104.96193 c 0,0 9.1,3.6 13.8,-8.199994 l -13.8,8.199994 z"
     class="g10_3"
     id="path128"
     inkscape:connector-curvature="0"
     style="fill:none;stroke:#ee3b34;stroke-width:1;stroke-linecap:butt;stroke-linejoin:round" />
  <path
     d="m 92.2,104.96193 c 0,0 5.5,-12.299994 13.8,-8.199994 z"
     class="g2_3"
     id="path130"
     inkscape:connector-curvature="0"
     style="fill:#ee3b34" />
  <path
     d="m 92.2,104.96193 c 0,0 5.5,-12.299994 13.8,-8.199994 l -13.8,8.199994 z"
     class="g10_3"
     id="path132"
     inkscape:connector-curvature="0"
     style="fill:none;stroke:#ee3b34;stroke-width:1;stroke-linecap:butt;stroke-linejoin:round" />
  <path
     d="m 94.7,93.961936 c 0,0 6.6,2.6 9.9,-5.8 z"
     class="g2_3"
     id="path134"
     inkscape:connector-curvature="0"
     style="fill:#ee3b34" />
  <path
     d="m 94.7,93.961936 c 0,0 6.6,2.6 9.9,-5.8 l -9.9,5.8 z"
     class="g10_3"
     id="path136"
     inkscape:connector-curvature="0"
     style="fill:none;stroke:#ee3b34;stroke-width:1;stroke-linecap:butt;stroke-linejoin:round" />
  <path
     d="m 94.7,94.061936 c 0,0 4,-8.9 9.9,-5.9 z"
     class="g2_3"
     id="path138"
     inkscape:connector-curvature="0"
     style="fill:#ee3b34" />
  <path
     d="m 94.7,94.061936 c 0,0 4,-8.9 9.9,-5.9 l -9.9,5.9 z"
     class="g10_3"
     id="path140"
     inkscape:connector-curvature="0"
     style="fill:none;stroke:#ee3b34;stroke-width:1;stroke-linecap:butt;stroke-linejoin:round" />
  <path
     d="m 95.3,88.861936 c 0,0 6,-5 2.9,-11.5 z"
     class="g2_3"
     id="path142"
     inkscape:connector-curvature="0"
     style="fill:#ee3b34" />
  <path
     d="m 95.3,88.861936 c 0,0 6,-5 2.9,-11.5 l -2.9,11.5 z"
     class="g10_3"
     id="path144"
     inkscape:connector-curvature="0"
     style="fill:none;stroke:#ee3b34;stroke-width:1;stroke-linecap:butt;stroke-linejoin:round" />
  <path
     d="m 95.3,88.861936 c 0,0 -2.9,-7.2 2.9,-11.5 z"
     class="g4_3"
     id="path146"
     inkscape:connector-curvature="0"
     style="fill:#85cdd4" />
  <path
     d="m 95.3,88.861936 c 0,0 -2.9,-7.2 2.9,-11.5 l -2.9,11.5 z"
     class="g11_3"
     id="path148"
     inkscape:connector-curvature="0"
     style="fill:none;stroke:#85cdd4;stroke-width:1;stroke-linecap:butt;stroke-linejoin:round" />
  <path
     d="m 86,117.46193 c 0,0 -12.2,-1.5 -10.2,-17.19999 z"
     class="g4_3"
     id="path150"
     inkscape:connector-curvature="0"
     style="fill:#85cdd4" />
  <path
     d="m 86,117.46193 c 0,0 -12.2,-1.5 -10.2,-17.19999 L 86,117.46193 Z"
     class="g11_3"
     id="path152"
     inkscape:connector-curvature="0"
     style="fill:none;stroke:#85cdd4;stroke-width:1;stroke-linecap:butt;stroke-linejoin:round" />
  <path
     d="m 85.9,117.56193 c 0,0 1.5,-16.79999 -10,-17.29999 z"
     class="g4_3"
     id="path154"
     inkscape:connector-curvature="0"
     style="fill:#85cdd4" />
  <path
     d="m 85.9,117.56193 c 0,0 1.5,-16.79999 -10,-17.29999 l 10,17.29999 z"
     class="g11_3"
     id="path156"
     inkscape:connector-curvature="0"
     style="fill:none;stroke:#85cdd4;stroke-width:1;stroke-linecap:butt;stroke-linejoin:round" />
  <path
     d="m 89.9,104.46193 c 0,0 -9.8,-1.2 -8.2,-13.699994 z"
     class="g4_3"
     id="path158"
     inkscape:connector-curvature="0"
     style="fill:#85cdd4" />
  <path
     d="m 89.9,104.46193 c 0,0 -9.8,-1.2 -8.2,-13.699994 l 8.2,13.699994 z"
     class="g11_3"
     id="path160"
     inkscape:connector-curvature="0"
     style="fill:none;stroke:#85cdd4;stroke-width:1;stroke-linecap:butt;stroke-linejoin:round" />
  <path
     d="m 89.8,104.56193 c 0,0 1.2,-13.499994 -8,-13.899994 z"
     class="g4_3"
     id="path162"
     inkscape:connector-curvature="0"
     style="fill:#85cdd4" />
  <path
     d="m 89.8,104.56193 c 0,0 1.2,-13.499994 -8,-13.899994 l 8,13.899994 z"
     class="g11_3"
     id="path164"
     inkscape:connector-curvature="0"
     style="fill:none;stroke:#85cdd4;stroke-width:1;stroke-linecap:butt;stroke-linejoin:round" />
  <path
     d="m 93,93.761936 c 0,0 -7,-0.9 -5.9,-9.9 z"
     class="g4_3"
     id="path166"
     inkscape:connector-curvature="0"
     style="fill:#85cdd4" />
  <path
     d="m 93,93.761936 c 0,0 -7,-0.9 -5.9,-9.9 l 5.9,9.9 z"
     class="g11_3"
     id="path168"
     inkscape:connector-curvature="0"
     style="fill:none;stroke:#85cdd4;stroke-width:1;stroke-linecap:butt;stroke-linejoin:round" />
  <path
     d="m 92.9,93.761936 c 0,0 0.9,-9.7 -5.7,-10 z"
     class="g4_3"
     id="path170"
     inkscape:connector-curvature="0"
     style="fill:#85cdd4" />
  <path
     d="m 92.9,93.761936 c 0,0 0.9,-9.7 -5.7,-10 l 5.7,10 z"
     class="g11_3"
     id="path172"
     inkscape:connector-curvature="0"
     style="fill:none;stroke:#85cdd4;stroke-width:1;stroke-linecap:butt;stroke-linejoin:round" />
  <path
     d="m 590,91.061936 c -0.4,-0.1 -3.6,-1 -3.6,-0.3 0.1,-1 -1.1,-2.8 -1.1,-2.8 1.5,-9.8 -9.2,-10.9 -9.2,-10.9 0.3,0 0.7,-2.2 0.7,-2.4 0.1,-1.4 -0.4,-3.3 -1.1,-4.5 -2.9,-5.2 -10.8,-3 -11.7,2.5 -0.3,1.6 -0.1,3.2 0.2,4.8 0,0.2 0.3,1.9 0.6,2 -2.2,-0.6 -5.1,1.4 -5.1,1.4 -0.1,0.1 -2.4,-1.2 -2.6,-1.3 -1.7,-0.7 -3.5,-1.1 -5.3,-1.4 -4.8,-0.9 -10.4,-0.3 -13.9,3.4 -3.8,3.9 -4.9,10 -3.2,15.1 0.5,-0.5 1.1,-1 1.8,-1.5 0.7,-0.5 1.5,-1 2.3,-1.4 0.9,-0.5 1.7,-0.9 2.6,-1.2 4.1,-1.6 8.8,-2.1 13.2,-1.3 1.5,0.3 3.1,0.7 4.6,1.3 0.8,0.3 1.6,0.7 2.3,1.1 0.7,0.4 1.7,0.9 2.3,1.4 0,0 6,5.800004 5.7,12.299994 0,1.5 0,3 0,4.5 0.1,1.1 0,2.4 0.8,3.3 1.2,1.4 3.5,1.9 3.5,4.1 0,1.9 -2.8,2.1 -3.2,3.4 -0.3,1.3 0.3,3 0.2,3.4 0,0.4 -1.3,0.7 -1.3,0.9 0,0.1 1,0.7 0.9,1.3 -0.1,0.6 -0.1,0.8 -1.4,1.6 -1.2,0.9 -0.2,2.3 -0.2,2.3 0,0 0.9,1.3 0.1,2.6 -0.8,1.2 -5.6,1.2 -5.8,1.2 -0.1,0.1 -3.2,-0.1 -4.4,1.5 -1.2,1.6 -2.6,6 -1.6,8.3 0,0 0.2,0.3 0,0.5 -0.1,0.1 -2.6,0.2 -6.1,0.2 0.1,0.2 0.2,0.4 0.2,0.4 -4.6,2.5 -2.5,7.3 -2.5,7.3 -5.2,1.9 -2.6,9.2 2,8.4 4.7,-0.8 3.6,-5.2 3.6,-5.2 1.1,0.6 3,0.3 3,0.3 6.1,-2.3 3.6,-7.3 3.6,-7.3 0.8,-0.4 1.4,-1.3 1.4,-1.3 2.3,2 5.4,2.2 7.9,0.5 1.9,-1.2 2.7,-3.2 2.8,-5.3 0.1,-0.4 0.3,-2.4 -0.1,-2.7 4.1,2.8 9.5,1.1 11,-3.7 0.8,-2.4 0.2,-5.2 -1.1,-7.4 -0.1,-0.2 -2.4,-2.8 -2.4,-2.8 1.3,-2.5 -0.3,-5.5 -0.3,-5.5 0.3,0.4 2.4,0 2.8,0 4.9,-0.9 8,-4.8 7,-9.9 -0.1,-0.4 -0.8,-4.3 -1.2,-4.2 2.6,-0.6 5.4,-2.2 6.6,-4.8 0.5,-0.9 0.7,-2.09999 0.8,-3.09999 0.2,-4.200004 -2.1,-7.800004 -6.1,-9.100004 z"
     class="g2_3"
     id="path318"
     inkscape:connector-curvature="0"
     style="fill:#ee3b34" />
  <path
     d="m 557.1,145.76193 c -1,-2.3 0.4,-6.7 1.6,-8.3 1.2,-1.6 4.3,-1.4 4.4,-1.5 0.2,0 5,0 5.8,-1.2 0.8,-1.3 -0.1,-2.6 -0.1,-2.6 0,0 -1,-1.4 0.2,-2.3 1.3,-0.8 1.3,-1 1.4,-1.6 0.1,-0.6 -0.9,-1.2 -0.9,-1.3 0,-0.2 1.3,-0.5 1.3,-0.9 0.1,-0.4 -0.5,-2.1 -0.2,-3.4 0.4,-1.3 3.2,-1.5 3.2,-3.4 0,-2.2 -2.3,-2.7 -3.5,-4.1 -0.8,-0.9 -0.7,-2.2 -0.8,-3.3 0,-1.5 0,-3 0,-4.5 0.3,-6.49999 -5.7,-12.299994 -5.7,-12.299994 -0.6,-0.5 -1.6,-1 -2.3,-1.4 -0.7,-0.4 -1.5,-0.8 -2.3,-1.1 -1.5,-0.6 -3.1,-1 -4.6,-1.3 -4.4,-0.8 -9.1,-0.3 -13.2,1.3 -0.9,0.3 -1.7,0.7 -2.6,1.2 -0.8,0.4 -1.6,0.9 -2.3,1.4 -0.7,0.5 -1.3,1 -1.8,1.5 0.5,1.8 1.4,3.400004 2.7,4.800004 0.9,0.89999 1.9,1.69999 3,2.39999 0,0 1.3,0.7 1.3,0.7 -2.2,10.4 6.7,14.7 6.7,14.7 -2.2,7.8 6.2,9.4 6.2,9.4 -0.5,3.9 3.5,4.8 3.5,4.8 -11.1,0.7 -7.8,10.9 -7.1,13 3.5,0 6,-0.1 6.1,-0.2 0.2,-0.2 0,-0.5 0,-0.5 z"
     class="g3_3"
     id="path320"
     inkscape:connector-curvature="0"
     style="fill:#961c3c" />
  <path
     d="m 557.1,145.76193 c -1,-2.3 0.4,-6.7 1.6,-8.3 1.2,-1.6 4.3,-1.4 4.4,-1.5 0.2,0 5,0 5.8,-1.2 0.8,-1.3 -0.1,-2.6 -0.1,-2.6 0,0 -1,-1.4 0.2,-2.3 1.3,-0.8 1.3,-1 1.4,-1.6 0.1,-0.6 -0.9,-1.2 -0.9,-1.3 0,-0.2 1.3,-0.5 1.3,-0.9 0.1,-0.4 -0.5,-2.1 -0.2,-3.4 0.4,-1.3 3.2,-1.5 3.2,-3.4 0,-2.2 -2.3,-2.7 -3.5,-4.1 -0.8,-0.9 -0.7,-2.2 -0.8,-3.3 0,-1.5 0,-3 0,-4.5 0.3,-6.49999 -5.7,-12.299994 -5.7,-12.299994 -0.6,-0.5 -1.6,-1 -2.3,-1.4 -0.7,-0.4 -1.5,-0.8 -2.3,-1.1 -1.5,-0.6 -3.1,-1 -4.6,-1.3 -4.4,-0.8 -9.1,-0.3 -13.2,1.3 -0.9,0.3 -1.7,0.7 -2.6,1.2 -0.8,0.4 -1.6,0.9 -2.3,1.4 -0.7,0.5 -1.3,1 -1.8,1.5 0.5,1.8 1.4,3.400004 2.7,4.800004 0.9,0.89999 1.9,1.69999 3,2.39999 0,0 1.3,0.7 1.3,0.7 -2.2,10.4 6.7,14.7 6.7,14.7 -2.2,7.8 6.2,9.4 6.2,9.4 -0.5,3.9 3.5,4.8 3.5,4.8 -11.1,0.7 -7.8,10.9 -7.1,13 3.5,0 6,-0.1 6.1,-0.2 0.2,-0.2 0,-0.5 0,-0.5 z"
     class="g12_3"
     id="path322"
     inkscape:connector-curvature="0"
     style="fill:none;stroke:#961c3c;stroke-width:1;stroke-linecap:butt;stroke-linejoin:miter" />
  <path
     d="m 313,115.16193 0,32"
     class="g13_3"
     id="path324"
     inkscape:connector-curvature="0"
     style="fill:none;stroke:#961c3c;stroke-width:14;stroke-linecap:round;stroke-linejoin:round" />
  <path
     d="m 329,97.161936 0,49.999994"
     class="g14_3"
     id="path326"
     inkscape:connector-curvature="0"
     style="fill:none;stroke:#85cdd4;stroke-width:14;stroke-linecap:round;stroke-linejoin:round" />
  <path
     d="m 346,131.16193 0,16"
     class="g13_3"
     id="path328"
     inkscape:connector-curvature="0"
     style="fill:none;stroke:#961c3c;stroke-width:14;stroke-linecap:round;stroke-linejoin:round" />
  <path
     d="m 362,80.161936 0,66.999994"
     class="g14_3"
     id="path330"
     inkscape:connector-curvature="0"
     style="fill:none;stroke:#85cdd4;stroke-width:14;stroke-linecap:round;stroke-linejoin:round" />
  <path
     d="m 257.50632,211.56193 c 0,5.8 4.7,10.5 10.5,10.5 5.8,0 10.5,-4.7 10.5,-10.5 0,-5.9 -4.7,-10.6 -10.5,-10.6 -5.8,0 -10.5,4.7 -10.5,10.6 z"
     class="g2_3"
     id="path336"
     inkscape:connector-curvature="0"
     style="fill:#ee3b34" />
  <text
     x="288.40631"
     y="218.16193"
     dx="0 0 0 0 0 0 0 0 0 -1 0 0 0 0"
     class="s2_3"
     id="text18"
     style="font-size:20.75px;font-family:BXJRPT-Clarke-Medium3;fill:#ee3b34">
    <tspan
       style="font-style:normal;font-variant:normal;font-weight:normal;font-stretch:normal;font-family:Helvetica;-inkscape-font-specification:Helvetica"
       id="tspan4504">concentrations</tspan>
  </text>
  <path
     d="m 257.50632,211.56193 c 0,5.8 4.7,10.5 10.5,10.5 5.8,0 10.5,-4.7 10.5,-10.5 0,-5.9 -4.7,-10.6 -10.5,-10.6 -5.8,0 -10.5,4.7 -10.5,10.6 z"
     class="g5_3"
     id="path338"
     inkscape:connector-curvature="0"
     style="fill:none;stroke:#ee3b34;stroke-width:1;stroke-linecap:butt;stroke-linejoin:miter" />
  <text
     class="s11_3"
     id="text340"
     style="font-size:14.78999996px;font-family:BXJRPT-Clarke-Medium3;fill:#ffffff"
     x="263.96939"
     y="216.70071"
     dx="0">
    <tspan
       style="font-style:normal;font-variant:normal;font-weight:normal;font-stretch:normal;font-family:Helvetica;-inkscape-font-specification:Helvetica"
       id="tspan4275">2</tspan>
  </text>
  <text
     x="534.82178"
     y="218.16193"
     class="s3_3"
     id="text26"
     style="font-size:20.75px;font-family:BXJRPT-Clarke-Medium3;fill:#85cdd4">
    <tspan
       style="font-style:normal;font-variant:normal;font-weight:normal;font-stretch:normal;font-size:21.25px;font-family:Helvetica;-inkscape-font-specification:Helvetica"
       id="tspan4502">exposure</tspan>
  </text>
  <path
     d="m 504.3218,211.56193 c 0,5.8 4.7,10.5 10.6,10.5 5.8,0 10.5,-4.7 10.5,-10.5 0,-5.9 -4.7,-10.6 -10.5,-10.6 -5.9,0 -10.6,4.7 -10.6,10.6 z"
     class="g4_3"
     id="path342"
     inkscape:connector-curvature="0"
     style="fill:#85cdd4" />
  <text
     dx="0"
     class="s11_3"
     id="text344"
     style="font-size:14.78999996px;font-family:BXJRPT-Clarke-Medium3;fill:#ffffff"
     x="510.90347"
     y="216.54906">
    <tspan
       style="font-style:normal;font-variant:normal;font-weight:normal;font-stretch:normal;font-family:Helvetica;-inkscape-font-specification:Helvetica"
       id="tspan4277">3</tspan>
  </text>
  <path
     d="m 480.10916,490.16193 c 0,5.8 4.7,10.5 10.5,10.5 5.8,0 10.6,-4.7 10.6,-10.5 0,-5.8 -4.8,-10.6 -10.6,-10.6 -5.8,0 -10.5,4.8 -10.5,10.6 z"
     class="g3_3"
     id="path346"
     inkscape:connector-curvature="0"
     style="fill:#961c3c" />
  <text
     x="511.20917"
     y="497.16193"
     dx="0 0 0 0 -1.8 0 0 0 0 0 -0.69999999 -0.40000001 -0.2 -0.2"
     class="s1_3"
     id="text24"
     style="font-size:20.75px;font-family:BXJRPT-Clarke-Medium3;fill:#961c3c">
    <tspan
       style="font-style:normal;font-variant:normal;font-weight:normal;font-stretch:normal;font-size:21.25px;font-family:Helvetica;-inkscape-font-specification:Helvetica"
       id="tspan4510">health impacts</tspan>
  </text>
  <text
     dx="0"
     class="s11_3"
     id="text348"
     style="font-size:14.78999996px;font-family:BXJRPT-Clarke-Medium3;fill:#ffffff"
     x="486.00839"
     y="495.5029">
    <tspan
       style="-inkscape-font-specification:Helvetica;font-family:Helvetica;font-weight:normal;font-style:normal;font-stretch:normal;font-variant:normal"
       id="tspan4271">4</tspan>
  </text>
  <path
     d="m 239.02849,490.16193 c 0,5.8 4.8,10.5 10.6,10.5 5.8,0 10.5,-4.7 10.5,-10.5 0,-5.8 -4.7,-10.6 -10.5,-10.6 -5.8,0 -10.6,4.8 -10.6,10.6 z"
     class="g2_3"
     id="path350"
     inkscape:connector-curvature="0"
     style="fill:#ee3b34" />
  <path
     d="m 239.02849,490.16193 c 0,5.8 4.8,10.5 10.6,10.5 5.8,0 10.5,-4.7 10.5,-10.5 0,-5.8 -4.7,-10.6 -10.5,-10.6 -5.8,0 -10.6,4.8 -10.6,10.6 z"
     class="g5_3"
     id="path352"
     inkscape:connector-curvature="0"
     style="fill:none;stroke:#ee3b34;stroke-width:1;stroke-linecap:butt;stroke-linejoin:miter" />
  <text
     x="269.62848"
     y="497.16193"
     dx="0 0 0 0 0 0 0 0 0 0 -0.30000001 0 0 -0.40000001 0"
     class="s2_3"
     id="text20"
     style="font-size:20.75px;font-family:BXJRPT-Clarke-Medium3;fill:#ee3b34">
    <tspan
       style="font-style:normal;font-variant:normal;font-weight:normal;font-stretch:normal;font-size:21.25px;font-family:Helvetica;-inkscape-font-specification:Helvetica"
       id="tspan4508">economic damage</tspan>
  </text>
  <text
     class="s11_3"
     id="text354"
     style="font-size:14.78999996px;font-family:BXJRPT-Clarke-Medium3;fill:#ffffff"
     x="245.54156"
     y="495.06601"
     dx="0">
    <tspan
       style="font-style:normal;font-variant:normal;font-weight:normal;font-stretch:normal;font-family:Helvetica;-inkscape-font-specification:Helvetica"
       id="tspan4483">5</tspan>
  </text>
  <g
     id="g4499"
     transform="translate(-7.2020135,0)">
    <text
       style="font-size:20.75px;font-family:BXJRPT-Clarke-Medium3;fill:#85cdd4"
       id="text22"
       class="s3_3"
       dx="0 0 0 0 0 0 0 0 0 0 0 -1 0 0 0 0 0 -0.2 0 0 0"
       y="496.16193"
       x="37.227165">
      <tspan
         id="tspan4506"
         style="font-style:normal;font-variant:normal;font-weight:normal;font-stretch:normal;font-size:21.25px;font-family:Helvetica;-inkscape-font-specification:Helvetica">environmental justice</tspan>
    </text>
    <path
       style="fill:#85cdd4"
       inkscape:connector-curvature="0"
       id="path356"
       class="g4_3"
       d="m 11.648369,490.16193 c 0,5.8 4.799999,10.5 10.6,10.5 5.799999,0 10.5,-4.7 10.5,-10.5 0,-5.8 -4.700001,-10.6 -10.5,-10.6 -5.800001,0 -10.6,4.8 -10.6,10.6 z" />
    <text
       y="495.4957"
       x="17.442892"
       style="font-size:14.78999996px;font-family:BXJRPT-Clarke-Medium3;fill:#ffffff"
       id="text358"
       class="s11_3"
       dx="0">
      <tspan
         id="tspan4729"
         style="font-style:normal;font-variant:normal;font-weight:normal;font-stretch:normal;font-family:Helvetica;-inkscape-font-specification:Helvetica">6</tspan>
    </text>
  </g>
  <!-- Any embedded fonts defined here -->
  <style
     type="text/css"
     id="style360"><![CDATA[

@font-face {
	font-family: BXJRPT-Clarke-Light3;
	src: url("3/fonts/BXJRPT-Clarke-Light.woff") format("woff");
}

@font-face {
	font-family: BXJRPT-Clarke-Medium3;
	src: url("3/fonts/BXJRPT-Clarke-Medium.woff") format("woff");
}

@font-face {
	font-family: BXJRPT-ModernicaBook3;
	src: url("3/fonts/BXJRPT-ModernicaBook.woff") format("woff");
}

]]></style>
  <title
     id="title362">inMAP Page3</title>
  <text
     xml:space="preserve"
     style="font-style:normal;font-variant:normal;font-weight:normal;font-stretch:normal;font-size:17.5px;line-height:125%;font-family:Helvetica;-inkscape-font-specification:Helvetica;letter-spacing:0px;word-spacing:0px;fill:#000000;fill-opacity:1;stroke:none;stroke-width:1px;stroke-linecap:butt;stroke-linejoin:miter;stroke-opacity:1"
     x="51.467213"
     y="21.591797"
     id="text4494"
     sodipodi:linespacing="125%"><tspan
       sodipodi:role="line"
       id="tspan4496"
       x="51.467213"
       y="21.591797"
       style="font-size:30px;fill:#85cdd4;fill-opacity:1">InMAP methodology</tspan></text>
  <path
     d="m 62.720825,211.56193 c 0,5.8 4.8,10.5 10.6,10.5 5.8,0 10.5,-4.7 10.5,-10.5 0,-5.9 -4.7,-10.6 -10.5,-10.6 -5.8,0 -10.6,4.7 -10.6,10.6 z"
     class="g3_3"
     id="path332"
     inkscape:connector-curvature="0"
     style="fill:#961c3c" />
  <text
     dx="0"
     class="s11_3"
     id="text334"
     style="font-size:14.78999996px;font-family:BXJRPT-Clarke-Medium3;fill:#ffffff"
     x="69.945244"
     y="216.66098">
    <tspan
       id="tspan4273"
       style="font-style:normal;font-variant:normal;font-weight:normal;font-stretch:normal;font-family:Helvetica;-inkscape-font-specification:Helvetica">1</tspan>
  </text>
  <text
     xml:space="preserve"
     style="font-style:normal;font-variant:normal;font-weight:normal;font-stretch:normal;font-size:17.5px;line-height:125%;font-family:Helvetica;-inkscape-font-specification:Helvetica;letter-spacing:0px;word-spacing:0px;fill:#000000;fill-opacity:1;stroke:none;stroke-width:1px;stroke-linecap:butt;stroke-linejoin:miter;stroke-opacity:1"
     x="89.601097"
     y="218.20676"
     id="text4498"
     sodipodi:linespacing="125%"><tspan
       sodipodi:role="line"
       id="tspan4500"
       x="89.601097"
       y="218.20676"
       style="font-size:21.25px;fill:#961c3c;fill-opacity:1">emissions</tspan></text>
  <flowRoot
     xml:space="preserve"
     id="flowRoot4528"
     style="font-style:normal;font-variant:normal;font-weight:normal;font-stretch:normal;font-size:17.5px;line-height:125%;font-family:Helvetica;-inkscape-font-specification:Helvetica;letter-spacing:0px;word-spacing:0px;fill:#000000;fill-opacity:1;stroke:none;stroke-width:1px;stroke-linecap:butt;stroke-linejoin:miter;stroke-opacity:1"
     transform="translate(0,1.7969418)"><flowRegion
       id="flowRegion4530"><rect
         id="rect4532"
         width="7.2020135"
         height="43.212082"
         x="44.652485"
         y="249.46909" /></flowRegion><flowPara
       id="flowPara4534" /></flowRoot>  <text
     xml:space="preserve"
     style="font-style:normal;font-variant:normal;font-weight:normal;font-stretch:normal;font-size:17.5px;line-height:125%;font-family:Helvetica;-inkscape-font-specification:Helvetica;text-align:start;letter-spacing:0px;word-spacing:0px;text-anchor:start;fill:#000000;fill-opacity:1;stroke:none;stroke-width:1px;stroke-linecap:butt;stroke-linejoin:miter;stroke-opacity:1"
     x="38.041454"
     y="243.0789"
     id="text4347"
     sodipodi:linespacing="125%"><tspan
       sodipodi:role="line"
       x="38.041454"
       y="243.0789"
       id="tspan4349"><tspan
         x="38.041454"
         y="243.0789"
         style="font-size:15px;text-align:start;text-anchor:start"
         id="tspan4351">InMAP reads annual total </tspan></tspan><tspan
       sodipodi:role="line"
       x="61.420372"
       y="261.82889"
       id="tspan4353"><tspan
         x="61.420372"
         y="261.82889"
         style="font-size:15px;text-align:start;text-anchor:start"
         id="tspan4355">emissions from an </tspan></tspan><tspan
       sodipodi:role="line"
       x="45.96627"
       y="280.57889"
       id="tspan4357"><tspan
         x="45.96627"
         y="280.57889"
         style="font-size:15px;text-align:start;text-anchor:start"
         id="tspan4359">arbitrary shapefile and  </tspan></tspan><tspan
       sodipodi:role="line"
       x="53.085411"
       y="299.32889"
       id="tspan4361"><tspan
         x="53.085411"
         y="299.32889"
         style="font-size:15px;text-align:start;text-anchor:start"
         id="tspan4363">allocates them to the </tspan></tspan><tspan
       sodipodi:role="line"
       x="85.180138"
       y="318.07889"
       id="tspan4365"><tspan
         x="85.180138"
         y="318.07889"
         style="font-size:15px;text-align:start;text-anchor:start"
         id="tspan4367">model grid.</tspan></tspan></text>
  <text
     xml:space="preserve"
     style="font-style:normal;font-variant:normal;font-weight:normal;font-stretch:normal;font-size:17.5px;line-height:125%;font-family:Helvetica;-inkscape-font-specification:Helvetica;letter-spacing:0px;word-spacing:0px;display:block;fill:#000000;fill-opacity:1;stroke:none;stroke-width:1px;stroke-linecap:butt;stroke-linejoin:miter;stroke-opacity:1;text-anchor:start;text-align:start;"
     x="256.44717"
     y="244.06081"
     id="text4369"
     sodipodi:linespacing="125%"><tspan
       sodipodi:role="line"
       x="258.52725"
       y="244.06081"
       id="tspan4371"><tspan
         x="256.44717"
         y="244.06081"
         style="font-size:15px;text-align:start;text-anchor:start;"
         id="tspan4373">InMAP calculates annual </tspan></tspan><tspan
       sodipodi:role="line"
       x="426.76163"
       y="300.31079"
       id="tspan4375"><tspan
         x="253.41788"
         y="262.81079"
         style="font-size:15px;text-align:start;text-anchor:start;"
         id="tspan4377">average changes in PM</tspan><tspan
         x="411.12296"
         y="262.81079"
         style="font-size:64.99999762%;baseline-shift:sub;text-anchor:start;text-align:start;"
         id="tspan4379">2.5</tspan><tspan
         x="424.68155"
         y="262.81079"
         style="font-size:15px;text-align:start;text-anchor:start;"
         id="tspan4381" /></tspan><tspan
       sodipodi:role="line"
       x="256.03702"
       y="0"
       id="tspan4383"><tspan
         x="253.95694"
         y="281.56079"
         style="font-size:15px;text-align:start;text-anchor:start;"
         id="tspan4385">concentrations caused by </tspan></tspan><tspan
       sodipodi:role="line"
       x="272.73624"
       y="0"
       id="tspan4387"><tspan
         x="272.73624"
         y="300.31079"
         style="font-size:15px;text-align:start;text-anchor:start;"
         id="tspan4389">the input emissions.</tspan></tspan></text>
  <text
     xml:space="preserve"
     style="font-style:normal;font-variant:normal;font-weight:normal;font-stretch:normal;font-size:17.5px;line-height:125%;font-family:Helvetica;-inkscape-font-specification:Helvetica;text-align:start;letter-spacing:0px;word-spacing:0px;text-anchor:start;display:block;fill:#000000;fill-opacity:1;stroke:none;stroke-width:1px;stroke-linecap:butt;stroke-linejoin:miter;stroke-opacity:1;"
     x="420.97989"
     y="244.09743"
     id="text4391"
     sodipodi:linespacing="125%"><tspan
       sodipodi:role="line"
       x="479.35391"
       y="244.09743"
       id="tspan4393"><tspan
         x="475.19376"
         y="244.09743"
         style="font-size:15px;text-align:start;text-anchor:start;"
         id="tspan4395">InMAP estimates changes </tspan></tspan><tspan
       sodipodi:role="line"
       x="584.57068"
       y="300.34741"
       id="tspan4397"><tspan
         x="478.40469"
         y="262.84741"
         style="font-size:15px;text-align:start;text-anchor:start;"
         id="tspan4399">in human PM</tspan><tspan
         x="566.85193"
         y="262.84741"
         style="font-size:64.99999762%;text-align:start;baseline-shift:sub;text-anchor:start;"
         id="tspan4401">2.5</tspan><tspan
         x="580.41052"
         y="262.84741"
         style="font-size:15px;text-align:start;text-anchor:start;"
         id="tspan4403"> exposure </tspan></tspan><tspan
       sodipodi:role="line"
       x="501.4584"
       y="319.09741"
       id="tspan4405"><tspan
         x="497.29825"
         y="281.59741"
         style="font-size:15px;text-align:start;text-anchor:start;"
         id="tspan4407">caused by the input </tspan></tspan><tspan
       sodipodi:role="line"
       x="487.27872"
       y="0"
       id="tspan4409"><tspan
         x="483.11856"
         y="300.34741"
         style="font-size:15px;text-align:start;text-anchor:start;"
         id="tspan4411">emissions using census </tspan></tspan><tspan
       sodipodi:role="line"
       x="549.84216"
       y="0"
       id="tspan4413"><tspan
         x="545.68201"
         y="319.09741"
         style="font-size:15px;text-align:start;text-anchor:start;"
         id="tspan4415">data. </tspan></tspan></text>
  <text
     xml:space="preserve"
     style="font-style:normal;font-variant:normal;font-weight:normal;font-stretch:normal;font-size:17.5px;line-height:125%;font-family:Helvetica;-inkscape-font-specification:Helvetica;text-align:start;letter-spacing:0px;word-spacing:0px;text-anchor:start;display:block;fill:#000000;fill-opacity:1;stroke:none;stroke-width:1px;stroke-linecap:butt;stroke-linejoin:miter;stroke-opacity:1"
     x="49.216801"
     y="518.54919"
     id="text4417"
     sodipodi:linespacing="125%"><tspan
       sodipodi:role="line"
       x="49.216801"
       y="518.54919"
       id="tspan4419"><tspan
         x="49.216801"
         y="518.54919"
         style="font-size:15px;text-align:start;text-anchor:start"
         id="tspan4421">InMAP calculates how </tspan></tspan><tspan
       sodipodi:role="line"
       x="25.41309"
       y="537.29919"
       id="tspan4423"><tspan
         x="25.41309"
         y="537.29919"
         style="font-size:15px;text-align:start;text-anchor:start"
         id="tspan4425">different demographic groups </tspan></tspan><tspan
       sodipodi:role="line"
       x="172.37793"
       y="593.54919"
       id="tspan4427"><tspan
         x="32.842777"
         y="556.04919"
         style="font-size:15px;text-align:start;text-anchor:start"
         id="tspan4429">are exposed to PM</tspan><tspan
         x="158.81934"
         y="556.04919"
         style="font-size:64.99999762%;text-align:start;baseline-shift:sub;text-anchor:start"
         id="tspan4431">2.5   </tspan><tspan
         x="172.37793"
         y="556.04919"
         style="font-size:15px;text-align:start;text-anchor:start"
         id="tspan4433"> even </tspan></tspan><tspan
       sodipodi:role="line"
       x="44.207035"
       y="0"
       id="tspan4435"><tspan
         x="44.207035"
         y="574.79919"
         style="font-size:15px;text-align:start;text-anchor:start"
         id="tspan4437">when the  groups live in </tspan></tspan><tspan
       sodipodi:role="line"
       x="40.837894"
       y="0"
       id="tspan4439"><tspan
         x="40.837894"
         y="593.54919"
         style="font-size:15px;text-align:start;text-anchor:start"
         id="tspan4441">adjacent neighborhoods.</tspan></tspan></text>
  <text
     xml:space="preserve"
     style="font-style:normal;font-variant:normal;font-weight:normal;font-stretch:normal;font-size:17.5px;line-height:125%;font-family:Helvetica;-inkscape-font-specification:Helvetica;letter-spacing:0px;word-spacing:0px;display:block;fill:#000000;fill-opacity:1;stroke:none;stroke-width:1px;stroke-linecap:butt;stroke-linejoin:miter;stroke-opacity:1;text-anchor:start;text-align:start;"
     x="234.73985"
     y="518.80554"
     id="text4443"
     sodipodi:linespacing="125%"><tspan
       sodipodi:role="line"
       x="236.81993"
       y="518.80554"
       id="tspan4445"><tspan
         x="234.73985"
         y="518.80554"
         style="font-size:15px;text-align:start;text-anchor:start;"
         id="tspan4447">Optionally, health damages can </tspan></tspan><tspan
       sodipodi:role="line"
       x="256.0094"
       y="537.55554"
       id="tspan4449"><tspan
         x="253.92931"
         y="537.55554"
         style="font-size:15px;text-align:start;text-anchor:start;"
         id="tspan4451">be converted to economic </tspan></tspan><tspan
       sodipodi:role="line"
       x="255.15977"
       y="556.30554"
       id="tspan4453"><tspan
         x="253.0797"
         y="556.30554"
         style="font-size:15px;text-align:start;text-anchor:start;"
         id="tspan4455">damages using a Value of </tspan></tspan><tspan
       sodipodi:role="line"
       x="268.97324"
       y="575.05554"
       id="tspan4457"><tspan
         x="268.97324"
         y="575.05554"
         style="font-size:15px;text-align:start;text-anchor:start;"
         id="tspan4459">Statistical Life metric.</tspan></tspan></text>
  <text
     xml:space="preserve"
     style="font-style:normal;font-variant:normal;font-weight:normal;font-stretch:normal;font-size:17.5px;line-height:125%;font-family:Helvetica;-inkscape-font-specification:Helvetica;letter-spacing:0px;word-spacing:0px;display:block;fill:#000000;fill-opacity:1;stroke:none;stroke-width:1px;stroke-linecap:butt;stroke-linejoin:miter;stroke-opacity:1;text-anchor:start;text-align:start;"
     x="489.625"
     y="518.54919"
     id="text4461"
     sodipodi:linespacing="125%"><tspan
       sodipodi:role="line"
       x="491.70508"
       y="518.54919"
       id="tspan4463"><tspan
         x="489.625"
         y="518.54919"
         style="font-size:15px;text-align:start;text-anchor:start;"
         id="tspan4465">Using epidemiological </tspan></tspan><tspan
       sodipodi:role="line"
       x="486.28516"
       y="537.29919"
       id="tspan4467"><tspan
         x="484.20508"
         y="537.29919"
         style="font-size:15px;text-align:start;text-anchor:start;"
         id="tspan4469">concentration-response </tspan></tspan><tspan
       sodipodi:role="line"
       x="472.55957"
       y="556.04919"
       id="tspan4471"><tspan
         x="470.47949"
         y="556.04919"
         style="font-size:15px;text-align:start;text-anchor:start;"
         id="tspan4473">functions, InMAP calculates </tspan></tspan><tspan
       sodipodi:role="line"
       x="482.98926"
       y="574.79919"
       id="tspan4475"><tspan
         x="480.90918"
         y="574.79919"
         style="font-size:15px;text-align:start;text-anchor:start;"
         id="tspan4477">the health impacts of the </tspan></tspan><tspan
       sodipodi:role="line"
       x="527.19824"
       y="593.54919"
       id="tspan4479"><tspan
         x="527.19824"
         y="593.54919"
         style="font-size:15px;text-align:start;text-anchor:start;"
         id="tspan4481">emissions.</tspan></tspan></text>
</svg>
