<?xml version="1.0" encoding="UTF-8" standalone="no"?>
<!DOCTYPE svg PUBLIC "-//W3C//DTD SVG 1.1//EN"
"http://www.w3.org/Graphics/SVG/1.1/DTD/svg11.dtd">


<!-- Page 1 -->
<svg x="0" y="0" width="713" height="336" version="1.1" xmlns="http://www.w3.org/2000/svg" xmlns:xlink="http://www.w3.org/1999/xlink"
style="display: block;margin-left: auto;margin-right: auto;">
<defs>

<style type="text/css"><![CDATA[

.g4_1{
fill: #961C3C;
}
.g5_1{
fill: #FFFFFF;
}
.g2_1{
fill: #EE3B34;
}
.g6_1{
fill: none;
stroke: #961C3C;
stroke-width: 3;
stroke-linecap: butt;
stroke-linejoin: miter;
}
.g3_1{
fill: #85CDD4;
}
.g1_1{
fill: none;
stroke: #961C3C;
stroke-width: 4;
stroke-linecap: butt;
stroke-linejoin: miter;
}

.s2_1{
font-size: 15.93px;
font-family: EJCKZY-Clarke1;
fill: #85CDD4;
}
.s3_1{
font-size: 34.55px;
font-family: NXBSCU-Clarke-Medium1;
fill: #961C3C;
}
.s1_1{
font-size: 15.93px;
font-family: EJCKZY-Clarke1;
fill: #EE3B34;
}

]]></style>

</defs>
<path d="M0,0
L0,336
L713,336
L713,0 Z " 
fill="#FFFFFF" stroke="none" />
<path d="M705.6,318.2c0,5.7,-5.2,10.3,-11.6,10.3l-676,0c-6.4,0,-11.5,-4.6,-11.5,-10.3L6.5,17.3C6.5,11.6,11.6,7,18,7L694,7c6.4,0,11.6,4.6,11.6,10.3l0,300.9Z" class="g1_1" />
<path d="M446.6,171.1c0,-34,16.4,-64.1,41.7,-83C471.1,75.3,449.7,67.7,426.6,67.7c-57,0,-103.3,46.3,-103.3,103.4c0,57,46.3,103.3,103.3,103.3c23.1,0,44.5,-7.6,61.7,-20.4C463,235.2,446.6,205,446.6,171.1Z" class="g2_1" />
<path d="M549.9,67.7c-23.1,0,-44.4,7.6,-61.6,20.4c25.3,18.9,41.7,49,41.7,83c0,33.9,-16.4,64.1,-41.7,82.9c17.2,12.8,38.5,20.4,61.6,20.4c57.1,0,103.3,-46.3,103.3,-103.3C653.2,114,607,67.7,549.9,67.7Z" class="g3_1" />
<path d="M530,171.1c0,-34,-16.4,-64.1,-41.7,-83c-25.3,18.9,-41.7,49,-41.7,83c0,33.9,16.4,64.1,41.7,82.9C513.6,235.2,530,205,530,171.1Z" class="g4_1" />
<path d="M411.7,171.3c0,0.7,-0.4,1.1,-1,1.1l-6.7,0c-0.6,0,-1.1,-0.4,-1.1,-1.1l0,-28.1c0,-0.7,0.5,-1.1,1.1,-1.1l6.7,0c0.6,0,1,0.4,1,1.1Z" class="g5_1" />
<path d="M448.7,181.1c0.7,0,1.1,0.5,1.1,1.1l0,6.6c0,0.7,-0.4,1.1,-1.1,1.1l-44.7,0c-0.6,0,-1.1,-0.4,-1.1,-1.1l0,-6.6c0,-0.6,0.5,-1.1,1.1,-1.1Z" class="g5_1" />
<path d="M423,142.1l6.5,0c0,0,0.8,0,1.1,0.5l10.6,16.3l0,-16.3c0,-0.3,0.4,-0.5,1,-0.5l6.7,0c0.6,0,1,0.2,1,0.5l0,29.2c0,0.4,-0.4,0.6,-1,0.6l-6.2,0c0,0,-0.8,0,-1.2,-0.6L430.6,157.1l0,14.7c0,0.4,-0.4,0.6,-1,0.6l-6.6,0c-0.7,0,-1.1,-0.2,-1.1,-0.6l0,-29.2c0,-0.3,0.4,-0.5,1.1,-0.5Z" class="g5_1" />
<path d="M468.8,168.4l0,33.7c0,0.6,-0.4,1.1,-1,1.1l-6.6,0c-0.7,0,-1.1,-0.5,-1.1,-1.1l0,-58.9c0,-0.7,0.4,-1.1,1.1,-1.1l6.3,0c0,0,0.9,0,1.3,1.1l10.6,29.2L490,143.2c0.4,-1.1,1.3,-1.1,1.3,-1.1l6.4,0c0.6,0,1,0.4,1,1.1l0,58.9c0,0.6,-0.4,1.1,-1,1.1l-6.7,0c-0.6,0,-1,-0.5,-1,-1.1l0,-33.7l-10.6,29.4Z" class="g5_1" />
<path d="M518.8,185.6l6.5,0L522,161.5Zm6.8,-43.5c0,0,1,0,1.1,1.1l10.2,58.9c0.1,1.1,-0.6,1.1,-0.6,1.1l-7.3,0c0,0,-0.8,0,-0.9,-1.1l-1.4,-8.2l-9.3,0l-1.4,8.2c-0.1,1.1,-0.9,1.1,-0.9,1.1l-7.2,0c0,0,-0.8,0,-0.6,-1.1l10.1,-58.9c0.1,-1.1,1.1,-1.1,1.1,-1.1Z" class="g5_1" />
<path d="M564.1,152.6c0,-1.2,-1,-2.2,-2.2,-2.2l-7.7,0l0,20.3l7.7,0c1.2,0,2.2,-1,2.2,-2.2Zm-18.7,-9.4c0,-0.7,0.4,-1.1,1.1,-1.1l17.5,0c4.8,0,8.9,4,8.9,8.9l0,18.7c0,5,-4.1,8.9,-8.9,8.9l-9.8,0l0,23.5c0,0.6,-0.5,1.1,-1.1,1.1l-6.6,0c-0.7,0,-1.1,-0.5,-1.1,-1.1Z" class="g5_1" />
<path d="M61.8,61.6c0,0.3,-0.2,0.4,-0.4,0.4l-2.8,0c-0.3,0,-0.4,-0.1,-0.4,-0.4l0,-11.8c0,-0.3,0.1,-0.5,0.4,-0.5l2.8,0c0.2,0,0.4,0.2,0.4,0.5Z" class="g4_1" />
<path d="M77.3,65.7c0.3,0,0.5,0.2,0.5,0.4l0,2.8c0,0.3,-0.2,0.4,-0.5,0.4l-18.7,0c-0.3,0,-0.4,-0.1,-0.4,-0.4l0,-2.8c0,-0.2,0.1,-0.4,0.4,-0.4Z" class="g2_1" />
<path d="M66.6,49.3l2.7,0c0,0,0.3,0,0.5,0.2l4.4,6.9l0,-6.9c0,-0.1,0.2,-0.2,0.4,-0.2l2.8,0c0.3,0,0.5,0.1,0.5,0.2l0,12.3c0,0.1,-0.2,0.2,-0.5,0.2l-2.6,0c0,0,-0.3,0,-0.5,-0.2L69.8,55.6l0,6.2c0,0.1,-0.2,0.2,-0.5,0.2l-2.7,0c-0.3,0,-0.5,-0.1,-0.5,-0.2l0,-12.3c0,-0.1,0.2,-0.2,0.5,-0.2Z" class="g4_1" />
<path d="M85.8,60.3l0,14.1c0,0.3,-0.2,0.5,-0.4,0.5l-2.8,0c-0.3,0,-0.5,-0.2,-0.5,-0.5l0,-24.6c0,-0.3,0.2,-0.5,0.5,-0.5l2.6,0c0,0,0.4,0,0.6,0.5L90.2,62L94.7,49.8c0.1,-0.5,0.5,-0.5,0.5,-0.5l2.7,0c0.2,0,0.4,0.2,0.4,0.5l0,24.6c0,0.3,-0.2,0.5,-0.4,0.5l-2.8,0c-0.3,0,-0.5,-0.2,-0.5,-0.5l0,-14.1L90.2,72.7Z" class="g4_1" />
<path d="M106.7,67.5l2.8,0L108.1,57.4Zm2.9,-18.2c0,0,0.4,0,0.4,0.5l4.3,24.6c0.1,0.5,-0.3,0.5,-0.3,0.5l-3,0c0,0,-0.3,0,-0.4,-0.5L110,71l-3.9,0l-0.6,3.4c0,0.5,-0.3,0.5,-0.3,0.5l-3.1,0c0,0,-0.3,0,-0.2,-0.5l4.2,-24.6c0.1,-0.5,0.5,-0.5,0.5,-0.5Z" class="g4_1" />
<path d="M125.7,53.7c0,-0.5,-0.4,-0.9,-0.9,-0.9l-3.3,0l0,8.5l3.3,0c0.5,0,0.9,-0.4,0.9,-0.9Zm-7.8,-3.9c0,-0.3,0.2,-0.5,0.4,-0.5l7.4,0c2,0,3.7,1.7,3.7,3.7l0,7.9c0,2.1,-1.7,3.7,-3.7,3.7l-4.2,0l0,9.8c0,0.3,-0.1,0.5,-0.4,0.5l-2.8,0c-0.2,0,-0.4,-0.2,-0.4,-0.5Z" class="g4_1" />
<path d="M363.5,158.5l-98,0" class="g6_1" />
<path d="M363.5,156.4c1.4,0,2.5,1.1,2.5,2.5c0,1.3,-1.1,2.5,-2.5,2.5c-1.4,0,-2.5,-1.2,-2.5,-2.5c0,-1.4,1.1,-2.5,2.5,-2.5Z" class="g4_1" />
<text 
x="116" 
y="137" 
dx="0,-0.3,0,0,0,0,0,0,0,0,0,0,0,0,0,0,0,0,0,-0.2" 
class="s1_1"
>Long range transport</text>

<text 
x="57" 
y="156" 
dx="0,0,0,0,0,0,-0.2,0,0,0,0,0,0,0,0,0,-0.8,0,0,0,0,0,0,0,0,-0.8,0,0,0" 
class="s1_1"
>secondary pollutant formation</text>

<text 
x="148" 
y="175" 
dx="0,0,0,0,0,0,0,0,0,0,0,-0.8,0,0,-0.2" 
class="s1_1"
>many pollutants</text>

<text 
x="167" 
y="194" 
dx="0,0,0,0,0,0,0,0,0,0,0,0" 
class="s1_1"
>many sources</text>

<text 
x="108" 
y="253" 
dx="0,0,0,0,0,0,0,-0.6,-0.8,0,0,0,0,0,0,0,0,0,0,-1.4,0,0,0" 
class="s2_1"
>high spatial resoultion</text>

<text 
x="77" 
y="272" 
dx="0,0,0,0,0,0,-0.8,-0.8,0,0,0,0,0,0,-1.2,0,0,0,0,0,0,0,0,0,0,0,0" 
class="s2_1"
>computationally inexpensive</text>

<path d="M554.5,243.5l0,15l-290,0" class="g6_1" />
<path d="M552.1,243.3c0,-1.4,1.1,-2.5,2.5,-2.5c1.4,0,2.5,1.1,2.5,2.5c0,1.3,-1.1,2.5,-2.5,2.5c-1.4,0,-2.5,-1.2,-2.5,-2.5Z" class="g4_1" />
<text 
x="138" 
y="74" 
dx="0,0,0,0,0,0,0,0" 
class="s3_1"
>combines</text>



<!-- Any embedded fonts defined here -->
<style type="text/css" ><![CDATA[

@font-face {
	font-family: NXBSCU-Clarke-Medium1;
	src: url("1/fonts/NXBSCU-Clarke-Medium.woff") format("woff");
}

@font-face {
	font-family: EJCKZY-Clarke1;
	src: url("1/fonts/EJCKZY-Clarke.woff") format("woff");
}

]]></style>

<title>toc Page1</title>
</svg>
