<?xml version="1.0" encoding="UTF-8" standalone="no"?>
<!-- Created with Inkscape (http://www.inkscape.org/) -->

<svg
   xmlns:dc="http://purl.org/dc/elements/1.1/"
   xmlns:cc="http://creativecommons.org/ns#"
   xmlns:rdf="http://www.w3.org/1999/02/22-rdf-syntax-ns#"
   xmlns:svg="http://www.w3.org/2000/svg"
   xmlns="http://www.w3.org/2000/svg"
   xmlns:sodipodi="http://sodipodi.sourceforge.net/DTD/sodipodi-0.dtd"
   xmlns:inkscape="http://www.inkscape.org/namespaces/inkscape"
   width="129.41998mm"
   height="77.337364mm"
   viewBox="0 0 458.57474 274.03003"
   id="svg3496"
   version="1.1"
   inkscape:version="0.91 r13725"
   sodipodi:docname="logo.svg">
  <defs
     id="defs3498">
    <clipPath
       clipPathUnits="userSpaceOnUse"
       id="clipPath16">
      <path
         d="M 0,504 792,504 792,0 0,0 0,504 Z"
         id="path18"
         inkscape:connector-curvature="0" />
    </clipPath>
  </defs>
  <sodipodi:namedview
     id="base"
     pagecolor="#ffffff"
     bordercolor="#666666"
     borderopacity="1.0"
     inkscape:pageopacity="0.0"
     inkscape:pageshadow="2"
     inkscape:zoom="1.4"
     inkscape:cx="176.99531"
     inkscape:cy="122.91658"
     inkscape:document-units="px"
     inkscape:current-layer="layer1"
     showgrid="false"
     fit-margin-top="0"
     fit-margin-left="0"
     fit-margin-right="0"
     fit-margin-bottom="0"
     inkscape:window-width="1547"
     inkscape:window-height="876"
     inkscape:window-x="53"
     inkscape:window-y="24"
     inkscape:window-maximized="1" />
  <metadata
     id="metadata3501">
    <rdf:RDF>
      <cc:Work
         rdf:about="">
        <dc:format>image/svg+xml</dc:format>
        <dc:type
           rdf:resource="http://purl.org/dc/dcmitype/StillImage" />
        <dc:title></dc:title>
      </cc:Work>
    </rdf:RDF>
  </metadata>
  <g
     inkscape:label="Layer 1"
     inkscape:groupmode="layer"
     id="layer1"
     transform="translate(-202.14119,-378.20433)">
    <g
       transform="matrix(1.25,0,0,-1.25,108.83257,893.46099)"
       id="g12">
      <g
         id="g14"
         clip-path="url(#clipPath16)">
        <g
           id="g20"
           transform="translate(93.5059,195.8433)">
          <path
             d="m 0,0 c 0,-1.761 -0.917,-2.862 -2.198,-2.862 l -14.28,0 c -1.465,0 -2.381,1.101 -2.381,2.862 l 0,153.221 c 0,1.76 0.916,2.862 2.381,2.862 l 14.28,0 c 1.281,0 2.198,-1.102 2.198,-2.862 L 0,0 Z"
             style="fill:#941739;fill-opacity:1;fill-rule:nonzero;stroke:none"
             id="path22"
             inkscape:connector-curvature="0" />
        </g>
        <g
           id="g24"
           transform="translate(117.8486,272.8511)">
          <path
             d="m 0,0 14.098,0 c 0,0 1.831,0 2.38,-1.419 l 22.883,-42.271 0,42.271 c 0,0.871 0.915,1.419 2.197,1.419 l 14.463,0 c 1.281,0 2.197,-0.548 2.197,-1.419 l 0,-75.799 c 0,-0.876 -0.916,-1.42 -2.197,-1.42 l -13.366,0 c 0,0 -1.828,0 -2.561,1.42 l -23.616,38.117 0,-38.117 c 0,-0.876 -0.915,-1.42 -2.2,-1.42 l -14.278,0 c -1.465,0 -2.382,0.544 -2.382,1.42 l 0,75.799 C -2.382,-0.548 -1.465,0 0,0"
             style="fill:#941739;fill-opacity:1;fill-rule:nonzero;stroke:none"
             id="path26"
             inkscape:connector-curvature="0" />
        </g>
        <g
           id="g28"
           transform="translate(216.8867,283.647)">
          <path
             d="m 0,0 0,-87.441 c 0,-1.76 -0.916,-2.862 -2.199,-2.862 l -14.278,0 c -1.464,0 -2.38,1.102 -2.38,2.862 l 0,152.858 c 0,1.761 0.916,2.862 2.38,2.862 l 13.549,0 c 0,0 2.012,0 2.928,-2.862 l 22.885,-75.769 22.883,75.769 c 0.732,2.862 2.746,2.862 2.746,2.862 l 13.732,0 c 1.281,0 2.196,-1.101 2.196,-2.862 l 0,-152.858 c 0,-1.76 -0.915,-2.862 -2.196,-2.862 l -14.461,0 c -1.285,0 -2.199,1.102 -2.199,2.862 L 45.586,0 22.885,-76.428 0,0 Z"
             style="fill:#941739;fill-opacity:1;fill-rule:nonzero;stroke:none"
             id="path30"
             inkscape:connector-curvature="0" />
        </g>
        <g
           id="g32"
           transform="translate(324.71,238.937)">
          <path
             d="M 0,0 14.097,0 6.956,62.552 0,0 Z m 14.646,112.989 c 0,0 2.195,0 2.38,-2.862 L 38.995,-42.731 c 0.365,-2.862 -1.282,-2.862 -1.282,-2.862 l -15.743,0 c 0,0 -1.649,0 -1.831,2.862 l -3.113,21.145 -19.956,0 -3.112,-21.145 c -0.182,-2.862 -1.831,-2.862 -1.831,-2.862 l -15.743,0 c 0,0 -1.649,0 -1.282,2.862 l 21.967,152.858 c 0.183,2.862 2.382,2.862 2.382,2.862 l 15.195,0 z"
             style="fill:#941739;fill-opacity:1;fill-rule:nonzero;stroke:none"
             id="path34"
             inkscape:connector-curvature="0" />
        </g>
        <g
           id="g36"
           transform="translate(422.4687,324.6157)">
          <path
             d="m 0,0 c 0,3.081 -2.017,5.727 -4.761,5.727 l -16.659,0 0,-52.641 16.659,0 c 2.744,0 4.761,2.643 4.761,5.726 L 0,0 Z m -40.279,24.448 c 0,1.761 0.915,2.863 2.381,2.863 l 37.713,0 c 10.436,0 19.223,-10.353 19.223,-23.127 l 0,-48.675 c 0,-12.776 -8.787,-23.128 -19.223,-23.128 l -21.235,0 0,-60.791 c 0,-1.76 -0.916,-2.861 -2.199,-2.861 l -14.279,0 c -1.465,0 -2.381,1.101 -2.381,2.861 l 0,152.858 z"
             style="fill:#941739;fill-opacity:1;fill-rule:nonzero;stroke:none"
             id="path38"
             inkscape:connector-curvature="0" />
        </g>
      </g>
    </g>
    <g
       id="g100"
       transform="matrix(1.25,0,0,-1.25,355.7967,408.93524)">
      <path
         d="m 0,0 c -4.329,5.614 -11.784,7.31 -18.564,6.78 -2.416,-0.187 -5.023,-0.517 -7.357,-1.187 -0.308,-0.087 -3.692,-1.522 -3.85,-1.381 0,0.004 -3.633,3.137 -6.736,2.646 0.514,0.08 1.094,2.409 1.197,2.753 0.639,2.063 1.078,4.277 0.961,6.449 -0.414,7.685 -10.926,11.87 -15.602,5.182 -1.08,-1.543 -2.134,-4.062 -2.22,-5.969 -0.013,-0.333 0.184,-3.381 0.588,-3.386 0,0 -17.814,0.331 -17.281,-13.271 0,0 -3.539,-2.48 -3.539,-3.828 0,0.93 -4.426,0.149 -4.979,0.049 -5.683,-1.08 -9.443,-5.748 -9.691,-11.49 -0.059,-1.389 0.08,-3.034 0.527,-4.355 0.223,-0.651 0.524,-1.272 0.879,-1.856 1.645,-2.686 4.572,-4.644 7.47,-5.641 -0.528,0.178 -2.15,-5.076 -2.312,-5.59 -0.103,-0.322 -0.18,-0.64 -0.258,-0.959 0.867,-0.127 1.727,-0.293 2.539,-0.525 0.202,-0.057 2.399,-0.989 2.502,-0.897 0,0.002 2.362,2.038 4.374,1.719 -0.333,0.052 -0.71,1.565 -0.777,1.788 -0.414,1.34 -0.699,2.78 -0.623,4.189 0.269,4.994 7.099,7.713 10.137,3.367 0.7,-1.002 1.386,-2.639 1.441,-3.877 0.009,-0.217 -0.119,-2.197 -0.383,-2.199 0,0 11.575,0.215 11.228,-8.623 0,0 2.299,-1.612 2.299,-2.487 0,0.604 2.875,0.096 3.234,0.032 3.693,-0.702 6.136,-3.735 6.297,-7.465 0.039,-0.903 -0.052,-1.971 -0.342,-2.829 -0.144,-0.423 -0.341,-0.827 -0.572,-1.206 -1.067,-1.745 -2.969,-3.016 -4.854,-3.664 0.343,0.115 1.398,-3.297 1.504,-3.631 1.399,-4.374 -1.036,-8.172 -5.288,-9.442 -0.311,-0.092 -2.192,-0.654 -2.424,-0.311 0,0 1.662,-2.449 0.787,-4.812 0.004,0.014 2.272,-2.127 2.399,-2.295 0.881,-1.138 1.509,-2.559 1.733,-4.017 0.121,-0.8 0.121,-1.615 -0.029,-2.401 -0.083,-0.414 -0.206,-0.801 -0.351,-1.175 -0.463,-1.199 -1.239,-2.163 -2.193,-2.852 0.44,-0.596 1.663,-2.189 2.53,-2.734 0,0 -4.173,-6.465 3.776,-10.502 0,0 3.476,-1.633 5.048,-0.96 0,0 -0.582,-4.338 2.952,-6.675 0.565,-0.377 1.265,-0.699 2.121,-0.944 6.191,-1.751 13.559,3.495 8.28,11.895 -0.05,0.078 0.553,1.133 0.599,1.25 1.55,4.016 -0.869,8.837 -4.236,11.221 0,0 8.33,15.334 -8.368,18.296 0,0 5.524,0.673 5.524,6.057 0,0 11.632,0.957 9.824,11.946 0,0 12.793,4.48 11.314,19.023 0,-0.025 1.883,0.721 1.967,0.764 0.367,0.176 0.735,0.367 1.098,0.561 1.186,0.654 2.311,1.415 3.336,2.298 C 5.201,-20.627 6.053,-7.853 0,0"
         style="fill:#ee2c32;fill-opacity:1;fill-rule:nonzero;stroke:none"
         id="path102"
         inkscape:connector-curvature="0" />
    </g>
    <g
       id="g108"
       transform="matrix(1.25,0,0,-1.25,277.97069,509.27461)">
      <path
         d="m 0,0 c 0.021,0.504 0.021,3.244 0.625,3.563 -5.508,-2.91 -11.858,-0.535 -13.99,4.977 -0.223,0.574 -0.412,1.17 -0.54,1.809 -0.233,1.21 -0.231,2.464 -0.047,3.695 0.347,2.244 1.312,4.432 2.671,6.185 0.193,0.256 3.685,3.553 3.691,3.531 -1.348,3.636 1.212,7.407 1.212,7.407 -0.356,-0.527 -3.254,0.338 -3.731,0.479 -6.231,1.861 -9.916,7.25 -8.397,13.572 -0.753,0.109 -1.51,0.189 -2.24,0.246 -4.405,0.344 -9.249,-0.758 -12.061,-4.404 -3.934,-5.104 -3.379,-13.403 1.536,-17.653 0.666,-0.574 1.397,-1.069 2.167,-1.493 0.235,-0.127 0.475,-0.25 0.713,-0.366 0.055,-0.027 1.277,-0.512 1.277,-0.494 -0.96,-9.45 7.352,-12.36 7.352,-12.36 -1.175,-7.138 6.383,-7.761 6.383,-7.761 0,-3.498 3.588,-3.936 3.588,-3.936 -10.849,-1.924 -5.437,-11.885 -5.437,-11.885 -2.187,-1.549 -3.758,-4.681 -2.751,-7.291 0.029,-0.076 0.42,-0.76 0.389,-0.812 -3.431,-5.458 1.357,-8.865 5.379,-7.728 0.555,0.159 1.011,0.368 1.378,0.615 2.296,1.517 1.918,4.335 1.918,4.335 1.019,-0.437 3.278,0.623 3.278,0.623 5.165,2.624 2.453,6.823 2.453,6.823 0.698,0.437 1.76,1.934 1.76,1.934 2.234,-1.543 5.012,-1.453 7.105,0.297 1.495,1.247 2.039,3.091 1.961,4.999 -0.008,0.181 -0.015,0.793 -0.08,1.347 C 5.954,-9.522 4.391,-8.843 3.02,-7.696 0.719,-5.775 -0.12,-2.938 0,0"
         style="fill:#8bd3d2;fill-opacity:1;fill-rule:nonzero;stroke:none"
         id="path110"
         inkscape:connector-curvature="0" />
    </g>
    <g
       id="g116"
       transform="matrix(1.25,0,0,-1.25,298.3772,516.20449)">
      <path
         d="m 0,0 c 0.145,0.374 0.268,0.762 0.351,1.176 0.15,0.785 0.15,1.6 0.029,2.4 -0.225,1.458 -0.853,2.879 -1.734,4.018 -0.126,0.168 -2.394,2.308 -2.399,2.295 0.875,2.362 -0.786,4.811 -0.786,4.811 0.231,-0.343 2.112,0.22 2.424,0.312 4.252,1.269 6.686,5.067 5.288,9.441 -0.107,0.334 -1.161,3.746 -1.504,3.631 1.885,0.648 3.786,1.92 4.853,3.664 0.232,0.38 0.428,0.783 0.573,1.206 0.29,0.859 0.381,1.927 0.342,2.829 -0.162,3.731 -2.604,6.764 -6.297,7.465 -0.36,0.065 -3.235,0.572 -3.235,-0.031 0,0.875 -2.299,2.486 -2.299,2.486 0.347,8.838 -11.227,8.623 -11.227,8.623 0.264,0.002 0.392,1.983 0.383,2.199 -0.056,1.239 -0.741,2.875 -1.442,3.877 -3.038,4.346 -9.868,1.627 -10.136,-3.367 -0.077,-1.409 0.209,-2.848 0.623,-4.188 0.067,-0.224 0.444,-1.737 0.777,-1.788 -2.013,0.318 -4.374,-1.717 -4.374,-1.719 -0.104,-0.093 -2.301,0.84 -2.502,0.896 -0.812,0.233 -1.673,0.399 -2.539,0.526 -1.52,-6.323 2.166,-11.711 8.396,-13.573 0.478,-0.14 3.375,-1.005 3.732,-0.478 0,0 -2.56,-3.772 -1.212,-7.407 -0.006,0.022 -3.498,-3.275 -3.691,-3.532 -1.359,-1.752 -2.325,-3.94 -2.671,-6.184 -0.184,-1.231 -0.186,-2.485 0.047,-3.695 0.127,-0.639 0.317,-1.235 0.54,-1.809 2.131,-5.512 8.482,-7.887 13.99,-4.977 -0.604,-0.319 -0.604,-3.059 -0.625,-3.563 -0.12,-2.938 0.719,-5.775 3.019,-7.696 1.371,-1.147 2.935,-1.827 4.543,-2.05 -0.054,0.458 -0.15,0.875 -0.327,0.97 1.175,-0.622 2.408,-0.866 3.584,-0.795 1.084,0.265 2.145,0.734 3.134,1.418 0,0 0.074,-0.102 0.179,-0.243 C -1.239,-2.162 -0.464,-1.198 0,0"
         style="fill:#941739;fill-opacity:1;fill-rule:nonzero;stroke:none"
         id="path118"
         inkscape:connector-curvature="0" />
    </g>
  </g>
</svg>
