<svg xmlns="http://www.w3.org/2000/svg" width="132.16" height="132.16" viewBox="0 0 123.9 123.9"><path d="M0 61.9c0 34.3 27.8 62 62 62s61.9-27.7 61.9-61.9c0-34.3-27.7-62-61.9-62S0 27.7 0 61.9z" class="g4_3" display="block" fill="#85cdd4"/><path d="M89.1 37.8c-.4-.1-3.6-1-3.6-.3.1-1-1.1-2.8-1.1-2.8 1.5-9.8-9.2-10.9-9.2-10.9.3 0 .7-2.2.7-2.4.1-1.4-.4-3.3-1.1-4.5-2.9-5.2-10.8-3-11.7 2.5-.3 1.6-.1 3.2.2 4.8 0 .2.3 1.9.6 2-2.2-.6-5.1 1.4-5.1 1.4-.1.1-2.4-1.2-2.6-1.3-1.7-.7-3.5-1.1-5.3-1.4-4.8-.9-10.4-.3-13.9 3.4-3.8 3.9-4.9 10-3.2 15.1.5-.5 1.1-1 1.8-1.5s1.5-1 2.3-1.4c.9-.5 1.7-.9 2.6-1.2 4.1-1.6 8.8-2.1 13.2-1.3 1.5.3 3.1.7 4.6 1.3.8.3 1.6.7 2.3 1.1.7.4 1.7.9 2.3 1.4 0 0 6 5.8 5.7 12.3v4.5c.1 1.1 0 2.4.8 3.3 1.2 1.4 3.5 1.9 3.5 4.1 0 1.9-2.8 2.1-3.2 3.4-.3 1.3.3 3 .2 3.4 0 .4-1.3.7-1.3.9 0 .1 1 .7.9 1.3-.1.6-.1.8-1.4 1.6-1.2.9-.2 2.3-.2 2.3s.9 1.3.1 2.6c-.8 1.2-5.6 1.2-5.8 1.2-.1.1-3.2-.1-4.4 1.5-1.2 1.6-2.6 6-1.6 8.3 0 0 .2.3 0 .5-.1.1-2.6.2-6.1.2l.2.4c-4.6 2.5-2.5 7.3-2.5 7.3-5.2 1.9-2.6 9.2 2 8.4 4.7-.8 3.6-5.2 3.6-5.2 1.1.6 3 .3 3 .3 6.1-2.3 3.6-7.3 3.6-7.3.8-.4 1.4-1.3 1.4-1.3 2.3 2 5.4 2.2 7.9.5 1.9-1.2 2.7-3.2 2.8-5.3.1-.4.3-2.4-.1-2.7 4.1 2.8 9.5 1.1 11-3.7.8-2.4.2-5.2-1.1-7.4-.1-.2-2.4-2.8-2.4-2.8 1.3-2.5-.3-5.5-.3-5.5.3.4 2.4 0 2.8 0 4.9-.9 8-4.8 7-9.9-.1-.4-.8-4.3-1.2-4.2 2.6-.6 5.4-2.2 6.6-4.8.5-.9.7-2.1.8-3.1.2-4.2-2.1-7.8-6.1-9.1z" class="g2_3" display="block" fill="#ee3b34"/><path d="M56.2 92.5c-1-2.3.4-6.7 1.6-8.3 1.2-1.6 4.3-1.4 4.4-1.5.2 0 5 0 5.8-1.2.8-1.3-.1-2.6-.1-2.6s-1-1.4.2-2.3c1.3-.8 1.3-1 1.4-1.6.1-.6-.9-1.2-.9-1.3 0-.2 1.3-.5 1.3-.9.1-.4-.5-2.1-.2-3.4.4-1.3 3.2-1.5 3.2-3.4 0-2.2-2.3-2.7-3.5-4.1-.8-.9-.7-2.2-.8-3.3v-4.5c.3-6.5-5.7-12.3-5.7-12.3-.6-.5-1.6-1-2.3-1.4-.7-.4-1.5-.8-2.3-1.1-1.5-.6-3.1-1-4.6-1.3-4.4-.8-9.1-.3-13.2 1.3-.9.3-1.7.7-2.6 1.2-.8.4-1.6.9-2.3 1.4-.7.5-1.3 1-1.8 1.5.5 1.8 1.4 3.4 2.7 4.8.9.9 1.9 1.7 3 2.4l1.3.7C38.6 61.7 47.5 66 47.5 66c-2.2 7.8 6.2 9.4 6.2 9.4-.5 3.9 3.5 4.8 3.5 4.8-11.1.7-7.8 10.9-7.1 13 3.5 0 6-.1 6.1-.2.2-.2 0-.5 0-.5z" class="g3_3" display="block" fill="#961c3c"/><path d="M56.2 92.5c-1-2.3.4-6.7 1.6-8.3 1.2-1.6 4.3-1.4 4.4-1.5.2 0 5 0 5.8-1.2.8-1.3-.1-2.6-.1-2.6s-1-1.4.2-2.3c1.3-.8 1.3-1 1.4-1.6.1-.6-.9-1.2-.9-1.3 0-.2 1.3-.5 1.3-.9.1-.4-.5-2.1-.2-3.4.4-1.3 3.2-1.5 3.2-3.4 0-2.2-2.3-2.7-3.5-4.1-.8-.9-.7-2.2-.8-3.3v-4.5c.3-6.5-5.7-12.3-5.7-12.3-.6-.5-1.6-1-2.3-1.4-.7-.4-1.5-.8-2.3-1.1-1.5-.6-3.1-1-4.6-1.3-4.4-.8-9.1-.3-13.2 1.3-.9.3-1.7.7-2.6 1.2-.8.4-1.6.9-2.3 1.4-.7.5-1.3 1-1.8 1.5.5 1.8 1.4 3.4 2.7 4.8.9.9 1.9 1.7 3 2.4l1.3.7C38.6 61.7 47.5 66 47.5 66c-2.2 7.8 6.2 9.4 6.2 9.4-.5 3.9 3.5 4.8 3.5 4.8-11.1.7-7.8 10.9-7.1 13 3.5 0 6-.1 6.1-.2.2-.2 0-.5 0-.5z" class="g12_3" display="block" fill="none" stroke="#961c3c"/></svg>