<svg xmlns="http://www.w3.org/2000/svg" x="0" y="0" width="713" height="336" version="1.1" style="margin-left:auto;margin-right:auto" id="svg2" display="block"><defs id="defs4"><style type="text/css" id="style6">.g4_1{fill:#961c3c}.g5_1{fill:#fff}.g2_1{fill:#ee3b34}.g6_1{fill:none;stroke:#961c3c;stroke-width:3;stroke-linecap:butt;stroke-linejoin:miter}</style></defs><path d="M0 0v336h713V0z" fill="#FFF" stroke="none" id="path8"/><path d="M705.6 318.2c0 5.7-5.2 10.3-11.6 10.3H18c-6.4 0-11.5-4.6-11.5-10.3V17.3C6.5 11.6 11.6 7 18 7h676c6.4 0 11.6 4.6 11.6 10.3v300.9z" id="path10" fill="none" stroke="#961c3c" stroke-width="4" stroke-linecap="butt" stroke-linejoin="miter"/><path d="M446.6 171.1c0-34 16.4-64.1 41.7-83-17.2-12.8-38.6-20.4-61.7-20.4-57 0-103.3 46.3-103.3 103.4 0 57 46.3 103.3 103.3 103.3 23.1 0 44.5-7.6 61.7-20.4-25.3-18.8-41.7-49-41.7-82.9z" class="g2_1" id="path12"/><path d="M549.9 67.7c-23.1 0-44.4 7.6-61.6 20.4 25.3 18.9 41.7 49 41.7 83 0 33.9-16.4 64.1-41.7 82.9 17.2 12.8 38.5 20.4 61.6 20.4 57.1 0 103.3-46.3 103.3-103.3 0-57.1-46.2-103.4-103.3-103.4z" id="path14" fill="#85cdd4"/><path d="M530 171.1c0-34-16.4-64.1-41.7-83-25.3 18.9-41.7 49-41.7 83 0 33.9 16.4 64.1 41.7 82.9 25.3-18.8 41.7-49 41.7-82.9z" class="g4_1" id="path16"/><path d="M411.7 171.3c0 .7-.4 1.1-1 1.1H404c-.6 0-1.1-.4-1.1-1.1v-28.1c0-.7.5-1.1 1.1-1.1h6.7c.6 0 1 .4 1 1.1z" class="g5_1" id="path18"/><path d="M448.7 181.1c.7 0 1.1.5 1.1 1.1v6.6c0 .7-.4 1.1-1.1 1.1H404c-.6 0-1.1-.4-1.1-1.1v-6.6c0-.6.5-1.1 1.1-1.1z" class="g5_1" id="path20"/><path d="M423 142.1h6.5s.8 0 1.1.5l10.6 16.3v-16.3c0-.3.4-.5 1-.5h6.7c.6 0 1 .2 1 .5v29.2c0 .4-.4.6-1 .6h-6.2s-.8 0-1.2-.6l-10.9-14.7v14.7c0 .4-.4.6-1 .6H423c-.7 0-1.1-.2-1.1-.6v-29.2c0-.3.4-.5 1.1-.5z" class="g5_1" id="path22"/><path d="M468.8 168.4v33.7c0 .6-.4 1.1-1 1.1h-6.6c-.7 0-1.1-.5-1.1-1.1v-58.9c0-.7.4-1.1 1.1-1.1h6.3s.9 0 1.3 1.1l10.6 29.2 10.6-29.2c.4-1.1 1.3-1.1 1.3-1.1h6.4c.6 0 1 .4 1 1.1v58.9c0 .6-.4 1.1-1 1.1H491c-.6 0-1-.5-1-1.1v-33.7l-10.6 29.4z" class="g5_1" id="path24"/><path d="M518.8 185.6h6.5l-3.3-24.1zm6.8-43.5s1 0 1.1 1.1l10.2 58.9c.1 1.1-.6 1.1-.6 1.1H529s-.8 0-.9-1.1l-1.4-8.2h-9.3l-1.4 8.2c-.1 1.1-.9 1.1-.9 1.1h-7.2s-.8 0-.6-1.1l10.1-58.9c.1-1.1 1.1-1.1 1.1-1.1z" class="g5_1" id="path26"/><path d="M564.1 152.6c0-1.2-1-2.2-2.2-2.2h-7.7v20.3h7.7c1.2 0 2.2-1 2.2-2.2zm-18.7-9.4c0-.7.4-1.1 1.1-1.1H564c4.8 0 8.9 4 8.9 8.9v18.7c0 5-4.1 8.9-8.9 8.9h-9.8v23.5c0 .6-.5 1.1-1.1 1.1h-6.6c-.7 0-1.1-.5-1.1-1.1z" class="g5_1" id="path28"/><path d="M61.8 61.6c0 .3-.2.4-.4.4h-2.8c-.3 0-.4-.1-.4-.4V49.8c0-.3.1-.5.4-.5h2.8c.2 0 .4.2.4.5z" class="g4_1" id="path30"/><path d="M77.3 65.7c.3 0 .5.2.5.4v2.8c0 .3-.2.4-.5.4H58.6c-.3 0-.4-.1-.4-.4v-2.8c0-.2.1-.4.4-.4z" class="g2_1" id="path32"/><path d="M66.6 49.3h2.7s.3 0 .5.2l4.4 6.9v-6.9c0-.1.2-.2.4-.2h2.8c.3 0 .5.1.5.2v12.3c0 .1-.2.2-.5.2h-2.6s-.3 0-.5-.2l-4.5-6.2v6.2c0 .1-.2.2-.5.2h-2.7c-.3 0-.5-.1-.5-.2V49.5c0-.1.2-.2.5-.2z" class="g4_1" id="path34"/><path d="M85.8 60.3v14.1c0 .3-.2.5-.4.5h-2.8c-.3 0-.5-.2-.5-.5V49.8c0-.3.2-.5.5-.5h2.6s.4 0 .6.5L90.2 62l4.5-12.2c.1-.5.5-.5.5-.5h2.7c.2 0 .4.2.4.5v24.6c0 .3-.2.5-.4.5h-2.8c-.3 0-.5-.2-.5-.5V60.3l-4.4 12.4z" class="g4_1" id="path36"/><path d="M106.7 67.5h2.8l-1.4-10.1zm2.9-18.2s.4 0 .4.5l4.3 24.6c.1.5-.3.5-.3.5h-3s-.3 0-.4-.5L110 71h-3.9l-.6 3.4c0 .5-.3.5-.3.5h-3.1s-.3 0-.2-.5l4.2-24.6c.1-.5.5-.5.5-.5z" class="g4_1" id="path38"/><path d="M125.7 53.7c0-.5-.4-.9-.9-.9h-3.3v8.5h3.3c.5 0 .9-.4.9-.9zm-7.8-3.9c0-.3.2-.5.4-.5h7.4c2 0 3.7 1.7 3.7 3.7v7.9c0 2.1-1.7 3.7-3.7 3.7h-4.2v9.8c0 .3-.1.5-.4.5h-2.8c-.2 0-.4-.2-.4-.5z" class="g4_1" id="path40"/><path d="M363.5 158.5h-98" class="g6_1" id="path42"/><path d="M363.5 156.4c1.4 0 2.5 1.1 2.5 2.5 0 1.3-1.1 2.5-2.5 2.5s-2.5-1.2-2.5-2.5c0-1.4 1.1-2.5 2.5-2.5z" class="g4_1" id="path44"/><path d="M554.5 243.5v15h-290" class="g6_1" id="path58"/><path d="M552.1 243.3c0-1.4 1.1-2.5 2.5-2.5s2.5 1.1 2.5 2.5c0 1.3-1.1 2.5-2.5 2.5s-2.5-1.2-2.5-2.5z" class="g4_1" id="path60"/><text x="138" y="74" id="text62" dx="0,0,0,0,0,0,0,0" style="-inkscape-font-specification:'EB Garamond'" font-family="EB Garamond" font-weight="400" font-style="normal" font-stretch="normal" font-variant="normal" font-size="34.55" fill="#961c3c"><tspan style="-inkscape-font-specification:Helvetica" id="tspan3398" font-family="Helvetica" font-weight="400" font-style="normal" font-stretch="normal" font-variant="normal" font-size="22.5" fill="#961c3c" fill-opacity="1">combines</tspan></text><style type="text/css" id="style64">@font-face{font-family:NXBSCU-Clarke-Medium1;src:url(1/fonts/NXBSCU-Clarke-Medium.woff) format(&quot;woff&quot;)}@font-face{font-family:EJCKZY-Clarke1;src:url(1/fonts/EJCKZY-Clarke.woff) format(&quot;woff&quot;)}</style><text xml:space="preserve" style="line-height:125%;-inkscape-font-specification:Helvetica;text-align:end" x="262.915" y="130.599" id="text4244" font-style="normal" font-variant="normal" font-weight="400" font-stretch="normal" font-size="17.5" font-family="Helvetica" letter-spacing="0" word-spacing="0" text-anchor="end" fill="#000" fill-opacity="1" stroke="none" stroke-width="1" stroke-linecap="butt" stroke-linejoin="miter" stroke-opacity="1"><tspan id="tspan4246" x="262.915" y="130.599" fill="#ee3b34" fill-opacity="1">Long range transport</tspan><tspan x="262.915" y="152.474" id="tspan4248" fill="#ee3b34" fill-opacity="1">Secondary pollutant formation</tspan><tspan x="262.915" y="174.349" id="tspan4250" fill="#ee3b34" fill-opacity="1">Many pollutants</tspan><tspan x="262.915" y="196.224" id="tspan4252" fill="#ee3b34" fill-opacity="1">Many sources</tspan></text><text xml:space="preserve" style="line-height:125%;-inkscape-font-specification:Helvetica;text-align:end" x="261.928" y="251.123" id="text4254" font-style="normal" font-variant="normal" font-weight="400" font-stretch="normal" font-size="17.5" font-family="Helvetica" letter-spacing="0" word-spacing="0" text-anchor="end" fill="#000" fill-opacity="1" stroke="none" stroke-width="1" stroke-linecap="butt" stroke-linejoin="miter" stroke-opacity="1"><tspan id="tspan4256" x="261.928" y="251.123" fill="#85cdd4" fill-opacity="1">High spatial resolution</tspan><tspan x="261.928" y="272.998" id="tspan4258" fill="#85cdd4" fill-opacity="1">Computational efficiency</tspan></text></svg>