<svg xmlns="http://www.w3.org/2000/svg" x="0" y="0" width="667" height="596.867" version="1.1" id="svg2" display="block"><defs id="defs4"><style type="text/css" id="style6">.g4_3{fill:#85cdd4}.g2_3{fill:#ee3b34}.g10_3{fill:none;stroke:#ee3b34}.g10_3,.g11_3{stroke-width:1;stroke-linecap:butt;stroke-linejoin:round}.g11_3,.g13_3,.g14_3,.g5_3{fill:none}.g5_3{stroke-linecap:butt}.g8_3{stroke-linejoin:round}.g8_3,.g9_3{fill:none;stroke-linecap:butt}.g11_3{stroke:#85cdd4}.g5_3,.g8_3{stroke:#ee3b34}.g8_3{stroke-width:2}.g5_3{stroke-width:1;stroke-linejoin:miter}.g13_3,.g14_3,.g9_3{stroke-linejoin:round}.g14_3,.g9_3{stroke:#85cdd4}.g9_3{stroke-width:2}.g13_3,.g14_3{stroke-width:14;stroke-linecap:round}.g13_3{stroke:#961c3c}.g3_3{fill:#961c3c}.s11_3,.s2_3,.s3_3,.s5_3{font-size:14.79px;font-family:BXJRPT-Clarke-Medium3;fill:#fff}.s2_3,.s3_3,.s5_3{font-size:20.75px;fill:#ee3b34}.s3_3,.s5_3{fill:#85cdd4}.s5_3{font-size:47.04px}</style></defs><path d="M5 394.162h660v-279H2v-103h42" id="path10" fill="none" stroke="#ee3b34" stroke-width="4" stroke-linecap="butt" stroke-linejoin="round" stroke-miterlimit="4"/><path d="M44.8 16.362c1.9 0 3.4-1.5 3.4-3.4s-1.5-3.5-3.4-3.5-3.5 1.6-3.5 3.5 1.6 3.4 3.5 3.4z" class="g2_3" id="path14" fill="#ee3b34"/><path d="M500.8 394.862c0 34.2 27.8 61.9 62 61.9s61.9-27.7 61.9-61.9-27.7-62-61.9-62-62 27.7-62 62z" class="g3_3" id="path28" fill="#961c3c"/><path d="M500.9 115.162c0 34.3 27.8 62 62 62s61.9-27.7 61.9-61.9c0-34.3-27.7-62-61.9-62s-62 27.7-62 61.9z" class="g4_3" id="path30" fill="#85cdd4"/><path d="M278.2 394.862c0 34.2 27.7 61.9 61.9 61.9s62-27.7 62-61.9-27.8-62-62-62-61.9 27.7-61.9 62z" class="g2_3" id="path32" fill="#ee3b34"/><path d="M278.2 394.862c0 34.2 27.7 61.9 61.9 61.9s62-27.7 62-61.9-27.8-62-62-62-61.9 27.7-61.9 62z" class="g5_3" id="path34" fill="none" stroke="#ee3b34" stroke-width="1" stroke-linecap="butt" stroke-linejoin="miter"/><path d="M277.4 115.362c0 34.2 27.7 62 61.9 62s62-27.8 62-62-27.7-61.9-62-62c-34.2 0-61.9 27.8-61.9 62z" class="g2_3" id="path36" fill="#ee3b34"/><path d="M277.4 115.362c0 34.2 27.7 62 61.9 62s62-27.8 62-62-27.7-61.9-62-62c-34.2 0-61.9 27.8-61.9 62z" class="g5_3" id="path38" fill="none" stroke="#ee3b34" stroke-width="1" stroke-linecap="butt" stroke-linejoin="miter"/><path d="M61.3 395.162c0 34.2 27.8 62 62 62s61.9-27.8 61.9-62-27.7-61.9-61.9-61.9-62 27.7-62 61.9z" class="g4_3" id="path40" fill="#85cdd4"/><path d="M61.1 115.362c0 34.2 27.7 62 61.9 62 34.3 0 62-27.8 62-62s-27.7-62-62-62c-34.2 0-61.9 27.8-61.9 62z" class="g3_3" id="path42" fill="#961c3c"/><path d="M552.6 363.262c-7.3-2.7-17.6-1-22.8 5-5.4 6.1-5.6 15.3-3.4 22.7 4.4 14.4 17.9 27 27.6 38 2.7 3.1 5.7 5.7 8.7 8.4l.1-66.8c0-3.3-7.8-6.4-10.2-7.3z" class="g2_3" id="path44" fill="#ee3b34"/><path d="M552.6 363.262c-7.3-2.7-17.6-1-22.8 5-5.4 6.1-5.6 15.3-3.4 22.7 4.4 14.4 17.9 27 27.6 38 2.7 3.1 5.7 5.7 8.7 8.4l.1-66.8c0-3.3-7.8-6.4-10.2-7.3z" class="g5_3" id="path46" fill="none" stroke="#ee3b34" stroke-width="1" stroke-linecap="butt" stroke-linejoin="miter"/><path d="M587.9 362.962c-4.8-1.7-10.6-1.7-15.3.2-2.3.9-9.8 4-9.8 7.2 0 .3.4 67 .4 67 2.9-2.7 5.7-5.5 8.4-8.6 9.7-11.1 23.2-23.6 27.6-38 3.3-11 .5-23.6-11.3-27.8z" class="g2_3" id="path48" fill="#ee3b34"/><path d="M587.9 362.962c-4.8-1.7-10.6-1.7-15.3.2-2.3.9-9.8 4-9.8 7.2 0 .3.4 67 .4 67 2.9-2.7 5.7-5.5 8.4-8.6 9.7-11.1 23.2-23.6 27.6-38 3.3-11 .5-23.6-11.3-27.8z" class="g5_3" id="path50" fill="none" stroke="#ee3b34" stroke-width="1" stroke-linecap="butt" stroke-linejoin="miter"/><path d="M533.9 392.962h15.7l4.8-13.3 6 22.7 6.1-14.3 4.8 7.3h19.5" id="path52" fill="none" stroke="#85cdd4" stroke-width="4" stroke-linecap="round" stroke-linejoin="round"/><path d="M150.3 429.662c-1.3-2.8.4-8.4 2-10.4 1.5-2 5.3-1.8 5.5-1.8.2-.1 6.4-.1 7.4-1.7.9-1.5-.2-3.2-.2-3.2s-1.3-1.7.3-2.8c1.6-1.1 1.7-1.3 1.8-2.1.1-.7-1.1-1.5-1.2-1.7 0-.1 1.6-.6 1.7-1.1 0-.5-.7-2.7-.3-4.3.5-1.5 4-1.8 4-4.2.1-2.8-2.9-3.4-4.4-5.2-1-1.1-.9-2.7-.9-4.2-.2-1.9-.1-3.8 0-5.7.3-8.2-7.3-15.4-7.3-15.4-.7-.7-2-1.3-2.9-1.8-.9-.5-1.9-1-2.9-1.4-1.9-.8-3.9-1.3-5.8-1.7-5.6-1-11.4-.4-16.7 1.7-1.1.4-2.2.9-3.2 1.5-1 .5-2 1.1-3 1.8-.3.2-.6.4-.9.7 1.8 1.4 3.4 3.1 4.8 5.1 2.8 4.1 3.8 9.4 3.1 14.2-1.6 10.2-4.9 11.1-7 15.7-2 4.6 0 16.5 0 16.6 0 .1 2 10.8 2.5 11.3.6.5 23.6.1 23.6.1z" class="g2_3" id="path54" fill="#ee3b34"/><path d="M96.3 429.662c1.3-2.8-.5-8.4-2-10.4s-5.4-1.8-5.6-1.8c-.2-.1-6.3-.1-7.3-1.7-.9-1.5.2-3.2.2-3.2s1.2-1.7-.3-2.8c-1.6-1.1-1.7-1.3-1.8-2.1-.1-.7 1.1-1.5 1.2-1.7 0-.1-1.6-.6-1.7-1.1-.1-.5.7-2.7.2-4.3-.4-1.5-3.9-1.8-3.9-4.2-.1-2.8 2.8-3.4 4.4-5.2.9-1.1.8-2.7.9-4.2.1-1.9.1-3.8 0-5.7-.3-8.2 7.3-15.4 7.3-15.4.7-.7 1.9-1.3 2.9-1.8.9-.5 1.9-1 2.9-1.4 1.9-.8 3.8-1.3 5.8-1.7 5.5-1 11.4-.4 16.7 1.7 1.1.4 2.1.9 3.2 1.5 1 .5 2 1.1 3 1.8.3.2.6.4.9.7-1.8 1.4-3.5 3.1-4.8 5.1-2.8 4.1-3.9 9.4-3.1 14.2 1.6 10.2 4.9 11.1 6.9 15.7 2.1 4.6.1 16.5.1 16.6-.1.1-2 10.8-2.5 11.3-.6.5-23.6.1-23.6.1z" class="g3_3" id="path56" fill="#961c3c"/><path d="M91.4 387.962c0 1.1-.9 2-2 2-1.2 0-2.1-.9-2.1-2 0-1.2.9-2.1 2.1-2.1 1.1 0 2 .9 2 2.1z" class="g2_3" id="path58" fill="#ee3b34"/><path d="M160.2 387.962c0 1.1-.9 2-2 2s-2-.9-2-2c0-1.2.9-2.1 2-2.1s2 .9 2 2.1z" class="g3_3" id="path60" fill="#961c3c"/><g id="g4685" transform="translate(-1.97 .522)"><g id="g4491"><text x="321.083" y="419.552" dx="0" id="text62" font-size="76.59" font-family="BXJRPT-Clarke-Medium3" fill="#961c3c"><tspan id="tspan4485" style="-inkscape-font-specification:Helvetica" font-style="normal" font-variant="normal" font-weight="400" font-stretch="normal" font-family="Helvetica">$</tspan></text><text x="363.881" y="409.805" dx="0" class="s5_3" id="text64" font-size="47.04" font-family="BXJRPT-Clarke-Medium3" fill="#85cdd4"><tspan id="tspan4487" style="-inkscape-font-specification:Helvetica" font-style="normal" font-variant="normal" font-weight="400" font-stretch="normal" font-family="Helvetica">$</tspan></text><text x="294.518" y="409.805" dx="0" class="s5_3" id="text66" font-size="47.04" font-family="BXJRPT-Clarke-Medium3" fill="#85cdd4"><tspan id="tspan4489" style="-inkscape-font-specification:Helvetica" font-style="normal" font-variant="normal" font-weight="400" font-stretch="normal" font-family="Helvetica">$</tspan></text></g></g><path d="M162.5 105.462v-20.2s-2-2-5.4 0v19z" class="g2_3" id="path86" fill="#ee3b34"/><path d="M162.5 105.462v-20.2s-2-2-5.4 0v19l5.4 1.2z" class="g8_3" id="path88" fill="none" stroke="#ee3b34" stroke-width="2" stroke-linecap="butt" stroke-linejoin="round"/><path d="M151.6 103.062v-22.9s-2-2.2-5.4 0v21.5z" class="g2_3" id="path90" fill="#ee3b34"/><path d="M151.6 103.062v-22.9s-2-2.2-5.4 0v21.5l5.4 1.4z" class="g8_3" id="path92" fill="none" stroke="#ee3b34" stroke-width="2" stroke-linecap="butt" stroke-linejoin="round"/><path d="M135.1 102.062v-26.1s1.9-2.4 5.4 0v24.5z" class="g4_3" id="path94" fill="#85cdd4"/><path d="M135.1 102.062v-26.1s1.9-2.4 5.4 0v24.5l-5.4 1.6z" class="g9_3" id="path96" fill="none" stroke="#85cdd4" stroke-width="2" stroke-linecap="butt" stroke-linejoin="round"/><path d="M127.5 105.062l14.3-4.2v22.9l-28-1.8v-7.9l13.5-2.8z" class="g4_3" id="path98" fill="#85cdd4"/><path d="M127.5 105.062l14.3-4.2v22.9l-28-1.8v-7.9l13.5-2.8.2-6.2z" class="g9_3" id="path100" fill="none" stroke="#85cdd4" stroke-width="2" stroke-linecap="butt" stroke-linejoin="round"/><path d="M160.5 105.062l-17.7-4.2v22.9l28-1.8v-13z" class="g2_3" id="path102" fill="#ee3b34"/><path d="M160.5 105.062l-17.7-4.2v22.9l28-1.8v-13l-10.3-3.9z" class="g8_3" id="path104" fill="none" stroke="#ee3b34" stroke-width="2" stroke-linecap="butt" stroke-linejoin="round"/><path d="M122 133.862c1.4.4 2.7.9 3.9 1.7 1.4.9 8.4 8 8.4 8s9.7 3 10.3 4.7c.5 1.7.4 2.3.4 2.3s1.1-.1.9 1.7c-.3 1.7-.8 4.5-2 5.1l-3.3-.5c-.2 0-.4 0-.7-.1-.6-.1-1.3-.2-1.9-.3-1.1-.1-2.1-.3-3.1-.4-1.3-.2-2.5-.4-3.7-.5-1.5-.3-3-.5-4.4-.7-1.6-.2-3.1-.4-4.6-.7-1.5-.2-3.1-.4-4.6-.6-1.5-.3-3-.5-4.6-.7-1.2-.2-2.4-.3-3.6-.5-2.4-.4-4.8-.7-7.2-1.1l-2.4-.6c-.9-.2-1.8-.5-2.7-.7-1.5-.3-3-.7-4.4-1.1-.3 0-.7 0-.9-.2 0 0-1.9-1.2-1.5-3.7.3-2.5 1.3-3.2 1.3-3.2s-.2-2.6 1.2-3.4c0 0 2.6-5.5 4.8-7.2 0 0 1.7-.3 4.8.1 2.2.4 4.6.4 6.9.6 3 .2 6 .6 9 1.2 1.2.2 2.3.4 3.5.7.1.1.1.1.2.1z" class="g2_3" id="path106" fill="#ee3b34"/><path d="M122 133.862c1.4.4 2.7.9 3.9 1.7 1.4.9 8.4 8 8.4 8s9.7 3 10.3 4.7c.5 1.7.4 2.3.4 2.3s1.1-.1.9 1.7c-.3 1.7-.8 4.5-2 5.1l-3.3-.5c-.2 0-.4 0-.7-.1-.6-.1-1.3-.2-1.9-.3-1.1-.1-2.1-.3-3.1-.4-1.3-.2-2.5-.4-3.7-.5-1.5-.3-3-.5-4.4-.7-1.6-.2-3.1-.4-4.6-.7-1.5-.2-3.1-.4-4.6-.6-1.5-.3-3-.5-4.6-.7-1.2-.2-2.4-.3-3.6-.5-2.4-.4-4.8-.7-7.2-1.1l-2.4-.6c-.9-.2-1.8-.5-2.7-.7-1.5-.3-3-.7-4.4-1.1-.3 0-.7 0-.9-.2 0 0-1.9-1.2-1.5-3.7.3-2.5 1.3-3.2 1.3-3.2s-.2-2.6 1.2-3.4c0 0 2.6-5.5 4.8-7.2 0 0 1.7-.3 4.8.1 2.2.4 4.6.4 6.9.6 3 .2 6 .6 9 1.2 1.2.2 2.3.4 3.5.7.1.1.1.1.2.1z" class="g10_3" id="path108" fill="none" stroke="#ee3b34" stroke-width="1" stroke-linecap="butt" stroke-linejoin="round"/><path d="M106 151.862c-.4 2.6-2.9 4.5-5.5 4.1-2.7-.4-4.5-2.9-4.1-5.5.3-2.7 2.8-4.5 5.5-4.1 2.6.4 4.5 2.8 4.1 5.5z" class="g4_3" id="path110" fill="#85cdd4"/><path d="M106 151.862c-.4 2.6-2.9 4.5-5.5 4.1-2.7-.4-4.5-2.9-4.1-5.5.3-2.7 2.8-4.5 5.5-4.1 2.6.4 4.5 2.8 4.1 5.5z" class="g11_3" id="path112" fill="none" stroke="#85cdd4" stroke-width="1" stroke-linecap="butt" stroke-linejoin="round"/><path d="M137.1 156.362c-.4 2.7-2.9 4.5-5.6 4.1-2.6-.4-4.5-2.8-4.1-5.5.4-2.6 2.9-4.5 5.5-4.1 2.7.4 4.5 2.9 4.2 5.5z" class="g4_3" id="path114" fill="#85cdd4"/><path d="M137.1 156.362c-.4 2.7-2.9 4.5-5.6 4.1-2.6-.4-4.5-2.8-4.1-5.5.4-2.6 2.9-4.5 5.5-4.1 2.7.4 4.5 2.9 4.2 5.5z" class="g11_3" id="path116" fill="none" stroke="#85cdd4" stroke-width="1" stroke-linecap="butt" stroke-linejoin="round"/><path d="M89.3 118.162s11.4 4.6 17.2-10.1z" class="g2_3" id="path118" fill="#ee3b34"/><path d="M89.3 118.162s11.4 4.6 17.2-10.1l-17.2 10.1z" class="g10_3" id="path120" fill="none" stroke="#ee3b34" stroke-width="1" stroke-linecap="butt" stroke-linejoin="round"/><path d="M89.3 118.262s6.9-15.4 17.2-10.3z" class="g2_3" id="path122" fill="#ee3b34"/><path d="M89.3 118.262s6.9-15.4 17.2-10.3l-17.2 10.3z" class="g10_3" id="path124" fill="none" stroke="#ee3b34" stroke-width="1" stroke-linecap="butt" stroke-linejoin="round"/><path d="M92.2 104.962s9.1 3.6 13.8-8.2z" class="g2_3" id="path126" fill="#ee3b34"/><path d="M92.2 104.962s9.1 3.6 13.8-8.2l-13.8 8.2z" class="g10_3" id="path128" fill="none" stroke="#ee3b34" stroke-width="1" stroke-linecap="butt" stroke-linejoin="round"/><path d="M92.2 104.962s5.5-12.3 13.8-8.2z" class="g2_3" id="path130" fill="#ee3b34"/><path d="M92.2 104.962s5.5-12.3 13.8-8.2l-13.8 8.2z" class="g10_3" id="path132" fill="none" stroke="#ee3b34" stroke-width="1" stroke-linecap="butt" stroke-linejoin="round"/><path d="M94.7 93.962s6.6 2.6 9.9-5.8z" class="g2_3" id="path134" fill="#ee3b34"/><path d="M94.7 93.962s6.6 2.6 9.9-5.8l-9.9 5.8z" class="g10_3" id="path136" fill="none" stroke="#ee3b34" stroke-width="1" stroke-linecap="butt" stroke-linejoin="round"/><path d="M94.7 94.062s4-8.9 9.9-5.9z" class="g2_3" id="path138" fill="#ee3b34"/><path d="M94.7 94.062s4-8.9 9.9-5.9l-9.9 5.9z" class="g10_3" id="path140" fill="none" stroke="#ee3b34" stroke-width="1" stroke-linecap="butt" stroke-linejoin="round"/><path d="M95.3 88.862s6-5 2.9-11.5z" class="g2_3" id="path142" fill="#ee3b34"/><path d="M95.3 88.862s6-5 2.9-11.5l-2.9 11.5z" class="g10_3" id="path144" fill="none" stroke="#ee3b34" stroke-width="1" stroke-linecap="butt" stroke-linejoin="round"/><path d="M95.3 88.862s-2.9-7.2 2.9-11.5z" class="g4_3" id="path146" fill="#85cdd4"/><path d="M95.3 88.862s-2.9-7.2 2.9-11.5l-2.9 11.5z" class="g11_3" id="path148" fill="none" stroke="#85cdd4" stroke-width="1" stroke-linecap="butt" stroke-linejoin="round"/><path d="M86 117.462s-12.2-1.5-10.2-17.2z" class="g4_3" id="path150" fill="#85cdd4"/><path d="M86 117.462s-12.2-1.5-10.2-17.2l10.2 17.2z" class="g11_3" id="path152" fill="none" stroke="#85cdd4" stroke-width="1" stroke-linecap="butt" stroke-linejoin="round"/><path d="M85.9 117.562s1.5-16.8-10-17.3z" class="g4_3" id="path154" fill="#85cdd4"/><path d="M85.9 117.562s1.5-16.8-10-17.3l10 17.3z" class="g11_3" id="path156" fill="none" stroke="#85cdd4" stroke-width="1" stroke-linecap="butt" stroke-linejoin="round"/><path d="M89.9 104.462s-9.8-1.2-8.2-13.7z" class="g4_3" id="path158" fill="#85cdd4"/><path d="M89.9 104.462s-9.8-1.2-8.2-13.7l8.2 13.7z" class="g11_3" id="path160" fill="none" stroke="#85cdd4" stroke-width="1" stroke-linecap="butt" stroke-linejoin="round"/><path d="M89.8 104.562s1.2-13.5-8-13.9z" class="g4_3" id="path162" fill="#85cdd4"/><path d="M89.8 104.562s1.2-13.5-8-13.9l8 13.9z" class="g11_3" id="path164" fill="none" stroke="#85cdd4" stroke-width="1" stroke-linecap="butt" stroke-linejoin="round"/><path d="M93 93.762s-7-.9-5.9-9.9z" class="g4_3" id="path166" fill="#85cdd4"/><path d="M93 93.762s-7-.9-5.9-9.9l5.9 9.9z" class="g11_3" id="path168" fill="none" stroke="#85cdd4" stroke-width="1" stroke-linecap="butt" stroke-linejoin="round"/><path d="M92.9 93.762s.9-9.7-5.7-10z" class="g4_3" id="path170" fill="#85cdd4"/><path d="M92.9 93.762s.9-9.7-5.7-10l5.7 10z" class="g11_3" id="path172" fill="none" stroke="#85cdd4" stroke-width="1" stroke-linecap="butt" stroke-linejoin="round"/><path d="M590 91.062c-.4-.1-3.6-1-3.6-.3.1-1-1.1-2.8-1.1-2.8 1.5-9.8-9.2-10.9-9.2-10.9.3 0 .7-2.2.7-2.4.1-1.4-.4-3.3-1.1-4.5-2.9-5.2-10.8-3-11.7 2.5-.3 1.6-.1 3.2.2 4.8 0 .2.3 1.9.6 2-2.2-.6-5.1 1.4-5.1 1.4-.1.1-2.4-1.2-2.6-1.3-1.7-.7-3.5-1.1-5.3-1.4-4.8-.9-10.4-.3-13.9 3.4-3.8 3.9-4.9 10-3.2 15.1.5-.5 1.1-1 1.8-1.5s1.5-1 2.3-1.4c.9-.5 1.7-.9 2.6-1.2 4.1-1.6 8.8-2.1 13.2-1.3 1.5.3 3.1.7 4.6 1.3.8.3 1.6.7 2.3 1.1.7.4 1.7.9 2.3 1.4 0 0 6 5.8 5.7 12.3v4.5c.1 1.1 0 2.4.8 3.3 1.2 1.4 3.5 1.9 3.5 4.1 0 1.9-2.8 2.1-3.2 3.4-.3 1.3.3 3 .2 3.4 0 .4-1.3.7-1.3.9 0 .1 1 .7.9 1.3-.1.6-.1.8-1.4 1.6-1.2.9-.2 2.3-.2 2.3s.9 1.3.1 2.6c-.8 1.2-5.6 1.2-5.8 1.2-.1.1-3.2-.1-4.4 1.5-1.2 1.6-2.6 6-1.6 8.3 0 0 .2.3 0 .5-.1.1-2.6.2-6.1.2l.2.4c-4.6 2.5-2.5 7.3-2.5 7.3-5.2 1.9-2.6 9.2 2 8.4 4.7-.8 3.6-5.2 3.6-5.2 1.1.6 3 .3 3 .3 6.1-2.3 3.6-7.3 3.6-7.3.8-.4 1.4-1.3 1.4-1.3 2.3 2 5.4 2.2 7.9.5 1.9-1.2 2.7-3.2 2.8-5.3.1-.4.3-2.4-.1-2.7 4.1 2.8 9.5 1.1 11-3.7.8-2.4.2-5.2-1.1-7.4-.1-.2-2.4-2.8-2.4-2.8 1.3-2.5-.3-5.5-.3-5.5.3.4 2.4 0 2.8 0 4.9-.9 8-4.8 7-9.9-.1-.4-.8-4.3-1.2-4.2 2.6-.6 5.4-2.2 6.6-4.8.5-.9.7-2.1.8-3.1.2-4.2-2.1-7.8-6.1-9.1z" class="g2_3" id="path318" fill="#ee3b34"/><path d="M557.1 145.762c-1-2.3.4-6.7 1.6-8.3 1.2-1.6 4.3-1.4 4.4-1.5.2 0 5 0 5.8-1.2.8-1.3-.1-2.6-.1-2.6s-1-1.4.2-2.3c1.3-.8 1.3-1 1.4-1.6.1-.6-.9-1.2-.9-1.3 0-.2 1.3-.5 1.3-.9.1-.4-.5-2.1-.2-3.4.4-1.3 3.2-1.5 3.2-3.4 0-2.2-2.3-2.7-3.5-4.1-.8-.9-.7-2.2-.8-3.3v-4.5c.3-6.5-5.7-12.3-5.7-12.3-.6-.5-1.6-1-2.3-1.4-.7-.4-1.5-.8-2.3-1.1-1.5-.6-3.1-1-4.6-1.3-4.4-.8-9.1-.3-13.2 1.3-.9.3-1.7.7-2.6 1.2-.8.4-1.6.9-2.3 1.4-.7.5-1.3 1-1.8 1.5.5 1.8 1.4 3.4 2.7 4.8.9.9 1.9 1.7 3 2.4l1.3.7c-2.2 10.4 6.7 14.7 6.7 14.7-2.2 7.8 6.2 9.4 6.2 9.4-.5 3.9 3.5 4.8 3.5 4.8-11.1.7-7.8 10.9-7.1 13 3.5 0 6-.1 6.1-.2.2-.2 0-.5 0-.5z" class="g3_3" id="path320" fill="#961c3c"/><path d="M557.1 145.762c-1-2.3.4-6.7 1.6-8.3 1.2-1.6 4.3-1.4 4.4-1.5.2 0 5 0 5.8-1.2.8-1.3-.1-2.6-.1-2.6s-1-1.4.2-2.3c1.3-.8 1.3-1 1.4-1.6.1-.6-.9-1.2-.9-1.3 0-.2 1.3-.5 1.3-.9.1-.4-.5-2.1-.2-3.4.4-1.3 3.2-1.5 3.2-3.4 0-2.2-2.3-2.7-3.5-4.1-.8-.9-.7-2.2-.8-3.3v-4.5c.3-6.5-5.7-12.3-5.7-12.3-.6-.5-1.6-1-2.3-1.4-.7-.4-1.5-.8-2.3-1.1-1.5-.6-3.1-1-4.6-1.3-4.4-.8-9.1-.3-13.2 1.3-.9.3-1.7.7-2.6 1.2-.8.4-1.6.9-2.3 1.4-.7.5-1.3 1-1.8 1.5.5 1.8 1.4 3.4 2.7 4.8.9.9 1.9 1.7 3 2.4l1.3.7c-2.2 10.4 6.7 14.7 6.7 14.7-2.2 7.8 6.2 9.4 6.2 9.4-.5 3.9 3.5 4.8 3.5 4.8-11.1.7-7.8 10.9-7.1 13 3.5 0 6-.1 6.1-.2.2-.2 0-.5 0-.5z" id="path322" fill="none" stroke="#961c3c" stroke-width="1" stroke-linecap="butt" stroke-linejoin="miter"/><path d="M313 115.162v32" class="g13_3" id="path324" fill="none" stroke="#961c3c" stroke-width="14" stroke-linecap="round" stroke-linejoin="round"/><path d="M329 97.162v50" class="g14_3" id="path326" fill="none" stroke="#85cdd4" stroke-width="14" stroke-linecap="round" stroke-linejoin="round"/><path d="M346 131.162v16" class="g13_3" id="path328" fill="none" stroke="#961c3c" stroke-width="14" stroke-linecap="round" stroke-linejoin="round"/><path d="M362 80.162v67" class="g14_3" id="path330" fill="none" stroke="#85cdd4" stroke-width="14" stroke-linecap="round" stroke-linejoin="round"/><path d="M257.506 211.562c0 5.8 4.7 10.5 10.5 10.5s10.5-4.7 10.5-10.5c0-5.9-4.7-10.6-10.5-10.6s-10.5 4.7-10.5 10.6z" class="g2_3" id="path336" fill="#ee3b34"/><text x="288.406" y="218.162" dx="0 0 0 0 0 0 0 0 0 -1 0 0 0 0" class="s2_3" id="text18" font-size="20.75" font-family="BXJRPT-Clarke-Medium3" fill="#ee3b34"><tspan style="-inkscape-font-specification:Helvetica" id="tspan4504" font-style="normal" font-variant="normal" font-weight="400" font-stretch="normal" font-family="Helvetica">concentrations</tspan></text><path d="M257.506 211.562c0 5.8 4.7 10.5 10.5 10.5s10.5-4.7 10.5-10.5c0-5.9-4.7-10.6-10.5-10.6s-10.5 4.7-10.5 10.6z" class="g5_3" id="path338" fill="none" stroke="#ee3b34" stroke-width="1" stroke-linecap="butt" stroke-linejoin="miter"/><text class="s11_3" id="text340" x="263.969" y="216.701" dx="0" font-size="14.79" font-family="BXJRPT-Clarke-Medium3" fill="#fff"><tspan style="-inkscape-font-specification:Helvetica" id="tspan4275" font-style="normal" font-variant="normal" font-weight="400" font-stretch="normal" font-family="Helvetica">2</tspan></text><text x="534.822" y="218.162" class="s3_3" id="text26" font-size="20.75" font-family="BXJRPT-Clarke-Medium3" fill="#85cdd4"><tspan style="-inkscape-font-specification:Helvetica" id="tspan4502" font-style="normal" font-variant="normal" font-weight="400" font-stretch="normal" font-size="21.25" font-family="Helvetica">exposure</tspan></text><path d="M504.322 211.562c0 5.8 4.7 10.5 10.6 10.5 5.8 0 10.5-4.7 10.5-10.5 0-5.9-4.7-10.6-10.5-10.6-5.9 0-10.6 4.7-10.6 10.6z" class="g4_3" id="path342" fill="#85cdd4"/><text dx="0" class="s11_3" id="text344" x="510.903" y="216.549" font-size="14.79" font-family="BXJRPT-Clarke-Medium3" fill="#fff"><tspan style="-inkscape-font-specification:Helvetica" id="tspan4277" font-style="normal" font-variant="normal" font-weight="400" font-stretch="normal" font-family="Helvetica">3</tspan></text><path d="M480.11 490.162c0 5.8 4.7 10.5 10.5 10.5s10.6-4.7 10.6-10.5-4.8-10.6-10.6-10.6-10.5 4.8-10.5 10.6z" class="g3_3" id="path346" fill="#961c3c"/><text x="511.209" y="497.162" dx="0 0 0 0 -1.8 0 0 0 0 0 -0.69999999 -0.40000001 -0.2 -0.2" id="text24" font-size="20.75" font-family="BXJRPT-Clarke-Medium3" fill="#961c3c"><tspan style="-inkscape-font-specification:Helvetica" id="tspan4510" font-style="normal" font-variant="normal" font-weight="400" font-stretch="normal" font-size="21.25" font-family="Helvetica">health impacts</tspan></text><text dx="0" class="s11_3" id="text348" x="486.008" y="495.503" font-size="14.79" font-family="BXJRPT-Clarke-Medium3" fill="#fff"><tspan style="-inkscape-font-specification:Helvetica" id="tspan4271" font-family="Helvetica" font-weight="400" font-style="normal" font-stretch="normal" font-variant="normal">4</tspan></text><path d="M239.028 490.162c0 5.8 4.8 10.5 10.6 10.5s10.5-4.7 10.5-10.5-4.7-10.6-10.5-10.6-10.6 4.8-10.6 10.6z" class="g2_3" id="path350" fill="#ee3b34"/><path d="M239.028 490.162c0 5.8 4.8 10.5 10.6 10.5s10.5-4.7 10.5-10.5-4.7-10.6-10.5-10.6-10.6 4.8-10.6 10.6z" class="g5_3" id="path352" fill="none" stroke="#ee3b34" stroke-width="1" stroke-linecap="butt" stroke-linejoin="miter"/><text x="269.628" y="497.162" dx="0 0 0 0 0 0 0 0 0 0 -0.30000001 0 0 -0.40000001 0" class="s2_3" id="text20" font-size="20.75" font-family="BXJRPT-Clarke-Medium3" fill="#ee3b34"><tspan style="-inkscape-font-specification:Helvetica" id="tspan4508" font-style="normal" font-variant="normal" font-weight="400" font-stretch="normal" font-size="21.25" font-family="Helvetica">economic damage</tspan></text><text class="s11_3" id="text354" x="245.542" y="495.066" dx="0" font-size="14.79" font-family="BXJRPT-Clarke-Medium3" fill="#fff"><tspan style="-inkscape-font-specification:Helvetica" id="tspan4483" font-style="normal" font-variant="normal" font-weight="400" font-stretch="normal" font-family="Helvetica">5</tspan></text><g id="g4499" transform="translate(-7.202)"><text id="text22" class="s3_3" dx="0 0 0 0 0 0 0 0 0 0 0 -1 0 0 0 0 0 -0.2 0 0 0" y="496.162" x="37.227" font-size="20.75" font-family="BXJRPT-Clarke-Medium3" fill="#85cdd4"><tspan id="tspan4506" style="-inkscape-font-specification:Helvetica" font-style="normal" font-variant="normal" font-weight="400" font-stretch="normal" font-size="21.25" font-family="Helvetica">environmental justice</tspan></text><path id="path356" class="g4_3" d="M11.648 490.162c0 5.8 4.8 10.5 10.6 10.5s10.5-4.7 10.5-10.5-4.7-10.6-10.5-10.6-10.6 4.8-10.6 10.6z" fill="#85cdd4"/><text y="495.496" x="17.443" id="text358" class="s11_3" dx="0" font-size="14.79" font-family="BXJRPT-Clarke-Medium3" fill="#fff"><tspan id="tspan4729" style="-inkscape-font-specification:Helvetica" font-style="normal" font-variant="normal" font-weight="400" font-stretch="normal" font-family="Helvetica">6</tspan></text></g><style type="text/css" id="style360">@font-face{font-family:BXJRPT-Clarke-Light3;src:url(3/fonts/BXJRPT-Clarke-Light.woff) format(&quot;woff&quot;)}@font-face{font-family:BXJRPT-Clarke-Medium3;src:url(3/fonts/BXJRPT-Clarke-Medium.woff) format(&quot;woff&quot;)}@font-face{font-family:BXJRPT-ModernicaBook3;src:url(3/fonts/BXJRPT-ModernicaBook.woff) format(&quot;woff&quot;)}</style><text xml:space="preserve" style="line-height:125%;-inkscape-font-specification:Helvetica" x="51.467" y="21.592" id="text4494" font-style="normal" font-variant="normal" font-weight="400" font-stretch="normal" font-size="17.5" font-family="Helvetica" letter-spacing="0" word-spacing="0" fill="#000" fill-opacity="1" stroke="none" stroke-width="1" stroke-linecap="butt" stroke-linejoin="miter" stroke-opacity="1"><tspan id="tspan4496" x="51.467" y="21.592" font-size="30" fill="#85cdd4" fill-opacity="1">InMAP methodology</tspan></text><path d="M62.72 211.562c0 5.8 4.8 10.5 10.6 10.5s10.5-4.7 10.5-10.5c0-5.9-4.7-10.6-10.5-10.6s-10.6 4.7-10.6 10.6z" class="g3_3" id="path332" fill="#961c3c"/><text dx="0" class="s11_3" id="text334" x="69.945" y="216.661" font-size="14.79" font-family="BXJRPT-Clarke-Medium3" fill="#fff"><tspan id="tspan4273" style="-inkscape-font-specification:Helvetica" font-style="normal" font-variant="normal" font-weight="400" font-stretch="normal" font-family="Helvetica">1</tspan></text><text xml:space="preserve" style="line-height:125%;-inkscape-font-specification:Helvetica" x="89.601" y="218.207" id="text4498" font-style="normal" font-variant="normal" font-weight="400" font-stretch="normal" font-size="17.5" font-family="Helvetica" letter-spacing="0" word-spacing="0" fill="#000" fill-opacity="1" stroke="none" stroke-width="1" stroke-linecap="butt" stroke-linejoin="miter" stroke-opacity="1"><tspan id="tspan4500" x="89.601" y="218.207" font-size="21.25" fill="#961c3c" fill-opacity="1">emissions</tspan></text><text xml:space="preserve" style="line-height:125%;-inkscape-font-specification:Helvetica;text-align:start" x="38.041" y="243.079" id="text4347" font-style="normal" font-variant="normal" font-weight="400" font-stretch="normal" font-size="17.5" font-family="Helvetica" letter-spacing="0" word-spacing="0" text-anchor="start" fill="#000" fill-opacity="1" stroke="none" stroke-width="1" stroke-linecap="butt" stroke-linejoin="miter" stroke-opacity="1"><tspan x="38.041" y="243.079" id="tspan4349"><tspan x="38.041" y="243.079" style="text-align:start" id="tspan4351" font-size="15" text-anchor="start">InMAP reads annual total </tspan></tspan><tspan x="61.42" y="261.829" id="tspan4353"><tspan x="61.42" y="261.829" style="text-align:start" id="tspan4355" font-size="15" text-anchor="start">emissions from an </tspan></tspan><tspan x="45.966" y="280.579" id="tspan4357"><tspan x="45.966" y="280.579" style="text-align:start" id="tspan4359" font-size="15" text-anchor="start">arbitrary shapefile and </tspan></tspan><tspan x="53.085" y="299.329" id="tspan4361"><tspan x="53.085" y="299.329" style="text-align:start" id="tspan4363" font-size="15" text-anchor="start">allocates them to the </tspan></tspan><tspan x="85.18" y="318.079" id="tspan4365"><tspan x="85.18" y="318.079" style="text-align:start" id="tspan4367" font-size="15" text-anchor="start">model grid.</tspan></tspan></text><text xml:space="preserve" style="line-height:125%;-inkscape-font-specification:Helvetica;text-align:start" x="256.447" y="244.061" id="text4369" font-style="normal" font-variant="normal" font-weight="400" font-stretch="normal" font-size="17.5" font-family="Helvetica" letter-spacing="0" word-spacing="0" display="block" fill="#000" fill-opacity="1" stroke="none" stroke-width="1" stroke-linecap="butt" stroke-linejoin="miter" stroke-opacity="1" text-anchor="start"><tspan x="258.527" y="244.061" id="tspan4371"><tspan x="256.447" y="244.061" style="text-align:start" id="tspan4373" font-size="15" text-anchor="start">InMAP calculates annual </tspan></tspan><tspan x="426.762" y="300.311" id="tspan4375"><tspan x="253.418" y="262.811" style="text-align:start" id="tspan4377" font-size="15" text-anchor="start">average changes in PM</tspan><tspan x="411.123" y="262.811" style="text-align:start" id="tspan4379" font-size="65%" baseline-shift="sub" text-anchor="start">2.5</tspan></tspan><tspan x="256.037" y="0" id="tspan4383"><tspan x="253.957" y="281.561" style="text-align:start" id="tspan4385" font-size="15" text-anchor="start">concentrations caused by </tspan></tspan><tspan x="272.736" y="0" id="tspan4387"><tspan x="272.736" y="300.311" style="text-align:start" id="tspan4389" font-size="15" text-anchor="start">the input emissions.</tspan></tspan></text><text xml:space="preserve" style="line-height:125%;-inkscape-font-specification:Helvetica;text-align:start" x="420.98" y="244.097" id="text4391" font-style="normal" font-variant="normal" font-weight="400" font-stretch="normal" font-size="17.5" font-family="Helvetica" letter-spacing="0" word-spacing="0" text-anchor="start" display="block" fill="#000" fill-opacity="1" stroke="none" stroke-width="1" stroke-linecap="butt" stroke-linejoin="miter" stroke-opacity="1"><tspan x="479.354" y="244.097" id="tspan4393"><tspan x="475.194" y="244.097" style="text-align:start" id="tspan4395" font-size="15" text-anchor="start">InMAP estimates changes </tspan></tspan><tspan x="584.571" y="300.347" id="tspan4397"><tspan x="478.405" y="262.847" style="text-align:start" id="tspan4399" font-size="15" text-anchor="start">in human PM</tspan><tspan x="566.852" y="262.847" style="text-align:start" id="tspan4401" font-size="65%" baseline-shift="sub" text-anchor="start">2.5</tspan><tspan x="580.411" y="262.847" style="text-align:start" id="tspan4403" font-size="15" text-anchor="start"> exposure </tspan></tspan><tspan x="501.458" y="319.097" id="tspan4405"><tspan x="497.298" y="281.597" style="text-align:start" id="tspan4407" font-size="15" text-anchor="start">caused by the input </tspan></tspan><tspan x="487.279" y="0" id="tspan4409"><tspan x="483.119" y="300.347" style="text-align:start" id="tspan4411" font-size="15" text-anchor="start">emissions using census </tspan></tspan><tspan x="549.842" y="0" id="tspan4413"><tspan x="545.682" y="319.097" style="text-align:start" id="tspan4415" font-size="15" text-anchor="start">data.</tspan></tspan></text><text xml:space="preserve" style="line-height:125%;-inkscape-font-specification:Helvetica;text-align:start" x="49.217" y="518.549" id="text4417" font-style="normal" font-variant="normal" font-weight="400" font-stretch="normal" font-size="17.5" font-family="Helvetica" letter-spacing="0" word-spacing="0" text-anchor="start" display="block" fill="#000" fill-opacity="1" stroke="none" stroke-width="1" stroke-linecap="butt" stroke-linejoin="miter" stroke-opacity="1"><tspan x="49.217" y="518.549" id="tspan4419"><tspan x="49.217" y="518.549" style="text-align:start" id="tspan4421" font-size="15" text-anchor="start">InMAP calculates how </tspan></tspan><tspan x="25.413" y="537.299" id="tspan4423"><tspan x="25.413" y="537.299" style="text-align:start" id="tspan4425" font-size="15" text-anchor="start">different demographic groups </tspan></tspan><tspan x="172.378" y="593.549" id="tspan4427"><tspan x="32.843" y="556.049" style="text-align:start" id="tspan4429" font-size="15" text-anchor="start">are exposed to PM</tspan><tspan x="158.819" y="556.049" style="text-align:start" id="tspan4431" font-size="65%" baseline-shift="sub" text-anchor="start">2.5 </tspan><tspan x="172.378" y="556.049" style="text-align:start" id="tspan4433" font-size="15" text-anchor="start"> even </tspan></tspan><tspan x="44.207" y="0" id="tspan4435"><tspan x="44.207" y="574.799" style="text-align:start" id="tspan4437" font-size="15" text-anchor="start">when the groups live in </tspan></tspan><tspan x="40.838" y="0" id="tspan4439"><tspan x="40.838" y="593.549" style="text-align:start" id="tspan4441" font-size="15" text-anchor="start">adjacent neighborhoods.</tspan></tspan></text><text xml:space="preserve" style="line-height:125%;-inkscape-font-specification:Helvetica;text-align:start" x="234.74" y="518.806" id="text4443" font-style="normal" font-variant="normal" font-weight="400" font-stretch="normal" font-size="17.5" font-family="Helvetica" letter-spacing="0" word-spacing="0" display="block" fill="#000" fill-opacity="1" stroke="none" stroke-width="1" stroke-linecap="butt" stroke-linejoin="miter" stroke-opacity="1" text-anchor="start"><tspan x="236.82" y="518.806" id="tspan4445"><tspan x="234.74" y="518.806" style="text-align:start" id="tspan4447" font-size="15" text-anchor="start">Optionally, health damages can </tspan></tspan><tspan x="256.009" y="537.556" id="tspan4449"><tspan x="253.929" y="537.556" style="text-align:start" id="tspan4451" font-size="15" text-anchor="start">be converted to economic </tspan></tspan><tspan x="255.16" y="556.306" id="tspan4453"><tspan x="253.08" y="556.306" style="text-align:start" id="tspan4455" font-size="15" text-anchor="start">damages using a Value of </tspan></tspan><tspan x="268.973" y="575.056" id="tspan4457"><tspan x="268.973" y="575.056" style="text-align:start" id="tspan4459" font-size="15" text-anchor="start">Statistical Life metric.</tspan></tspan></text><text xml:space="preserve" style="line-height:125%;-inkscape-font-specification:Helvetica;text-align:start" x="489.625" y="518.549" id="text4461" font-style="normal" font-variant="normal" font-weight="400" font-stretch="normal" font-size="17.5" font-family="Helvetica" letter-spacing="0" word-spacing="0" display="block" fill="#000" fill-opacity="1" stroke="none" stroke-width="1" stroke-linecap="butt" stroke-linejoin="miter" stroke-opacity="1" text-anchor="start"><tspan x="491.705" y="518.549" id="tspan4463"><tspan x="489.625" y="518.549" style="text-align:start" id="tspan4465" font-size="15" text-anchor="start">Using epidemiological </tspan></tspan><tspan x="486.285" y="537.299" id="tspan4467"><tspan x="484.205" y="537.299" style="text-align:start" id="tspan4469" font-size="15" text-anchor="start">concentration-response </tspan></tspan><tspan x="472.56" y="556.049" id="tspan4471"><tspan x="470.479" y="556.049" style="text-align:start" id="tspan4473" font-size="15" text-anchor="start">functions, InMAP calculates </tspan></tspan><tspan x="482.989" y="574.799" id="tspan4475"><tspan x="480.909" y="574.799" style="text-align:start" id="tspan4477" font-size="15" text-anchor="start">the health impacts of the </tspan></tspan><tspan x="527.198" y="593.549" id="tspan4479"><tspan x="527.198" y="593.549" style="text-align:start" id="tspan4481" font-size="15" text-anchor="start">emissions.</tspan></tspan></text></svg>