<svg xmlns="http://www.w3.org/2000/svg" width="17.186" height="17.481" viewBox="0 0 16.112 16.389"><path d="M2.996 10.03c0 .234-.145.38-.349.38H.38c-.233 0-.378-.146-.378-.38V.379C.002.147.147.002.38.002h2.268c.204 0 .349.145.349.377v9.653z" fill="#941739"/><path d="M15.694 13.394c.234 0 .377.143.377.347v2.269c0 .232-.143.379-.377.379H.379c-.233 0-.379-.147-.379-.38v-2.268c0-.204.146-.347.379-.347h15.315z" fill="#ee2c32"/><path d="M6.863 0h2.24s.29 0 .378.188l3.636 5.582V.188c0-.116.144-.188.349-.188h2.296c.204 0 .35.072.35.188v10.008c0 .116-.146.189-.35.189H13.64s-.292 0-.405-.189L9.48 5.164v5.032c0 .116-.145.189-.349.189H6.863c-.233 0-.378-.072-.378-.189V.188c0-.116.145-.188.378-.188" fill="#941739"/></svg>