<svg xmlns="http://www.w3.org/2000/svg" width="489.146" height="292.299" viewBox="0 0 458.575 274.03"><defs><clipPath clipPathUnits="userSpaceOnUse" id="a"><path d="M0 504h792V0H0v504z"/></clipPath></defs><g clip-path="url(#a)" transform="matrix(1.25 0 0 -1.25 -93.309 515.257)"><path d="M93.506 195.843c0-1.76-.917-2.862-2.198-2.862h-14.28c-1.465 0-2.381 1.101-2.381 2.862v153.221c0 1.76.916 2.862 2.38 2.862h14.28c1.282 0 2.199-1.102 2.199-2.862v-153.22zm24.343 77.008h14.098s1.83 0 2.38-1.419l22.883-42.27v42.27c0 .871.915 1.42 2.197 1.42h14.463c1.28 0 2.197-.549 2.197-1.42v-75.799c0-.876-.916-1.42-2.197-1.42h-13.366s-1.828 0-2.561 1.42l-23.616 38.117v-38.117c0-.876-.915-1.42-2.2-1.42h-14.278c-1.465 0-2.382.544-2.382 1.42v75.8c0 .87.917 1.418 2.382 1.418m99.038 10.796v-87.441c0-1.76-.916-2.862-2.2-2.862H200.41c-1.464 0-2.38 1.102-2.38 2.862v152.858c0 1.761.916 2.862 2.38 2.862h13.549s2.012 0 2.928-2.862l22.885-75.769 22.883 75.769c.732 2.862 2.746 2.862 2.746 2.862h13.732c1.28 0 2.196-1.101 2.196-2.862V196.206c0-1.76-.915-2.862-2.196-2.862h-14.461c-1.285 0-2.2 1.102-2.2 2.862v87.441l-22.7-76.428-22.885 76.428zm107.823-44.71h14.097l-7.141 62.552-6.956-62.552zm14.646 112.989s2.195 0 2.38-2.862l21.969-152.858c.365-2.862-1.282-2.862-1.282-2.862H346.68s-1.649 0-1.831 2.862l-3.113 21.145H321.78l-3.112-21.145c-.182-2.862-1.831-2.862-1.831-2.862h-15.743s-1.649 0-1.282 2.862l21.967 152.858c.183 2.862 2.382 2.862 2.382 2.862h15.195zm83.113-27.31c0 3.08-2.017 5.727-4.761 5.727h-16.66v-52.641h16.66c2.744 0 4.76 2.643 4.76 5.726v41.188zm-40.28 24.448c0 1.76.916 2.863 2.382 2.863h37.713c10.436 0 19.223-10.353 19.223-23.127v-48.675c0-12.776-8.787-23.128-19.223-23.128h-21.235v-60.791c0-1.76-.916-2.861-2.2-2.861h-14.278c-1.465 0-2.381 1.1-2.381 2.86v152.859z" fill="#941739"/></g><path d="M153.656 30.73c-5.412-7.017-14.73-9.137-23.205-8.474-3.02.234-6.28.646-9.197 1.484-.385.108-4.615 1.902-4.812 1.726 0-.005-4.541-3.921-8.42-3.308.642-.1 1.367-3.01 1.496-3.44.799-2.58 1.348-5.347 1.201-8.062-.517-9.606-13.657-14.838-19.502-6.478-1.35 1.93-2.668 5.078-2.775 7.462-.016.416.23 4.226.735 4.232 0 0-22.268-.414-21.601 16.589 0 0-4.424 3.1-4.424 4.785 0-1.163-5.533-.186-6.224-.061-7.104 1.35-11.804 7.185-12.114 14.362-.073 1.736.1 3.793.659 5.444.279.814.655 1.59 1.099 2.32 2.056 3.357 5.715 5.805 9.337 7.051-.66-.222-2.687 6.345-2.89 6.988-.128.402-.225.8-.322 1.198 1.084.16 2.159.367 3.174.657.252.07 2.998 1.236 3.127 1.12 0-.002 2.953-2.547 5.468-2.148-.417-.065-.888-1.956-.972-2.235-.517-1.675-.873-3.475-.778-5.236.336-6.243 8.873-9.641 12.67-4.209.876 1.253 1.733 3.299 1.802 4.846.011.272-.149 2.747-.479 2.75 0 0 14.469-.27 14.035 10.778 0 0 2.874 2.015 2.874 3.109 0-.755 3.594-.12 4.043-.04 4.616.877 7.67 4.668 7.87 9.33.05 1.13-.064 2.465-.427 3.537a7.64 7.64 0 01-.715 1.508c-1.333 2.18-3.711 3.77-6.067 4.58.429-.144 1.747 4.12 1.88 4.538 1.749 5.468-1.295 10.215-6.61 11.803-.389.115-2.74.817-3.03.389 0 0 2.077 3.06.984 6.015.005-.018 2.84 2.658 2.998 2.868a11.095 11.095 0 012.167 5.022c.15 1 .15 2.018-.037 3a8.859 8.859 0 01-.438 1.47 7.864 7.864 0 01-2.742 3.565c.55.745 2.079 2.736 3.163 3.417 0 0-5.216 8.081 4.72 13.128 0 0 4.345 2.04 6.31 1.2 0 0-.728 5.422 3.69 8.343.706.472 1.581.874 2.651 1.18 7.739 2.19 16.949-4.368 10.35-14.868-.062-.098.691-1.417.749-1.563 1.937-5.02-1.086-11.046-5.295-14.026 0 0 10.412-19.168-10.46-22.87 0 0 6.905-.841 6.905-7.571 0 0 14.54-1.197 12.28-14.933 0 0 15.991-5.6 14.142-23.779 0 .032 2.354-.9 2.459-.955.459-.22.919-.458 1.373-.7a24.492 24.492 0 004.17-2.873c9.456-8.18 10.52-24.148 2.955-33.964" fill="#ee2c32"/><path d="M75.83 131.07c.026-.63.026-4.055.78-4.453-6.884 3.637-14.822.668-17.487-6.222a13.57 13.57 0 01-.675-2.261c-.291-1.512-.288-3.08-.058-4.619.433-2.805 1.64-5.54 3.338-7.731.241-.32 4.606-4.441 4.614-4.414-1.685-4.545 1.515-9.258 1.515-9.258-.445.658-4.067-.423-4.664-.6-7.788-2.325-12.395-9.062-10.496-16.964a43.032 43.032 0 00-2.8-.308c-5.506-.43-11.561.948-15.076 5.505-4.918 6.38-4.224 16.754 1.92 22.067a15.85 15.85 0 002.709 1.866c.293.159.593.312.89.457.07.034 1.597.64 1.597.618-1.2 11.812 9.19 15.45 9.19 15.45-1.469 8.922 7.979 9.701 7.979 9.701 0 4.373 4.485 4.92 4.485 4.92-13.561 2.405-6.796 14.856-6.796 14.856-2.734 1.937-4.698 5.852-3.44 9.114.037.095.526.95.487 1.015-4.289 6.823 1.696 11.081 6.724 9.66.694-.199 1.264-.46 1.722-.769 2.87-1.896 2.398-5.418 2.398-5.418 1.273.546 4.097-.78 4.097-.78 6.456-3.28 3.066-8.528 3.066-8.528.873-.546 2.2-2.417 2.2-2.417 2.793 1.928 6.265 1.816 8.882-.372 1.868-1.558 2.548-3.863 2.451-6.248-.01-.227-.019-.992-.1-1.684-2.01-.28-3.964-1.129-5.678-2.563-2.876-2.401-3.924-5.947-3.774-9.62" fill="#8bd3d2"/><path d="M96.236 138c.181-.467.335-.952.439-1.47.187-.981.187-2 .036-3a11.12 11.12 0 00-2.167-5.022c-.158-.21-2.993-2.885-3-2.87 1.095-2.952-.982-6.013-.982-6.013.289.429 2.64-.275 3.03-.39 5.315-1.586 8.358-6.334 6.61-11.801-.133-.418-1.451-4.683-1.88-4.539 2.357-.81 4.733-2.4 6.067-4.58.29-.475.535-.979.716-1.507.362-1.074.476-2.41.427-3.537-.202-4.663-3.255-8.455-7.871-9.33-.45-.082-4.044-.716-4.044.038 0-1.094-2.873-3.108-2.873-3.108.433-11.047-14.034-10.778-14.034-10.778.33-.003.49-2.48.479-2.75-.07-1.548-.927-3.593-1.803-4.845-3.797-5.433-12.335-2.034-12.67 4.208-.096 1.762.261 3.56.779 5.235.084.28.555 2.172.971 2.235-2.516-.397-5.467 2.147-5.467 2.15-.13.115-2.877-1.05-3.128-1.12-1.015-.292-2.091-.5-3.174-.658-1.9 7.903 2.708 14.638 10.495 16.966.598.175 4.219 1.256 4.665.597 0 0-3.2 4.715-1.515 9.26-.007-.028-4.372 4.093-4.613 4.414-1.7 2.19-2.907 4.925-3.34 7.73-.23 1.539-.232 3.106.06 4.619.158.799.396 1.544.675 2.261 2.663 6.89 10.602 9.859 17.487 6.221-.755.4-.755 3.824-.781 4.454-.15 3.673.899 7.219 3.774 9.62 1.713 1.434 3.668 2.284 5.678 2.563-.067-.573-.187-1.094-.408-1.213a8.44 8.44 0 004.48.994 11.808 11.808 0 003.917-1.773s.093.128.224.304A7.885 7.885 0 0096.236 138" fill="#941739"/></svg>