<svg xmlns="http://www.w3.org/2000/svg" width="62.165" height="22.336" viewBox="0 0 58.279 20.94"><path d="M2.996 10.031c0 .234-.145.379-.349.379H.38c-.233 0-.378-.145-.378-.379V.379C.001.146.146 0 .379 0h2.268c.204 0 .349.145.349.378v9.652z" fill="#941739"/><path d="M15.694 13.394c.234 0 .377.144.377.348v2.268c0 .233-.143.38-.377.38H.379c-.233 0-.379-.147-.379-.38v-2.268c0-.204.146-.348.379-.348h15.315z" fill="#ee2c32"/><path d="M6.863 0h2.24s.29 0 .378.188l3.636 5.582V.188c0-.115.144-.188.349-.188h2.296c.204 0 .35.073.35.188v10.009c0 .116-.146.188-.35.188H13.64s-.292 0-.405-.188L9.48 5.164v5.033c0 .116-.145.188-.349.188H6.863c-.233 0-.378-.072-.378-.188V.188c0-.115.145-.188.378-.188m15.733 9.017v11.546c0 .232-.145.377-.35.377h-2.268c-.232 0-.377-.145-.377-.377V.379c0-.234.145-.379.377-.379h2.153s.32 0 .465.38l3.636 10.004L29.867.38c.117-.38.436-.38.436-.38h2.181c.204 0 .35.145.35.38v20.183c0 .232-.146.377-.35.377h-2.297c-.203 0-.349-.145-.349-.377V9.017l-3.606 10.09-3.636-10.09zm17.129 5.903h2.24L40.83 6.661l-1.105 8.259zM42.052 0s.349 0 .378.379l3.49 20.185c.058.376-.204.376-.204.376h-2.501s-.263 0-.29-.376l-.495-2.794h-3.17l-.495 2.794c-.03.376-.29.376-.29.376h-2.502s-.262 0-.202-.376L39.26.379C39.287 0 39.638 0 39.638 0h2.414zm13.204 3.606a.753.753 0 00-.757-.756h-2.647v6.951h2.647a.751.751 0 00.757-.755v-5.44zM48.856.38c0-.234.146-.379.38-.379h5.99c1.657 0 3.053 1.368 3.053 3.055v6.426a3.074 3.074 0 01-3.053 3.057h-3.374v8.025c0 .232-.146.377-.35.377h-2.266c-.234 0-.38-.145-.38-.377V.379z" fill="#941739"/></svg>